<svg width="20" height="23" viewBox="0 0 20 23" fill="none" xmlns="http://www.w3.org/2000/svg">
<path d="M18.212 0.825683C16.9513 1.06944 15.7426 1.30841 14.5339 1.54261C14.293 1.5904 14.1231 1.62386 13.8114 1.63342C13.5801 1.64298 13.089 1.65254 13.1315 1.39922C13.1882 1.19371 13.2543 1.0551 13.6651 0.930833C14.7274 0.615385 15.8276 0.462441 16.9183 0.304717C17.8815 0.166111 18.618 0.0753003 19.4773 0.0036076C19.8787 -0.029849 20.0392 0.170891 19.992 0.543692C19.9495 0.878258 19.9117 1.22238 19.8079 1.54261C19.4396 2.69925 19.043 3.84155 18.6558 4.99342C18.6086 5.1368 18.5802 5.25151 18.5 5.41401C18.4008 5.60997 18.3394 5.75814 18.1364 5.70078C17.9428 5.64821 17.9523 5.36144 17.9853 5.21805C18.2356 4.01362 18.7927 1.53783 18.7927 1.39922C18.1742 1.8007 17.5934 2.15917 17.0316 2.55109C13.1315 5.29931 9.45815 8.30562 6.53549 12.1579C4.22191 15.2072 2.30495 18.4812 0.888475 22.0515C0.803487 22.2618 0.699612 22.4673 0.595737 22.6633C0.458811 22.9309 0.340772 23.0456 0.199124 22.9835C-0.0511198 22.8306 -0.00390408 22.625 0.0197038 22.4577C0.0621981 22.1232 0.175516 21.7934 0.284113 21.4732C1.78085 17.2051 4.16053 13.4675 7.03598 10.031C9.98697 6.50374 13.5943 3.78898 17.4423 1.37533C17.6501 1.25584 18.1364 0.911714 18.212 0.825683Z" fill="#980108"/>
</svg>
