<svg width="20" height="23" viewBox="0 0 20 23" fill="none" xmlns="http://www.w3.org/2000/svg">
<path d="M1.78804 0.825683C3.0487 1.06944 4.25742 1.30841 5.46615 1.54261C5.70695 1.5904 5.87693 1.62386 6.18855 1.63342C6.41991 1.64298 6.91095 1.65254 6.86846 1.39922C6.8118 1.19371 6.7457 1.0551 6.33492 0.930833C5.27256 0.615385 4.17243 0.462441 3.08175 0.304717C2.11855 0.166111 1.38198 0.0753003 0.522652 0.0036076C0.121317 -0.029849 -0.039217 0.170891 0.00799942 0.543692C0.0504932 0.878258 0.0882664 1.22238 0.192141 1.54261C0.560425 2.69925 0.957037 3.84155 1.34421 4.99342C1.39142 5.1368 1.41975 5.25151 1.50002 5.41401C1.59917 5.60997 1.66055 5.75814 1.86358 5.70078C2.05717 5.64821 2.04772 5.36144 2.01467 5.21805C1.76443 4.01362 1.20728 1.53783 1.20728 1.39922C1.82581 1.8007 2.40656 2.15917 2.96843 2.55109C6.86846 5.29931 10.5419 8.30562 13.4645 12.1579C15.7781 15.2072 17.695 18.4812 19.1115 22.0515C19.1965 22.2618 19.3004 22.4673 19.4043 22.6633C19.5412 22.9309 19.6592 23.0456 19.8009 22.9835C20.0511 22.8306 20.0039 22.625 19.9803 22.4577C19.9378 22.1232 19.8245 21.7934 19.7159 21.4732C18.2191 17.2051 15.8395 13.4675 12.964 10.031C10.013 6.50374 6.40574 3.78898 2.55765 1.37533C2.3499 1.25584 1.86358 0.911714 1.78804 0.825683Z" fill="#5468C0"/>
</svg>
