<svg width="12" height="23" viewBox="0 0 12 23" fill="none" xmlns="http://www.w3.org/2000/svg">
<path d="M2.643 1.18268C3.69059 1.77633 4.69312 2.34926 5.69738 2.91879C5.89703 3.03306 6.03807 3.11352 6.31539 3.22428C6.52038 3.30826 6.95937 3.47888 7.01284 3.28488C7.03623 3.12008 7.02688 2.99963 6.70177 2.77436C5.85883 2.19598 4.92299 1.72036 3.99738 1.24449C3.17972 0.824733 2.54895 0.514518 1.80064 0.176915C1.45115 0.0192618 1.23379 0.108202 1.14128 0.3886C1.05838 0.64028 0.967759 0.89717 0.945355 1.15915C0.858207 2.1031 0.80178 3.04633 0.73338 3.99319C0.723984 4.11073 0.707958 4.20161 0.721416 4.34375C0.739771 4.51594 0.741406 4.6416 0.945117 4.66863C1.13859 4.69589 1.23396 4.48917 1.25612 4.37636C1.46693 3.43786 1.86176 1.49445 1.91196 1.39606C2.32384 1.88743 2.71727 2.33566 3.08156 2.80134C5.60008 6.05347 7.8209 9.4132 9.05885 13.123C10.0389 16.0596 10.5801 19.0233 10.5631 22.0304C10.5635 22.208 10.5827 22.3886 10.6053 22.5623C10.6317 22.798 10.6965 22.9188 10.8466 22.922C11.1275 22.8969 11.1594 22.7352 11.1987 22.6086C11.2816 22.3569 11.299 22.085 11.3172 21.8215C11.5146 18.2922 10.7244 14.845 9.37833 11.4462C7.99713 7.95765 5.73026 4.82694 3.13734 1.82964C2.99344 1.6755 2.6799 1.26896 2.643 1.18268Z" fill="#36B37E"/>
</svg>
