<svg width="11" height="23" viewBox="0 0 11 23" fill="none" xmlns="http://www.w3.org/2000/svg">
<path d="M8.70856 1.18268C7.66097 1.77633 6.65844 2.34926 5.65418 2.91879C5.45453 3.03306 5.31349 3.11352 5.03617 3.22428C4.83118 3.30826 4.3922 3.47888 4.33872 3.28488C4.31533 3.12008 4.32468 2.99963 4.64979 2.77436C5.49273 2.19598 6.42858 1.72036 7.35418 1.24449C8.17184 0.824733 8.80261 0.514518 9.55092 0.176915C9.90042 0.0192618 10.1178 0.108202 10.2103 0.3886C10.2932 0.64028 10.3838 0.89717 10.4062 1.15915C10.4934 2.1031 10.5498 3.04633 10.6182 3.99319C10.6276 4.11073 10.6436 4.20161 10.6301 4.34375C10.6118 4.51594 10.6102 4.6416 10.4064 4.66863C10.213 4.69589 10.1176 4.48917 10.0954 4.37636C9.88463 3.43786 9.48981 1.49445 9.4396 1.39606C9.02772 1.88743 8.63429 2.33566 8.27 2.80134C5.75149 6.05347 3.53066 9.4132 2.29272 13.123C1.31271 16.0596 0.77143 19.0233 0.788447 22.0304C0.788049 22.208 0.768902 22.3886 0.746291 22.5623C0.719872 22.798 0.655067 22.9188 0.504932 22.922C0.224053 22.8969 0.192148 22.7352 0.152823 22.6086C0.0699194 22.3569 0.0525608 22.085 0.0344103 21.8215C-0.163058 18.2922 0.6272 14.845 1.97323 11.4462C3.35443 7.95765 5.62131 4.82694 8.21422 1.82964C8.35813 1.6755 8.67166 1.26896 8.70856 1.18268Z" fill="#995300"/>
</svg>
