<svg width="209" height="143" viewBox="0 0 209 143" fill="none" xmlns="http://www.w3.org/2000/svg">
<g clip-path="url(#clip0_5498_163556)">
<path d="M25.679 85.3544H27.571L32.0199 96.2209H32.1733L36.6222 85.3544H38.5142V98.4453H37.0312V88.4993H36.9034L32.8125 98.4453H31.3807L27.2898 88.4993H27.1619V98.4453H25.679V85.3544ZM44.3773 98.6754C43.7551 98.6754 43.1905 98.5582 42.6834 98.3239C42.1763 98.0852 41.7736 97.7422 41.4753 97.2947C41.177 96.843 41.0279 96.2976 41.0279 95.6584C41.0279 95.0959 41.1387 94.6399 41.3603 94.2905C41.5819 93.9368 41.878 93.6598 42.2488 93.4595C42.6195 93.2592 43.0286 93.1101 43.476 93.0121C43.9277 92.9098 44.3816 92.8288 44.8375 92.7692C45.4341 92.6925 45.9178 92.6349 46.2885 92.5966C46.6635 92.554 46.9363 92.4837 47.1067 92.3857C47.2814 92.2876 47.3688 92.1172 47.3688 91.8743V91.8232C47.3688 91.1925 47.1962 90.7024 46.851 90.353C46.5101 90.0036 45.9924 89.8288 45.2978 89.8288C44.5776 89.8288 44.013 89.9865 43.6039 90.3018C43.1948 90.6172 42.9071 90.9538 42.7409 91.3118L41.3091 90.8004C41.5648 90.2038 41.9057 89.7393 42.3319 89.407C42.7623 89.0703 43.231 88.8359 43.7381 88.7038C44.2495 88.5675 44.7523 88.4993 45.2466 88.4993C45.562 88.4993 45.9242 88.5376 46.3333 88.6143C46.7466 88.6868 47.1451 88.8381 47.5286 89.0682C47.9164 89.2983 48.2381 89.6456 48.4938 90.1101C48.7495 90.5746 48.8773 91.1967 48.8773 91.9766V98.4453H47.3688V97.1158H47.2921C47.1898 97.3288 47.0194 97.5568 46.7807 97.7997C46.5421 98.0426 46.2246 98.2493 45.8283 98.4197C45.432 98.5902 44.9483 98.6754 44.3773 98.6754ZM44.6074 97.3203C45.204 97.3203 45.7069 97.2031 46.1159 96.9688C46.5293 96.7344 46.8404 96.4318 47.0492 96.0611C47.2623 95.6903 47.3688 95.3004 47.3688 94.8913V93.5107C47.3049 93.5874 47.1642 93.6577 46.9469 93.7216C46.7338 93.7812 46.4867 93.8345 46.2054 93.8814C45.9284 93.924 45.6578 93.9624 45.3936 93.9964C45.1337 94.0263 44.9228 94.0518 44.7608 94.0732C44.3688 94.1243 44.0023 94.2074 43.6614 94.3224C43.3248 94.4332 43.052 94.6016 42.8432 94.8274C42.6387 95.049 42.5364 95.3516 42.5364 95.7351C42.5364 96.2592 42.7303 96.6555 43.1181 96.924C43.5101 97.1882 44.0066 97.3203 44.6074 97.3203ZM51.6307 98.4453V88.6271H53.1392V98.4453H51.6307ZM52.3977 86.9908C52.1037 86.9908 51.8501 86.8906 51.6371 86.6903C51.4283 86.4901 51.3239 86.2493 51.3239 85.968C51.3239 85.6868 51.4283 85.446 51.6371 85.2457C51.8501 85.0455 52.1037 84.9453 52.3977 84.9453C52.6918 84.9453 52.9432 85.0455 53.152 85.2457C53.3651 85.446 53.4716 85.6868 53.4716 85.968C53.4716 86.2493 53.3651 86.4901 53.152 86.6903C52.9432 86.8906 52.6918 86.9908 52.3977 86.9908ZM57.4107 92.5391V98.4453H55.9022V88.6271H57.3596V90.1612H57.4874C57.7175 89.6626 58.0669 89.2621 58.5357 88.9595C59.0044 88.6527 59.6096 88.4993 60.351 88.4993C61.0158 88.4993 61.5975 88.6357 62.0961 88.9084C62.5946 89.1768 62.9824 89.5859 63.2594 90.1357C63.5364 90.6811 63.6749 91.3714 63.6749 92.2067V98.4453H62.1664V92.3089C62.1664 91.5376 61.9661 90.9368 61.5655 90.5064C61.165 90.0717 60.6152 89.8544 59.9164 89.8544C59.4348 89.8544 59.0044 89.9588 58.6252 90.1676C58.2502 90.3764 57.954 90.6811 57.7367 91.0817C57.5194 91.4822 57.4107 91.968 57.4107 92.5391ZM70.7013 88.6271V89.9055H65.6133V88.6271H70.7013ZM67.0962 86.2749H68.6048V95.6328C68.6048 96.0589 68.6665 96.3786 68.7901 96.5916C68.918 96.8004 69.0799 96.9411 69.2759 97.0135C69.4762 97.0817 69.6871 97.1158 69.9087 97.1158C70.0749 97.1158 70.2113 97.1072 70.3178 97.0902C70.4244 97.0689 70.5096 97.0518 70.5735 97.0391L70.8803 98.3942C70.7781 98.4325 70.6353 98.4709 70.4521 98.5092C70.2688 98.5518 70.0366 98.5732 69.7553 98.5732C69.3292 98.5732 68.9116 98.4815 68.5025 98.2983C68.0977 98.1151 67.761 97.8359 67.4925 97.4609C67.2283 97.0859 67.0962 96.6129 67.0962 96.0419V86.2749ZM76.9815 98.6499C76.0355 98.6499 75.2195 98.4411 74.5334 98.0234C73.8516 97.6016 73.3253 97.0135 72.9545 96.2592C72.5881 95.5007 72.4048 94.6186 72.4048 93.6129C72.4048 92.6072 72.5881 91.7209 72.9545 90.9538C73.3253 90.1825 73.8409 89.5817 74.5014 89.1513C75.1662 88.7166 75.9418 88.4993 76.8281 88.4993C77.3395 88.4993 77.8445 88.5845 78.343 88.755C78.8416 88.9254 79.2955 89.2024 79.7045 89.5859C80.1136 89.9652 80.4396 90.468 80.6825 91.0945C80.9254 91.7209 81.0469 92.4922 81.0469 93.4084V94.0476H73.4787V92.7436H79.5128C79.5128 92.1896 79.402 91.6953 79.1804 91.2607C78.9631 90.826 78.652 90.483 78.2472 90.2315C77.8466 89.9801 77.3736 89.8544 76.8281 89.8544C76.2273 89.8544 75.7074 90.0036 75.2685 90.3018C74.8338 90.5959 74.4993 90.9794 74.2649 91.4524C74.0305 91.9254 73.9134 92.4325 73.9134 92.9737V93.843C73.9134 94.5845 74.0412 95.2131 74.2969 95.7287C74.5568 96.2401 74.9169 96.63 75.3771 96.8984C75.8374 97.1626 76.3722 97.2947 76.9815 97.2947C77.3778 97.2947 77.7358 97.2393 78.0554 97.1286C78.3793 97.0135 78.6584 96.843 78.8928 96.6172C79.1271 96.3871 79.3082 96.1016 79.4361 95.7607L80.8935 96.1697C80.7401 96.6641 80.4822 97.0987 80.12 97.4737C79.7578 97.8445 79.3104 98.1342 78.7777 98.343C78.245 98.5476 77.6463 98.6499 76.9815 98.6499ZM84.8501 92.5391V98.4453H83.3416V88.6271H84.799V90.1612H84.9268C85.157 89.6626 85.5064 89.2621 85.9751 88.9595C86.4439 88.6527 87.049 88.4993 87.7905 88.4993C88.4553 88.4993 89.0369 88.6357 89.5355 88.9084C90.0341 89.1768 90.4219 89.5859 90.6989 90.1357C90.9759 90.6811 91.1143 91.3714 91.1143 92.2067V98.4453H89.6058V92.3089C89.6058 91.5376 89.4055 90.9368 89.005 90.5064C88.6044 90.0717 88.0547 89.8544 87.3558 89.8544C86.8743 89.8544 86.4439 89.9588 86.0646 90.1676C85.6896 90.3764 85.3935 90.6811 85.1761 91.0817C84.9588 91.4822 84.8501 91.968 84.8501 92.5391ZM96.7601 98.6754C96.138 98.6754 95.5733 98.5582 95.0662 98.3239C94.5591 98.0852 94.1564 97.7422 93.8581 97.2947C93.5598 96.843 93.4107 96.2976 93.4107 95.6584C93.4107 95.0959 93.5215 94.6399 93.7431 94.2905C93.9647 93.9368 94.2608 93.6598 94.6316 93.4595C95.0023 93.2592 95.4114 93.1101 95.8588 93.0121C96.3105 92.9098 96.7644 92.8288 97.2203 92.7692C97.8169 92.6925 98.3006 92.6349 98.6713 92.5966C99.0463 92.554 99.3191 92.4837 99.4895 92.3857C99.6642 92.2876 99.7516 92.1172 99.7516 91.8743V91.8232C99.7516 91.1925 99.579 90.7024 99.2338 90.353C98.8929 90.0036 98.3752 89.8288 97.6806 89.8288C96.9604 89.8288 96.3958 89.9865 95.9867 90.3018C95.5776 90.6172 95.29 90.9538 95.1238 91.3118L93.6919 90.8004C93.9476 90.2038 94.2885 89.7393 94.7147 89.407C95.1451 89.0703 95.6138 88.8359 96.1209 88.7038C96.6323 88.5675 97.1351 88.4993 97.6294 88.4993C97.9448 88.4993 98.307 88.5376 98.7161 88.6143C99.1294 88.6868 99.5279 88.8381 99.9114 89.0682C100.299 89.2983 100.621 89.6456 100.877 90.1101C101.132 90.5746 101.26 91.1967 101.26 91.9766V98.4453H99.7516V97.1158H99.6749C99.5726 97.3288 99.4022 97.5568 99.1635 97.7997C98.9249 98.0426 98.6074 98.2493 98.2111 98.4197C97.8148 98.5902 97.3311 98.6754 96.7601 98.6754ZM96.9902 97.3203C97.5868 97.3203 98.0897 97.2031 98.4988 96.9688C98.9121 96.7344 99.2232 96.4318 99.432 96.0611C99.6451 95.6903 99.7516 95.3004 99.7516 94.8913V93.5107C99.6877 93.5874 99.5471 93.6577 99.3297 93.7216C99.1167 93.7812 98.8695 93.8345 98.5882 93.8814C98.3113 93.924 98.0407 93.9624 97.7765 93.9964C97.5165 94.0263 97.3056 94.0518 97.1436 94.0732C96.7516 94.1243 96.3851 94.2074 96.0442 94.3224C95.7076 94.4332 95.4348 94.6016 95.226 94.8274C95.0215 95.049 94.9192 95.3516 94.9192 95.7351C94.9192 96.2592 95.1131 96.6555 95.5009 96.924C95.8929 97.1882 96.3894 97.3203 96.9902 97.3203ZM105.522 92.5391V98.4453H104.013V88.6271H105.471V90.1612H105.599C105.829 89.6626 106.178 89.2621 106.647 88.9595C107.116 88.6527 107.721 88.4993 108.462 88.4993C109.127 88.4993 109.709 88.6357 110.207 88.9084C110.706 89.1768 111.094 89.5859 111.371 90.1357C111.648 90.6811 111.786 91.3714 111.786 92.2067V98.4453H110.278V92.3089C110.278 91.5376 110.077 90.9368 109.677 90.5064C109.276 90.0717 108.727 89.8544 108.028 89.8544C107.546 89.8544 107.116 89.9588 106.737 90.1676C106.362 90.3764 106.065 90.6811 105.848 91.0817C105.631 91.4822 105.522 91.968 105.522 92.5391ZM118.531 98.6499C117.611 98.6499 116.818 98.4325 116.154 97.9979C115.489 97.5632 114.977 96.9645 114.619 96.2017C114.262 95.4389 114.083 94.5675 114.083 93.5874C114.083 92.5902 114.266 91.7102 114.632 90.9474C115.003 90.1804 115.519 89.5817 116.179 89.1513C116.844 88.7166 117.619 88.4993 118.506 88.4993C119.196 88.4993 119.818 88.6271 120.372 88.8828C120.926 89.1385 121.38 89.4964 121.734 89.9567C122.088 90.4169 122.307 90.9538 122.392 91.5675H120.884C120.769 91.12 120.513 90.7237 120.117 90.3786C119.725 90.0291 119.196 89.8544 118.531 89.8544C117.943 89.8544 117.428 90.0078 116.985 90.3146C116.546 90.6172 116.203 91.0455 115.955 91.5994C115.713 92.1491 115.591 92.7947 115.591 93.5362C115.591 94.2947 115.71 94.9553 115.949 95.5178C116.192 96.0803 116.533 96.517 116.972 96.8281C117.415 97.1392 117.935 97.2947 118.531 97.2947C118.923 97.2947 119.279 97.2266 119.599 97.0902C119.919 96.9538 120.189 96.7578 120.411 96.5021C120.632 96.2464 120.79 95.9396 120.884 95.5817H122.392C122.307 96.1612 122.096 96.6832 121.759 97.1477C121.427 97.608 120.986 97.9744 120.436 98.2472C119.891 98.5156 119.256 98.6499 118.531 98.6499ZM128.714 98.6499C127.768 98.6499 126.952 98.4411 126.266 98.0234C125.584 97.6016 125.058 97.0135 124.687 96.2592C124.32 95.5007 124.137 94.6186 124.137 93.6129C124.137 92.6072 124.32 91.7209 124.687 90.9538C125.058 90.1825 125.573 89.5817 126.234 89.1513C126.899 88.7166 127.674 88.4993 128.561 88.4993C129.072 88.4993 129.577 88.5845 130.075 88.755C130.574 88.9254 131.028 89.2024 131.437 89.5859C131.846 89.9652 132.172 90.468 132.415 91.0945C132.658 91.7209 132.779 92.4922 132.779 93.4084V94.0476H125.211V92.7436H131.245C131.245 92.1896 131.134 91.6953 130.913 91.2607C130.695 90.826 130.384 90.483 129.98 90.2315C129.579 89.9801 129.106 89.8544 128.561 89.8544C127.96 89.8544 127.44 90.0036 127.001 90.3018C126.566 90.5959 126.232 90.9794 125.997 91.4524C125.763 91.9254 125.646 92.4325 125.646 92.9737V93.843C125.646 94.5845 125.774 95.2131 126.029 95.7287C126.289 96.2401 126.649 96.63 127.11 96.8984C127.57 97.1626 128.105 97.2947 128.714 97.2947C129.11 97.2947 129.468 97.2393 129.788 97.1286C130.112 97.0135 130.391 96.843 130.625 96.6172C130.86 96.3871 131.041 96.1016 131.169 95.7607L132.626 96.1697C132.472 96.6641 132.215 97.0987 131.852 97.4737C131.49 97.8445 131.043 98.1342 130.51 98.343C129.977 98.5476 129.379 98.6499 128.714 98.6499ZM25.4744 126.127V112.627H26.9318V114.187H27.1108C27.2216 114.016 27.375 113.799 27.571 113.535C27.7713 113.266 28.0568 113.028 28.4276 112.819C28.8026 112.606 29.3097 112.499 29.9489 112.499C30.7756 112.499 31.5043 112.706 32.1349 113.119C32.7656 113.533 33.2578 114.119 33.6115 114.877C33.9652 115.636 34.142 116.531 34.142 117.562C34.142 118.602 33.9652 119.503 33.6115 120.266C33.2578 121.024 32.7678 121.612 32.1413 122.03C31.5149 122.443 30.7926 122.65 29.9744 122.65C29.3438 122.65 28.8388 122.545 28.4595 122.337C28.0803 122.124 27.7884 121.883 27.5838 121.614C27.3793 121.342 27.2216 121.116 27.1108 120.937H26.983V126.127H25.4744ZM26.9574 117.536C26.9574 118.278 27.0661 118.932 27.2834 119.499C27.5007 120.061 27.8182 120.502 28.2358 120.822C28.6534 121.137 29.1648 121.295 29.7699 121.295C30.4006 121.295 30.9268 121.129 31.3487 120.796C31.7749 120.46 32.0945 120.008 32.3075 119.441C32.5249 118.87 32.6335 118.235 32.6335 117.536C32.6335 116.846 32.527 116.224 32.3139 115.67C32.1051 115.112 31.7876 114.67 31.3615 114.347C30.9396 114.018 30.4091 113.854 29.7699 113.854C29.1563 113.854 28.6406 114.01 28.223 114.321C27.8054 114.628 27.4901 115.058 27.277 115.612C27.0639 116.162 26.9574 116.803 26.9574 117.536ZM36.4432 122.445V112.627H37.9006V114.11H38.0028C38.1818 113.624 38.5057 113.23 38.9744 112.928C39.4432 112.625 39.9716 112.474 40.5597 112.474C40.6705 112.474 40.8089 112.476 40.9751 112.48C41.1413 112.484 41.267 112.491 41.3523 112.499V114.033C41.3011 114.021 41.1839 114.001 41.0007 113.976C40.8217 113.946 40.6321 113.931 40.4318 113.931C39.9545 113.931 39.5284 114.031 39.1534 114.232C38.7827 114.428 38.4886 114.7 38.2713 115.05C38.0582 115.395 37.9517 115.789 37.9517 116.232V122.445H36.4432ZM43.1404 122.445V112.627H44.649V122.445H43.1404ZM43.9075 110.991C43.6135 110.991 43.3599 110.891 43.1468 110.69C42.938 110.49 42.8336 110.249 42.8336 109.968C42.8336 109.687 42.938 109.446 43.1468 109.246C43.3599 109.045 43.6135 108.945 43.9075 108.945C44.2015 108.945 44.4529 109.045 44.6618 109.246C44.8748 109.446 44.9814 109.687 44.9814 109.968C44.9814 110.249 44.8748 110.49 44.6618 110.69C44.4529 110.891 44.2015 110.991 43.9075 110.991ZM51.4006 122.65C50.5142 122.65 49.7365 122.439 49.0675 122.017C48.4027 121.595 47.8828 121.005 47.5078 120.246C47.1371 119.488 46.9517 118.602 46.9517 117.587C46.9517 116.565 47.1371 115.672 47.5078 114.909C47.8828 114.146 48.4027 113.554 49.0675 113.132C49.7365 112.71 50.5142 112.499 51.4006 112.499C52.2869 112.499 53.0625 112.71 53.7273 113.132C54.3963 113.554 54.9162 114.146 55.2869 114.909C55.6619 115.672 55.8494 116.565 55.8494 117.587C55.8494 118.602 55.6619 119.488 55.2869 120.246C54.9162 121.005 54.3963 121.595 53.7273 122.017C53.0625 122.439 52.2869 122.65 51.4006 122.65ZM51.4006 121.295C52.0739 121.295 52.6278 121.122 53.0625 120.777C53.4972 120.432 53.8189 119.978 54.0277 119.415C54.2365 118.853 54.3409 118.244 54.3409 117.587C54.3409 116.931 54.2365 116.32 54.0277 115.753C53.8189 115.186 53.4972 114.728 53.0625 114.379C52.6278 114.029 52.0739 113.854 51.4006 113.854C50.7273 113.854 50.1733 114.029 49.7386 114.379C49.304 114.728 48.9822 115.186 48.7734 115.753C48.5646 116.32 48.4602 116.931 48.4602 117.587C48.4602 118.244 48.5646 118.853 48.7734 119.415C48.9822 119.978 49.304 120.432 49.7386 120.777C50.1733 121.122 50.7273 121.295 51.4006 121.295ZM58.1522 122.445V112.627H59.6096V114.11H59.7118C59.8908 113.624 60.2147 113.23 60.6834 112.928C61.1522 112.625 61.6806 112.474 62.2686 112.474C62.3794 112.474 62.5179 112.476 62.6841 112.48C62.8503 112.484 62.976 112.491 63.0613 112.499V114.033C63.0101 114.021 62.8929 114.001 62.7097 113.976C62.5307 113.946 62.3411 113.931 62.1408 113.931C61.6635 113.931 61.2374 114.031 60.8624 114.232C60.4917 114.428 60.1976 114.7 59.9803 115.05C59.7672 115.395 59.6607 115.789 59.6607 116.232V122.445H58.1522ZM64.8494 122.445V112.627H66.358V122.445H64.8494ZM65.6165 110.991C65.3224 110.991 65.0689 110.891 64.8558 110.69C64.647 110.49 64.5426 110.249 64.5426 109.968C64.5426 109.687 64.647 109.446 64.8558 109.246C65.0689 109.045 65.3224 108.945 65.6165 108.945C65.9105 108.945 66.1619 109.045 66.3707 109.246C66.5838 109.446 66.6903 109.687 66.6903 109.968C66.6903 110.249 66.5838 110.49 66.3707 110.69C66.1619 110.891 65.9105 110.991 65.6165 110.991ZM73.3908 112.627V113.906H68.3027V112.627H73.3908ZM69.7857 110.275H71.2942V119.633C71.2942 120.059 71.356 120.379 71.4796 120.592C71.6074 120.8 71.7694 120.941 71.9654 121.013C72.1657 121.082 72.3766 121.116 72.5982 121.116C72.7644 121.116 72.9007 121.107 73.0073 121.09C73.1138 121.069 73.199 121.052 73.263 121.039L73.5698 122.394C73.4675 122.433 73.3248 122.471 73.1415 122.509C72.9583 122.552 72.726 122.573 72.4448 122.573C72.0186 122.573 71.601 122.482 71.1919 122.298C70.7871 122.115 70.4505 121.836 70.182 121.461C69.9178 121.086 69.7857 120.613 69.7857 120.042V110.275ZM75.66 122.445V112.627H77.1685V122.445H75.66ZM76.427 110.991C76.133 110.991 75.8794 110.891 75.6664 110.69C75.4576 110.49 75.3532 110.249 75.3532 109.968C75.3532 109.687 75.4576 109.446 75.6664 109.246C75.8794 109.045 76.133 108.945 76.427 108.945C76.7211 108.945 76.9725 109.045 77.1813 109.246C77.3944 109.446 77.5009 109.687 77.5009 109.968C77.5009 110.249 77.3944 110.49 77.1813 110.69C76.9725 110.891 76.7211 110.991 76.427 110.991ZM79.6502 122.445V121.295L85.2241 114.136V114.033H79.8292V112.627H87.1673V113.829L81.7468 120.937V121.039H87.3462V122.445H79.6502ZM92.5589 122.675C91.9368 122.675 91.3722 122.558 90.8651 122.324C90.358 122.085 89.9553 121.742 89.657 121.295C89.3587 120.843 89.2095 120.298 89.2095 119.658C89.2095 119.096 89.3203 118.64 89.5419 118.29C89.7635 117.937 90.0597 117.66 90.4304 117.46C90.8011 117.259 91.2102 117.11 91.6577 117.012C92.1094 116.91 92.5632 116.829 93.0192 116.769C93.6158 116.692 94.0994 116.635 94.4702 116.597C94.8452 116.554 95.1179 116.484 95.2884 116.386C95.4631 116.288 95.5504 116.117 95.5504 115.874V115.823C95.5504 115.192 95.3778 114.702 95.0327 114.353C94.6918 114.004 94.174 113.829 93.4794 113.829C92.7592 113.829 92.1946 113.987 91.7855 114.302C91.3764 114.617 91.0888 114.954 90.9226 115.312L89.4908 114.8C89.7464 114.204 90.0874 113.739 90.5135 113.407C90.9439 113.07 91.4126 112.836 91.9197 112.704C92.4311 112.567 92.9339 112.499 93.4283 112.499C93.7436 112.499 94.1058 112.538 94.5149 112.614C94.9283 112.687 95.3267 112.838 95.7102 113.068C96.098 113.298 96.4197 113.646 96.6754 114.11C96.9311 114.575 97.0589 115.197 97.0589 115.977V122.445H95.5504V121.116H95.4737C95.3714 121.329 95.201 121.557 94.9624 121.8C94.7237 122.043 94.4063 122.249 94.0099 122.42C93.6136 122.59 93.13 122.675 92.5589 122.675ZM92.7891 121.32C93.3857 121.32 93.8885 121.203 94.2976 120.969C94.7109 120.734 95.022 120.432 95.2308 120.061C95.4439 119.69 95.5504 119.3 95.5504 118.891V117.511C95.4865 117.587 95.3459 117.658 95.1286 117.722C94.9155 117.781 94.6683 117.835 94.3871 117.881C94.1101 117.924 93.8395 117.962 93.5753 117.996C93.3153 118.026 93.1044 118.052 92.9425 118.073C92.5504 118.124 92.1839 118.207 91.843 118.322C91.5064 118.433 91.2337 118.602 91.0249 118.827C90.8203 119.049 90.718 119.352 90.718 119.735C90.718 120.259 90.9119 120.656 91.2997 120.924C91.6918 121.188 92.1882 121.32 92.7891 121.32ZM104.082 112.627V113.906H98.9941V112.627H104.082ZM100.477 110.275H101.986V119.633C101.986 120.059 102.047 120.379 102.171 120.592C102.299 120.8 102.461 120.941 102.657 121.013C102.857 121.082 103.068 121.116 103.29 121.116C103.456 121.116 103.592 121.107 103.699 121.09C103.805 121.069 103.89 121.052 103.954 121.039L104.261 122.394C104.159 122.433 104.016 122.471 103.833 122.509C103.65 122.552 103.417 122.573 103.136 122.573C102.71 122.573 102.292 122.482 101.883 122.298C101.479 122.115 101.142 121.836 100.873 121.461C100.609 121.086 100.477 120.613 100.477 120.042V110.275ZM106.351 122.445V112.627H107.86V122.445H106.351ZM107.118 110.991C106.824 110.991 106.571 110.891 106.358 110.69C106.149 110.49 106.045 110.249 106.045 109.968C106.045 109.687 106.149 109.446 106.358 109.246C106.571 109.045 106.824 108.945 107.118 108.945C107.412 108.945 107.664 109.045 107.873 109.246C108.086 109.446 108.192 109.687 108.192 109.968C108.192 110.249 108.086 110.49 107.873 110.69C107.664 110.891 107.412 110.991 107.118 110.991ZM114.612 122.65C113.725 122.65 112.947 122.439 112.278 122.017C111.614 121.595 111.094 121.005 110.719 120.246C110.348 119.488 110.163 118.602 110.163 117.587C110.163 116.565 110.348 115.672 110.719 114.909C111.094 114.146 111.614 113.554 112.278 113.132C112.947 112.71 113.725 112.499 114.612 112.499C115.498 112.499 116.273 112.71 116.938 113.132C117.607 113.554 118.127 114.146 118.498 114.909C118.873 115.672 119.06 116.565 119.06 117.587C119.06 118.602 118.873 119.488 118.498 120.246C118.127 121.005 117.607 121.595 116.938 122.017C116.273 122.439 115.498 122.65 114.612 122.65ZM114.612 121.295C115.285 121.295 115.839 121.122 116.273 120.777C116.708 120.432 117.03 119.978 117.239 119.415C117.447 118.853 117.552 118.244 117.552 117.587C117.552 116.931 117.447 116.32 117.239 115.753C117.03 115.186 116.708 114.728 116.273 114.379C115.839 114.029 115.285 113.854 114.612 113.854C113.938 113.854 113.384 114.029 112.95 114.379C112.515 114.728 112.193 115.186 111.984 115.753C111.776 116.32 111.671 116.931 111.671 117.587C111.671 118.244 111.776 118.853 111.984 119.415C112.193 119.978 112.515 120.432 112.95 120.777C113.384 121.122 113.938 121.295 114.612 121.295ZM122.872 116.539V122.445H121.363V112.627H122.82V114.161H122.948C123.178 113.663 123.528 113.262 123.997 112.96C124.465 112.653 125.07 112.499 125.812 112.499C126.477 112.499 127.058 112.636 127.557 112.908C128.056 113.177 128.443 113.586 128.72 114.136C128.997 114.681 129.136 115.371 129.136 116.207V122.445H127.627V116.309C127.627 115.538 127.427 114.937 127.026 114.506C126.626 114.072 126.076 113.854 125.377 113.854C124.896 113.854 124.465 113.959 124.086 114.168C123.711 114.376 123.415 114.681 123.198 115.082C122.98 115.482 122.872 115.968 122.872 116.539ZM141.225 112.627V113.906H136.137V112.627H141.225ZM137.62 110.275H139.128V119.633C139.128 120.059 139.19 120.379 139.314 120.592C139.441 120.8 139.603 120.941 139.799 121.013C140 121.082 140.211 121.116 140.432 121.116C140.598 121.116 140.735 121.107 140.841 121.09C140.948 121.069 141.033 121.052 141.097 121.039L141.404 122.394C141.301 122.433 141.159 122.471 140.975 122.509C140.792 122.552 140.56 122.573 140.279 122.573C139.853 122.573 139.435 122.482 139.026 122.298C138.621 122.115 138.284 121.836 138.016 121.461C137.752 121.086 137.62 120.613 137.62 120.042V110.275ZM147.377 122.65C146.491 122.65 145.713 122.439 145.044 122.017C144.379 121.595 143.859 121.005 143.484 120.246C143.114 119.488 142.928 118.602 142.928 117.587C142.928 116.565 143.114 115.672 143.484 114.909C143.859 114.146 144.379 113.554 145.044 113.132C145.713 112.71 146.491 112.499 147.377 112.499C148.263 112.499 149.039 112.71 149.704 113.132C150.373 113.554 150.893 114.146 151.263 114.909C151.638 115.672 151.826 116.565 151.826 117.587C151.826 118.602 151.638 119.488 151.263 120.246C150.893 121.005 150.373 121.595 149.704 122.017C149.039 122.439 148.263 122.65 147.377 122.65ZM147.377 121.295C148.05 121.295 148.604 121.122 149.039 120.777C149.474 120.432 149.795 119.978 150.004 119.415C150.213 118.853 150.317 118.244 150.317 117.587C150.317 116.931 150.213 116.32 150.004 115.753C149.795 115.186 149.474 114.728 149.039 114.379C148.604 114.029 148.05 113.854 147.377 113.854C146.704 113.854 146.15 114.029 145.715 114.379C145.281 114.728 144.959 115.186 144.75 115.753C144.541 116.32 144.437 116.931 144.437 117.587C144.437 118.244 144.541 118.853 144.75 119.415C144.959 119.978 145.281 120.432 145.715 120.777C146.15 121.122 146.704 121.295 147.377 121.295ZM158.117 122.65C157.231 122.65 156.453 122.439 155.784 122.017C155.119 121.595 154.6 121.005 154.225 120.246C153.854 119.488 153.669 118.602 153.669 117.587C153.669 116.565 153.854 115.672 154.225 114.909C154.6 114.146 155.119 113.554 155.784 113.132C156.453 112.71 157.231 112.499 158.117 112.499C159.004 112.499 159.779 112.71 160.444 113.132C161.113 113.554 161.633 114.146 162.004 114.909C162.379 115.672 162.566 116.565 162.566 117.587C162.566 118.602 162.379 119.488 162.004 120.246C161.633 121.005 161.113 121.595 160.444 122.017C159.779 122.439 159.004 122.65 158.117 122.65ZM158.117 121.295C158.791 121.295 159.345 121.122 159.779 120.777C160.214 120.432 160.536 119.978 160.744 119.415C160.953 118.853 161.058 118.244 161.058 117.587C161.058 116.931 160.953 116.32 160.744 115.753C160.536 115.186 160.214 114.728 159.779 114.379C159.345 114.029 158.791 113.854 158.117 113.854C157.444 113.854 156.89 114.029 156.455 114.379C156.021 114.728 155.699 115.186 155.49 115.753C155.281 116.32 155.177 116.931 155.177 117.587C155.177 118.244 155.281 118.853 155.49 119.415C155.699 119.978 156.021 120.432 156.455 120.777C156.89 121.122 157.444 121.295 158.117 121.295ZM166.377 109.354V122.445H164.869V109.354H166.377Z" fill="white"/>
<g opacity="0.89" clip-path="url(#clip1_5498_163556)">
<path d="M34.4805 33.0431L44.9805 38.1902L57.2305 33.0431M34.4805 33.0431L56.0107 4.38946C56.1439 4.3335 56.2891 4.31082 56.4334 4.32347C56.5777 4.33612 56.7165 4.3837 56.8374 4.46193C56.9584 4.54017 57.0576 4.64661 57.1262 4.77171C57.1948 4.8968 57.2306 5.03664 57.2305 5.17867L57.2305 33.0431M34.4805 33.0431L23.4502 37.6772L34.4805 33.0431ZM57.2305 33.0431L57.0949 32.7205L56.8805 32.8105M57.2305 33.0431H56.8805V32.8105M56.8805 32.8105L44.9916 37.8059L34.6345 32.7289L34.4916 32.6588L34.3449 32.7204L23.3147 37.3545L23.3146 37.3545C23.2341 37.3884 23.1459 37.4022 23.0581 37.3945C22.9703 37.3868 22.8863 37.3579 22.8136 37.3109C22.741 37.2638 22.6821 37.2004 22.6417 37.1267C22.6013 37.053 22.5804 36.9711 22.5805 36.8883V36.888L22.5805 9.2561L34.4693 4.26079L44.8264 9.3378L44.9693 9.40784L45.116 9.3462L56.1463 4.71213L56.1463 4.71212C56.2269 4.67827 56.3151 4.66444 56.4028 4.67214C56.4906 4.67983 56.5746 4.70875 56.6473 4.75579C56.72 4.8028 56.7789 4.86628 56.8193 4.93999C56.8597 5.01366 56.8805 5.09554 56.8805 5.17835V5.17867L56.8805 32.8105ZM34.583 29.6478L44.9402 34.7248L45.0831 34.7949L45.2299 34.7332L53.8662 31.1011L54.0805 31.0109V30.7784V9.08014V8.55351L53.5949 8.75745L44.876 12.4197L34.5208 7.34356L34.3779 7.27351L34.2311 7.33516L25.5949 10.9638L25.3805 11.0539V11.2865L25.3805 32.9865V33.5131L25.866 33.3092L34.583 29.6478ZM46.482 19.4596L46.727 19.6995L46.9719 19.4596L48.8934 17.5773L50.2486 18.906L48.3386 20.7801L48.084 21.0299L48.3386 21.2797L50.2486 23.1538L48.8934 24.4825L46.9719 22.6002L46.7269 22.3602L46.4819 22.6003L44.5621 24.4825L43.2054 23.1537L45.1153 21.2797L45.3701 21.0298L45.1152 20.78L43.2053 18.9075L44.5607 17.5774L46.482 19.4596ZM29.5805 19.6676H32.3805V22.399H29.5805V19.6676ZM36.5805 19.6676L39.3805 19.6676V22.399H36.5805V19.6676Z" fill="white" stroke="#060606" stroke-width="0.7"/>
</g>
</g>
<path d="M1.09375 142.023V0.445312H-0.90625V142.023H1.09375Z" fill="url(#paint0_linear_5498_163556)" mask="url(#path-1-inside-1_5498_163556)"/>
<defs>
<linearGradient id="paint0_linear_5498_163556" x1="104.125" y1="0.445312" x2="104.125" y2="142.023" gradientUnits="userSpaceOnUse">
<stop stop-color="white"/>
<stop offset="1" stop-color="#15161C"/>
</linearGradient>
<clipPath id="clip0_5498_163556">
<path d="M0.09375 0.445312H208.156V142.023H0.09375V0.445312Z" fill="white"/>
</clipPath>
<clipPath id="clip1_5498_163556">
<rect width="42" height="41.1765" fill="white" transform="translate(18.7305 0.445312)"/>
</clipPath>
</defs>
</svg>
