<svg width="209" height="143" viewBox="0 0 209 143" fill="none" xmlns="http://www.w3.org/2000/svg">
<g clip-path="url(#clip0_5498_163555)">
<path d="M36.1506 89.4453H34.5653C34.4716 88.9893 34.3075 88.5888 34.0732 88.2436C33.843 87.8984 33.5618 87.6087 33.2294 87.3743C32.9013 87.1357 32.5369 86.9567 32.1364 86.8374C31.7358 86.718 31.3182 86.6584 30.8835 86.6584C30.0909 86.6584 29.3729 86.8587 28.7294 87.2592C28.0902 87.6598 27.581 88.25 27.2017 89.0298C26.8267 89.8097 26.6392 90.7663 26.6392 91.8999C26.6392 93.0334 26.8267 93.9901 27.2017 94.7699C27.581 95.5497 28.0902 96.1399 28.7294 96.5405C29.3729 96.9411 30.0909 97.1413 30.8835 97.1413C31.3182 97.1413 31.7358 97.0817 32.1364 96.9624C32.5369 96.843 32.9013 96.6662 33.2294 96.4318C33.5618 96.1932 33.843 95.9013 34.0732 95.5561C34.3075 95.2067 34.4716 94.8061 34.5653 94.3544H36.1506C36.0313 95.0234 35.8139 95.6222 35.4986 96.1506C35.1832 96.679 34.7912 97.1286 34.3224 97.4993C33.8537 97.8658 33.3274 98.1449 32.7436 98.3366C32.1641 98.5284 31.544 98.6243 30.8835 98.6243C29.767 98.6243 28.7741 98.3516 27.9048 97.8061C27.0355 97.2607 26.3516 96.4851 25.853 95.4794C25.3544 94.4737 25.1051 93.2805 25.1051 91.8999C25.1051 90.5192 25.3544 89.326 25.853 88.3203C26.3516 87.3146 27.0355 86.5391 27.9048 85.9936C28.7741 85.4482 29.767 85.1754 30.8835 85.1754C31.544 85.1754 32.1641 85.2713 32.7436 85.4631C33.3274 85.6548 33.8537 85.9361 34.3224 86.3068C34.7912 86.6733 35.1832 87.1207 35.4986 87.6491C35.8139 88.1733 36.0313 88.772 36.1506 89.4453ZM42.4963 98.6499C41.6099 98.6499 40.8322 98.4389 40.1632 98.017C39.4984 97.5952 38.9785 97.005 38.6035 96.2464C38.2328 95.4879 38.0474 94.6016 38.0474 93.5874C38.0474 92.5646 38.2328 91.6719 38.6035 90.9091C38.9785 90.1463 39.4984 89.554 40.1632 89.1321C40.8322 88.7102 41.6099 88.4993 42.4963 88.4993C43.3826 88.4993 44.1582 88.7102 44.823 89.1321C45.492 89.554 46.0119 90.1463 46.3826 90.9091C46.7576 91.6719 46.9451 92.5646 46.9451 93.5874C46.9451 94.6016 46.7576 95.4879 46.3826 96.2464C46.0119 97.005 45.492 97.5952 44.823 98.017C44.1582 98.4389 43.3826 98.6499 42.4963 98.6499ZM42.4963 97.2947C43.1696 97.2947 43.7235 97.1222 44.1582 96.777C44.5929 96.4318 44.9146 95.978 45.1234 95.4155C45.3322 94.853 45.4366 94.2436 45.4366 93.5874C45.4366 92.9311 45.3322 92.3196 45.1234 91.7528C44.9146 91.1861 44.5929 90.728 44.1582 90.3786C43.7235 90.0291 43.1696 89.8544 42.4963 89.8544C41.823 89.8544 41.269 90.0291 40.8343 90.3786C40.3997 90.728 40.0779 91.1861 39.8691 91.7528C39.6603 92.3196 39.5559 92.9311 39.5559 93.5874C39.5559 94.2436 39.6603 94.853 39.8691 95.4155C40.0779 95.978 40.3997 96.4318 40.8343 96.777C41.269 97.1222 41.823 97.2947 42.4963 97.2947ZM56.2024 90.826L54.8473 91.2095C54.7621 90.9837 54.6364 90.7642 54.4702 90.5511C54.3082 90.3338 54.0866 90.1548 53.8054 90.0142C53.5241 89.8736 53.1641 89.8033 52.7251 89.8033C52.1243 89.8033 51.6236 89.9418 51.223 90.2188C50.8267 90.4915 50.6286 90.8388 50.6286 91.2607C50.6286 91.6357 50.7649 91.9318 51.0376 92.1491C51.3104 92.3665 51.7365 92.5476 52.3161 92.6925L53.7734 93.0504C54.6513 93.2635 55.3054 93.5895 55.7358 94.0284C56.1662 94.4631 56.3814 95.0234 56.3814 95.7095C56.3814 96.272 56.2195 96.7749 55.8956 97.218C55.576 97.6612 55.1286 98.0107 54.5533 98.2663C53.978 98.522 53.3089 98.6499 52.5462 98.6499C51.5447 98.6499 50.7159 98.4325 50.0597 97.9979C49.4034 97.5632 48.9879 96.9283 48.8132 96.093L50.245 95.7351C50.3814 96.2635 50.6392 96.6598 51.0185 96.924C51.402 97.1882 51.9027 97.3203 52.5206 97.3203C53.2237 97.3203 53.782 97.1712 54.1953 96.8729C54.6129 96.5703 54.8217 96.2081 54.8217 95.7862C54.8217 95.4453 54.7024 95.1598 54.4638 94.9297C54.2251 94.6953 53.8587 94.5206 53.3643 94.4055L51.728 94.022C50.8288 93.8089 50.1683 93.4787 49.7464 93.0312C49.3288 92.5795 49.12 92.0149 49.12 91.3374C49.12 90.7834 49.2756 90.2933 49.5866 89.8672C49.902 89.4411 50.3303 89.1065 50.8714 88.8636C51.4169 88.6207 52.0348 88.4993 52.7251 88.4993C53.6967 88.4993 54.4595 88.7124 55.0135 89.1385C55.5717 89.5646 55.968 90.1271 56.2024 90.826ZM62.9221 88.6271V89.9055H57.834V88.6271H62.9221ZM59.3169 86.2749H60.8255V95.6328C60.8255 96.0589 60.8873 96.3786 61.0108 96.5916C61.1387 96.8004 61.3006 96.9411 61.4966 97.0135C61.6969 97.0817 61.9078 97.1158 62.1294 97.1158C62.2956 97.1158 62.432 97.1072 62.5385 97.0902C62.6451 97.0689 62.7303 97.0518 62.7942 97.0391L63.101 98.3942C62.9988 98.4325 62.856 98.4709 62.6728 98.5092C62.4895 98.5518 62.2573 98.5732 61.976 98.5732C61.5499 98.5732 61.1323 98.4815 60.7232 98.2983C60.3184 98.1151 59.9817 97.8359 59.7132 97.4609C59.449 97.0859 59.3169 96.6129 59.3169 96.0419V86.2749ZM70.4647 92.13V93.5362H64.7374V92.13H70.4647ZM73.3235 98.4453V85.3544H74.832V90.1868H74.9599C75.0707 90.0163 75.2241 89.799 75.4201 89.5348C75.6204 89.2663 75.9059 89.0277 76.2766 88.8189C76.6516 88.6058 77.1587 88.4993 77.7979 88.4993C78.6246 88.4993 79.3533 88.706 79.984 89.1193C80.6147 89.5327 81.1069 90.1186 81.4606 90.8771C81.8143 91.6357 81.9911 92.5305 81.9911 93.5618C81.9911 94.6016 81.8143 95.5028 81.4606 96.2656C81.1069 97.0241 80.6168 97.6122 79.9904 98.0298C79.364 98.4432 78.6417 98.6499 77.8235 98.6499C77.1928 98.6499 76.6879 98.5455 76.3086 98.3366C75.9293 98.1236 75.6374 97.8828 75.4329 97.6143C75.2283 97.3416 75.0707 97.1158 74.9599 96.9368H74.7809V98.4453H73.3235ZM74.8065 93.5362C74.8065 94.2777 74.9151 94.9318 75.1325 95.4986C75.3498 96.0611 75.6673 96.5021 76.0849 96.8217C76.5025 97.1371 77.0138 97.2947 77.619 97.2947C78.2496 97.2947 78.7759 97.1286 79.1978 96.7962C79.6239 96.4595 79.9435 96.0078 80.1566 95.4411C80.3739 94.87 80.4826 94.2351 80.4826 93.5362C80.4826 92.8459 80.3761 92.2237 80.163 91.6697C79.9542 91.1115 79.6367 90.6705 79.2106 90.3466C78.7887 90.0185 78.2582 89.8544 77.619 89.8544C77.0053 89.8544 76.4897 90.0099 76.0721 90.321C75.6545 90.6278 75.3391 91.0582 75.1261 91.6122C74.913 92.1619 74.8065 92.8033 74.8065 93.5362ZM88.4151 98.6499C87.4691 98.6499 86.6531 98.4411 85.967 98.0234C85.2852 97.6016 84.7589 97.0135 84.3881 96.2592C84.0217 95.5007 83.8384 94.6186 83.8384 93.6129C83.8384 92.6072 84.0217 91.7209 84.3881 90.9538C84.7589 90.1825 85.2745 89.5817 85.935 89.1513C86.5998 88.7166 87.3754 88.4993 88.2617 88.4993C88.7731 88.4993 89.2781 88.5845 89.7766 88.755C90.2752 88.9254 90.729 89.2024 91.1381 89.5859C91.5472 89.9652 91.8732 90.468 92.1161 91.0945C92.359 91.7209 92.4805 92.4922 92.4805 93.4084V94.0476H84.9123V92.7436H90.9464C90.9464 92.1896 90.8356 91.6953 90.614 91.2607C90.3967 90.826 90.0856 90.483 89.6808 90.2315C89.2802 89.9801 88.8072 89.8544 88.2617 89.8544C87.6609 89.8544 87.141 90.0036 86.7021 90.3018C86.2674 90.5959 85.9329 90.9794 85.6985 91.4524C85.4641 91.9254 85.3469 92.4325 85.3469 92.9737V93.843C85.3469 94.5845 85.4748 95.2131 85.7305 95.7287C85.9904 96.2401 86.3505 96.63 86.8107 96.8984C87.271 97.1626 87.8058 97.2947 88.4151 97.2947C88.8114 97.2947 89.1694 97.2393 89.489 97.1286C89.8129 97.0135 90.092 96.843 90.3263 96.6172C90.5607 96.3871 90.7418 96.1016 90.8697 95.7607L92.3271 96.1697C92.1737 96.6641 91.9158 97.0987 91.5536 97.4737C91.1914 97.8445 90.744 98.1342 90.2113 98.343C89.6786 98.5476 89.0799 98.6499 88.4151 98.6499ZM96.2837 92.5391V98.4453H94.7752V88.6271H96.2326V90.1612H96.3604C96.5906 89.6626 96.94 89.2621 97.4087 88.9595C97.8775 88.6527 98.4826 88.4993 99.2241 88.4993C99.8888 88.4993 100.471 88.6357 100.969 88.9084C101.468 89.1768 101.855 89.5859 102.132 90.1357C102.409 90.6811 102.548 91.3714 102.548 92.2067V98.4453H101.039V92.3089C101.039 91.5376 100.839 90.9368 100.439 90.5064C100.038 90.0717 99.4883 89.8544 98.7894 89.8544C98.3079 89.8544 97.8775 89.9588 97.4982 90.1676C97.1232 90.3764 96.8271 90.6811 96.6097 91.0817C96.3924 91.4822 96.2837 91.968 96.2837 92.5391ZM109.421 98.6499C108.475 98.6499 107.659 98.4411 106.973 98.0234C106.291 97.6016 105.765 97.0135 105.394 96.2592C105.028 95.5007 104.844 94.6186 104.844 93.6129C104.844 92.6072 105.028 91.7209 105.394 90.9538C105.765 90.1825 106.28 89.5817 106.941 89.1513C107.606 88.7166 108.381 88.4993 109.268 88.4993C109.779 88.4993 110.284 88.5845 110.782 88.755C111.281 88.9254 111.735 89.2024 112.144 89.5859C112.553 89.9652 112.879 90.468 113.122 91.0945C113.365 91.7209 113.486 92.4922 113.486 93.4084V94.0476H105.918V92.7436H111.952C111.952 92.1896 111.841 91.6953 111.62 91.2607C111.403 90.826 111.091 90.483 110.687 90.2315C110.286 89.9801 109.813 89.8544 109.268 89.8544C108.667 89.8544 108.147 90.0036 107.708 90.3018C107.273 90.5959 106.939 90.9794 106.704 91.4524C106.47 91.9254 106.353 92.4325 106.353 92.9737V93.843C106.353 94.5845 106.481 95.2131 106.736 95.7287C106.996 96.2401 107.356 96.63 107.817 96.8984C108.277 97.1626 108.812 97.2947 109.421 97.2947C109.817 97.2947 110.175 97.2393 110.495 97.1286C110.819 97.0135 111.098 96.843 111.332 96.6172C111.567 96.3871 111.748 96.1016 111.876 95.7607L113.333 96.1697C113.18 96.6641 112.922 97.0987 112.559 97.4737C112.197 97.8445 111.75 98.1342 111.217 98.343C110.684 98.5476 110.086 98.6499 109.421 98.6499ZM120.153 88.6271V89.9055H114.861V88.6271H120.153ZM116.446 98.4453V87.272C116.446 86.7095 116.578 86.2408 116.842 85.8658C117.106 85.4908 117.449 85.2095 117.871 85.022C118.293 84.8345 118.738 84.7408 119.207 84.7408C119.578 84.7408 119.881 84.7706 120.115 84.8303C120.349 84.8899 120.524 84.9453 120.639 84.9964L120.204 86.3004C120.128 86.2749 120.021 86.2429 119.885 86.2045C119.753 86.1662 119.578 86.147 119.361 86.147C118.862 86.147 118.502 86.2727 118.28 86.5241C118.063 86.7756 117.954 87.1442 117.954 87.63V98.4453H116.446ZM122.267 98.4453V88.6271H123.776V98.4453H122.267ZM123.034 86.9908C122.74 86.9908 122.487 86.8906 122.274 86.6903C122.065 86.4901 121.961 86.2493 121.961 85.968C121.961 85.6868 122.065 85.446 122.274 85.2457C122.487 85.0455 122.74 84.9453 123.034 84.9453C123.328 84.9453 123.58 85.0455 123.789 85.2457C124.002 85.446 124.108 85.6868 124.108 85.968C124.108 86.2493 124.002 86.4901 123.789 86.6903C123.58 86.8906 123.328 86.9908 123.034 86.9908ZM130.809 88.6271V89.9055H125.721V88.6271H130.809ZM127.204 86.2749H128.712V95.6328C128.712 96.0589 128.774 96.3786 128.898 96.5916C129.025 96.8004 129.187 96.9411 129.383 97.0135C129.584 97.0817 129.795 97.1158 130.016 97.1158C130.182 97.1158 130.319 97.1072 130.425 97.0902C130.532 97.0689 130.617 97.0518 130.681 97.0391L130.988 98.3942C130.885 98.4325 130.743 98.4709 130.559 98.5092C130.376 98.5518 130.144 98.5732 129.863 98.5732C129.437 98.5732 129.019 98.4815 128.61 98.2983C128.205 98.1151 127.868 97.8359 127.6 97.4609C127.336 97.0859 127.204 96.6129 127.204 96.0419V86.2749ZM28.3011 122.675C27.679 122.675 27.1143 122.558 26.6072 122.324C26.1001 122.085 25.6974 121.742 25.3991 121.295C25.1009 120.843 24.9517 120.298 24.9517 119.658C24.9517 119.096 25.0625 118.64 25.2841 118.29C25.5057 117.937 25.8018 117.66 26.1726 117.46C26.5433 117.259 26.9524 117.11 27.3999 117.012C27.8516 116.91 28.3054 116.829 28.7614 116.769C29.358 116.692 29.8416 116.635 30.2124 116.597C30.5874 116.554 30.8601 116.484 31.0305 116.386C31.2053 116.288 31.2926 116.117 31.2926 115.874V115.823C31.2926 115.192 31.12 114.702 30.7749 114.353C30.4339 114.004 29.9162 113.829 29.2216 113.829C28.5014 113.829 27.9368 113.987 27.5277 114.302C27.1186 114.617 26.831 114.954 26.6648 115.312L25.233 114.8C25.4886 114.204 25.8295 113.739 26.2557 113.407C26.6861 113.07 27.1548 112.836 27.6619 112.704C28.1733 112.567 28.6761 112.499 29.1705 112.499C29.4858 112.499 29.848 112.538 30.2571 112.614C30.6705 112.687 31.0689 112.838 31.4524 113.068C31.8402 113.298 32.1619 113.646 32.4176 114.11C32.6733 114.575 32.8011 115.197 32.8011 115.977V122.445H31.2926V121.116H31.2159C31.1136 121.329 30.9432 121.557 30.7045 121.8C30.4659 122.043 30.1484 122.249 29.7521 122.42C29.3558 122.59 28.8722 122.675 28.3011 122.675ZM28.5312 121.32C29.1278 121.32 29.6307 121.203 30.0398 120.969C30.4531 120.734 30.7642 120.432 30.973 120.061C31.1861 119.69 31.2926 119.3 31.2926 118.891V117.511C31.2287 117.587 31.0881 117.658 30.8707 117.722C30.6577 117.781 30.4105 117.835 30.1293 117.881C29.8523 117.924 29.5817 117.962 29.3175 117.996C29.0575 118.026 28.8466 118.052 28.6847 118.073C28.2926 118.124 27.9261 118.207 27.5852 118.322C27.2486 118.433 26.9759 118.602 26.767 118.827C26.5625 119.049 26.4602 119.352 26.4602 119.735C26.4602 120.259 26.6541 120.656 27.0419 120.924C27.4339 121.188 27.9304 121.32 28.5312 121.32ZM37.063 116.539V122.445H35.5545V112.627H37.0119V114.161H37.1397C37.3699 113.663 37.7193 113.262 38.188 112.96C38.6568 112.653 39.2619 112.499 40.0034 112.499C40.6681 112.499 41.2498 112.636 41.7484 112.908C42.247 113.177 42.6348 113.586 42.9118 114.136C43.1887 114.681 43.3272 115.371 43.3272 116.207V122.445H41.8187V116.309C41.8187 115.538 41.6184 114.937 41.2179 114.506C40.8173 114.072 40.2676 113.854 39.5687 113.854C39.0872 113.854 38.6568 113.959 38.2775 114.168C37.9025 114.376 37.6064 114.681 37.389 115.082C37.1717 115.482 37.063 115.968 37.063 116.539ZM48.973 122.675C48.3509 122.675 47.7862 122.558 47.2791 122.324C46.772 122.085 46.3693 121.742 46.071 121.295C45.7727 120.843 45.6236 120.298 45.6236 119.658C45.6236 119.096 45.7344 118.64 45.956 118.29C46.1776 117.937 46.4737 117.66 46.8445 117.46C47.2152 117.259 47.6243 117.11 48.0717 117.012C48.5234 116.91 48.9773 116.829 49.4332 116.769C50.0298 116.692 50.5135 116.635 50.8842 116.597C51.2592 116.554 51.532 116.484 51.7024 116.386C51.8771 116.288 51.9645 116.117 51.9645 115.874V115.823C51.9645 115.192 51.7919 114.702 51.4467 114.353C51.1058 114.004 50.5881 113.829 49.8935 113.829C49.1733 113.829 48.6087 113.987 48.1996 114.302C47.7905 114.617 47.5028 114.954 47.3366 115.312L45.9048 114.8C46.1605 114.204 46.5014 113.739 46.9276 113.407C47.358 113.07 47.8267 112.836 48.3338 112.704C48.8452 112.567 49.348 112.499 49.8423 112.499C50.1577 112.499 50.5199 112.538 50.929 112.614C51.3423 112.687 51.7408 112.838 52.1243 113.068C52.5121 113.298 52.8338 113.646 53.0895 114.11C53.3452 114.575 53.473 115.197 53.473 115.977V122.445H51.9645V121.116H51.8878C51.7855 121.329 51.6151 121.557 51.3764 121.8C51.1378 122.043 50.8203 122.249 50.424 122.42C50.0277 122.59 49.544 122.675 48.973 122.675ZM49.2031 121.32C49.7997 121.32 50.3026 121.203 50.7116 120.969C51.125 120.734 51.4361 120.432 51.6449 120.061C51.858 119.69 51.9645 119.3 51.9645 118.891V117.511C51.9006 117.587 51.7599 117.658 51.5426 117.722C51.3295 117.781 51.0824 117.835 50.8011 117.881C50.5241 117.924 50.2536 117.962 49.9893 117.996C49.7294 118.026 49.5185 118.052 49.3565 118.073C48.9645 118.124 48.598 118.207 48.2571 118.322C47.9205 118.433 47.6477 118.602 47.4389 118.827C47.2344 119.049 47.1321 119.352 47.1321 119.735C47.1321 120.259 47.326 120.656 47.7138 120.924C48.1058 121.188 48.6023 121.32 49.2031 121.32ZM57.7349 109.354V122.445H56.2264V109.354H57.7349ZM61.4695 126.127C61.2138 126.127 60.9858 126.106 60.7855 126.063C60.5852 126.025 60.4467 125.987 60.37 125.948L60.7536 124.619C61.12 124.712 61.4439 124.746 61.7251 124.721C62.0064 124.695 62.2557 124.57 62.473 124.344C62.6946 124.122 62.897 123.762 63.0803 123.263L63.3615 122.496L59.7308 112.627H61.3672L64.0774 120.451H64.1797L66.8899 112.627H68.5263L64.3587 123.877C64.1712 124.384 63.9389 124.804 63.6619 125.136C63.3849 125.473 63.0632 125.722 62.6967 125.884C62.3345 126.046 61.9254 126.127 61.4695 126.127ZM77.4719 114.826L76.1168 115.21C76.0316 114.984 75.9059 114.764 75.7397 114.551C75.5778 114.334 75.3562 114.155 75.0749 114.014C74.7937 113.874 74.4336 113.803 73.9947 113.803C73.3938 113.803 72.8931 113.942 72.4925 114.219C72.0962 114.491 71.8981 114.839 71.8981 115.261C71.8981 115.636 72.0344 115.932 72.3072 116.149C72.5799 116.366 73.006 116.548 73.5856 116.692L75.043 117.05C75.9208 117.263 76.5749 117.589 77.0053 118.028C77.4357 118.463 77.6509 119.023 77.6509 119.71C77.6509 120.272 77.489 120.775 77.1651 121.218C76.8455 121.661 76.3981 122.011 75.8228 122.266C75.2475 122.522 74.5785 122.65 73.8157 122.65C72.8143 122.65 71.9854 122.433 71.3292 121.998C70.6729 121.563 70.2575 120.928 70.0827 120.093L71.5146 119.735C71.6509 120.263 71.9087 120.66 72.288 120.924C72.6715 121.188 73.1722 121.32 73.7901 121.32C74.4933 121.32 75.0515 121.171 75.4648 120.873C75.8825 120.57 76.0913 120.208 76.0913 119.786C76.0913 119.445 75.9719 119.16 75.7333 118.93C75.4947 118.695 75.1282 118.521 74.6339 118.406L72.9975 118.022C72.0984 117.809 71.4379 117.479 71.016 117.031C70.5984 116.58 70.3896 116.015 70.3896 115.337C70.3896 114.783 70.5451 114.293 70.8562 113.867C71.1715 113.441 71.5998 113.107 72.141 112.864C72.6864 112.621 73.3043 112.499 73.9947 112.499C74.9663 112.499 75.729 112.712 76.283 113.138C76.8413 113.565 77.2376 114.127 77.4719 114.826ZM79.9217 122.445V112.627H81.4302V122.445H79.9217ZM80.6887 110.991C80.3947 110.991 80.1412 110.891 79.9281 110.69C79.7193 110.49 79.6149 110.249 79.6149 109.968C79.6149 109.687 79.7193 109.446 79.9281 109.246C80.1412 109.045 80.3947 108.945 80.6887 108.945C80.9828 108.945 81.2342 109.045 81.443 109.246C81.6561 109.446 81.7626 109.687 81.7626 109.968C81.7626 110.249 81.6561 110.49 81.443 110.69C81.2342 110.891 80.9828 110.991 80.6887 110.991ZM91.1477 114.826L89.7926 115.21C89.7074 114.984 89.5817 114.764 89.4155 114.551C89.2536 114.334 89.032 114.155 88.7507 114.014C88.4695 113.874 88.1094 113.803 87.6705 113.803C87.0696 113.803 86.5689 113.942 86.1683 114.219C85.772 114.491 85.5739 114.839 85.5739 115.261C85.5739 115.636 85.7102 115.932 85.983 116.149C86.2557 116.366 86.6818 116.548 87.2614 116.692L88.7188 117.05C89.5966 117.263 90.2507 117.589 90.6811 118.028C91.1115 118.463 91.3267 119.023 91.3267 119.71C91.3267 120.272 91.1648 120.775 90.8409 121.218C90.5213 121.661 90.0739 122.011 89.4986 122.266C88.9233 122.522 88.2543 122.65 87.4915 122.65C86.4901 122.65 85.6612 122.433 85.005 121.998C84.3487 121.563 83.9332 120.928 83.7585 120.093L85.1903 119.735C85.3267 120.263 85.5845 120.66 85.9638 120.924C86.3473 121.188 86.848 121.32 87.4659 121.32C88.169 121.32 88.7273 121.171 89.1406 120.873C89.5582 120.57 89.767 120.208 89.767 119.786C89.767 119.445 89.6477 119.16 89.4091 118.93C89.1705 118.695 88.804 118.521 88.3097 118.406L86.6733 118.022C85.7741 117.809 85.1136 117.479 84.6918 117.031C84.2741 116.58 84.0653 116.015 84.0653 115.337C84.0653 114.783 84.2209 114.293 84.532 113.867C84.8473 113.441 85.2756 113.107 85.8168 112.864C86.3622 112.621 86.9801 112.499 87.6705 112.499C88.642 112.499 89.4048 112.712 89.9588 113.138C90.517 113.565 90.9134 114.127 91.1477 114.826ZM102.93 112.627V113.906H97.8418V112.627H102.93ZM99.3248 110.275H100.833V119.633C100.833 120.059 100.895 120.379 101.019 120.592C101.146 120.8 101.308 120.941 101.504 121.013C101.705 121.082 101.916 121.116 102.137 121.116C102.303 121.116 102.44 121.107 102.546 121.09C102.653 121.069 102.738 121.052 102.802 121.039L103.109 122.394C103.007 122.433 102.864 122.471 102.681 122.509C102.497 122.552 102.265 122.573 101.984 122.573C101.558 122.573 101.14 122.482 100.731 122.298C100.326 122.115 99.9895 121.836 99.7211 121.461C99.4569 121.086 99.3248 120.613 99.3248 120.042V110.275ZM109.082 122.65C108.196 122.65 107.418 122.439 106.749 122.017C106.084 121.595 105.564 121.005 105.189 120.246C104.819 119.488 104.633 118.602 104.633 117.587C104.633 116.565 104.819 115.672 105.189 114.909C105.564 114.146 106.084 113.554 106.749 113.132C107.418 112.71 108.196 112.499 109.082 112.499C109.969 112.499 110.744 112.71 111.409 113.132C112.078 113.554 112.598 114.146 112.969 114.909C113.344 115.672 113.531 116.565 113.531 117.587C113.531 118.602 113.344 119.488 112.969 120.246C112.598 121.005 112.078 121.595 111.409 122.017C110.744 122.439 109.969 122.65 109.082 122.65ZM109.082 121.295C109.756 121.295 110.309 121.122 110.744 120.777C111.179 120.432 111.501 119.978 111.709 119.415C111.918 118.853 112.023 118.244 112.023 117.587C112.023 116.931 111.918 116.32 111.709 115.753C111.501 115.186 111.179 114.728 110.744 114.379C110.309 114.029 109.756 113.854 109.082 113.854C108.409 113.854 107.855 114.029 107.42 114.379C106.986 114.728 106.664 115.186 106.455 115.753C106.246 116.32 106.142 116.931 106.142 117.587C106.142 118.244 106.246 118.853 106.455 119.415C106.664 119.978 106.986 120.432 107.42 120.777C107.855 121.122 108.409 121.295 109.082 121.295ZM119.822 122.65C118.936 122.65 118.158 122.439 117.489 122.017C116.825 121.595 116.305 121.005 115.93 120.246C115.559 119.488 115.374 118.602 115.374 117.587C115.374 116.565 115.559 115.672 115.93 114.909C116.305 114.146 116.825 113.554 117.489 113.132C118.158 112.71 118.936 112.499 119.822 112.499C120.709 112.499 121.484 112.71 122.149 113.132C122.818 113.554 123.338 114.146 123.709 114.909C124.084 115.672 124.271 116.565 124.271 117.587C124.271 118.602 124.084 119.488 123.709 120.246C123.338 121.005 122.818 121.595 122.149 122.017C121.484 122.439 120.709 122.65 119.822 122.65ZM119.822 121.295C120.496 121.295 121.05 121.122 121.484 120.777C121.919 120.432 122.241 119.978 122.45 119.415C122.658 118.853 122.763 118.244 122.763 117.587C122.763 116.931 122.658 116.32 122.45 115.753C122.241 115.186 121.919 114.728 121.484 114.379C121.05 114.029 120.496 113.854 119.822 113.854C119.149 113.854 118.595 114.029 118.161 114.379C117.726 114.728 117.404 115.186 117.195 115.753C116.987 116.32 116.882 116.931 116.882 117.587C116.882 118.244 116.987 118.853 117.195 119.415C117.404 119.978 117.726 120.432 118.161 120.777C118.595 121.122 119.149 121.295 119.822 121.295ZM128.083 109.354V122.445H126.574V109.354H128.083Z" fill="white"/>
<g opacity="0.89" clip-path="url(#clip1_5498_163555)">
<path d="M49.311 21.3836L41.768 28.7787L41.768 14.5208L44.568 14.5208L44.568 21.0336L44.568 21.3836L44.918 21.3836L49.311 21.3836ZM34.768 21.0336L34.768 20.6836L34.418 20.6836L30.0249 20.6836L37.568 13.2884L37.568 27.5463L34.768 27.5463L34.768 21.0336ZM56.818 21.0336C56.818 30.3095 49.1465 37.8404 39.668 37.8404C30.1895 37.8404 22.518 30.3095 22.518 21.0336C22.518 11.7576 30.1895 4.2267 39.668 4.2267C49.1465 4.2267 56.818 11.7576 56.818 21.0336ZM54.018 21.0336C54.018 17.2983 52.5044 13.7174 49.8125 11.0783C47.1208 8.43938 43.4716 6.95808 39.668 6.95808C35.8643 6.95808 32.2151 8.43938 29.5234 11.0783C26.8316 13.7174 25.318 17.2983 25.318 21.0336C25.318 24.7689 26.8316 28.3498 29.5234 30.9889C32.2151 33.6278 35.8643 35.1091 39.668 35.1091C43.4716 35.1091 47.1208 33.6278 49.8125 30.9889C52.5044 28.3498 54.018 24.7689 54.018 21.0336Z" fill="white" stroke="#060606" stroke-width="0.7"/>
</g>
</g>
<path d="M1.03125 142.023V0.445312H-0.96875V142.023H1.03125Z" fill="url(#paint0_linear_5498_163555)" mask="url(#path-1-inside-1_5498_163555)"/>
<defs>
<linearGradient id="paint0_linear_5498_163555" x1="104.062" y1="0.445312" x2="104.062" y2="142.023" gradientUnits="userSpaceOnUse">
<stop stop-color="white"/>
<stop offset="1" stop-color="#15161C"/>
</linearGradient>
<clipPath id="clip0_5498_163555">
<path d="M0.03125 0.445312H208.094V142.023H0.03125V0.445312Z" fill="white"/>
</clipPath>
<clipPath id="clip1_5498_163555">
<rect width="42" height="41.1765" fill="white" transform="translate(18.668 0.445312)"/>
</clipPath>
</defs>
</svg>
