<svg width="209" height="143" viewBox="0 0 209 143" fill="none" xmlns="http://www.w3.org/2000/svg">
<g clip-path="url(#clip0_5498_163553)">
<path d="M37.0256 89.4453H35.4403C35.3466 88.9893 35.1825 88.5888 34.9482 88.2436C34.718 87.8984 34.4368 87.6087 34.1044 87.3743C33.7763 87.1357 33.4119 86.9567 33.0114 86.8374C32.6108 86.718 32.1932 86.6584 31.7585 86.6584C30.9659 86.6584 30.2479 86.8587 29.6044 87.2592C28.9652 87.6598 28.456 88.25 28.0767 89.0298C27.7017 89.8097 27.5142 90.7663 27.5142 91.8999C27.5142 93.0334 27.7017 93.9901 28.0767 94.7699C28.456 95.5497 28.9652 96.1399 29.6044 96.5405C30.2479 96.9411 30.9659 97.1413 31.7585 97.1413C32.1932 97.1413 32.6108 97.0817 33.0114 96.9624C33.4119 96.843 33.7763 96.6662 34.1044 96.4318C34.4368 96.1932 34.718 95.9013 34.9482 95.5561C35.1825 95.2067 35.3466 94.8061 35.4403 94.3544H37.0256C36.9063 95.0234 36.6889 95.6222 36.3736 96.1506C36.0582 96.679 35.6662 97.1286 35.1974 97.4993C34.7287 97.8658 34.2024 98.1449 33.6186 98.3366C33.0391 98.5284 32.419 98.6243 31.7585 98.6243C30.642 98.6243 29.6491 98.3516 28.7798 97.8061C27.9105 97.2607 27.2266 96.4851 26.728 95.4794C26.2294 94.4737 25.9801 93.2805 25.9801 91.8999C25.9801 90.5192 26.2294 89.326 26.728 88.3203C27.2266 87.3146 27.9105 86.5391 28.7798 85.9936C29.6491 85.4482 30.642 85.1754 31.7585 85.1754C32.419 85.1754 33.0391 85.2713 33.6186 85.4631C34.2024 85.6548 34.7287 85.9361 35.1974 86.3068C35.6662 86.6733 36.0582 87.1207 36.3736 87.6491C36.6889 88.1733 36.9063 88.772 37.0256 89.4453ZM40.8912 85.3544V98.4453H39.3826V85.3544H40.8912ZM43.6541 98.4453V88.6271H45.1626V98.4453H43.6541ZM44.4212 86.9908C44.1271 86.9908 43.8736 86.8906 43.6605 86.6903C43.4517 86.4901 43.3473 86.2493 43.3473 85.968C43.3473 85.6868 43.4517 85.446 43.6605 85.2457C43.8736 85.0455 44.1271 84.9453 44.4212 84.9453C44.7152 84.9453 44.9666 85.0455 45.1754 85.2457C45.3885 85.446 45.495 85.6868 45.495 85.968C45.495 86.2493 45.3885 86.4901 45.1754 86.6903C44.9666 86.8906 44.7152 86.9908 44.4212 86.9908ZM47.9256 98.4453V88.6271H49.383V90.1612H49.5108C49.7154 89.6371 50.0456 89.2301 50.5016 88.9403C50.9576 88.6463 51.5051 88.4993 52.1444 88.4993C52.7921 88.4993 53.3311 88.6463 53.7615 88.9403C54.1962 89.2301 54.535 89.6371 54.7779 90.1612H54.8801C55.1316 89.6541 55.5087 89.2514 56.0115 88.9531C56.5144 88.6506 57.1174 88.4993 57.8205 88.4993C58.6983 88.4993 59.4164 88.7741 59.9746 89.3239C60.5328 89.8693 60.812 90.7195 60.812 91.8743V98.4453H59.3034V91.8743C59.3034 91.1499 59.1053 90.6321 58.709 90.321C58.3127 90.0099 57.8461 89.8544 57.3091 89.8544C56.6188 89.8544 56.084 90.0632 55.7047 90.4808C55.3255 90.8942 55.1358 91.4183 55.1358 92.0533V98.4453H53.6017V91.7209C53.6017 91.1626 53.4206 90.7131 53.0584 90.3722C52.6962 90.027 52.2296 89.8544 51.6586 89.8544C51.2665 89.8544 50.9 89.9588 50.5591 90.1676C50.2225 90.3764 49.9498 90.6662 49.7409 91.0369C49.5364 91.4034 49.4341 91.8274 49.4341 92.3089V98.4453H47.9256ZM66.4593 98.6754C65.8372 98.6754 65.2725 98.5582 64.7654 98.3239C64.2583 98.0852 63.8556 97.7422 63.5574 97.2947C63.2591 96.843 63.1099 96.2976 63.1099 95.6584C63.1099 95.0959 63.2207 94.6399 63.4423 94.2905C63.6639 93.9368 63.96 93.6598 64.3308 93.4595C64.7015 93.2592 65.1106 93.1101 65.5581 93.0121C66.0098 92.9098 66.4636 92.8288 66.9196 92.7692C67.5162 92.6925 67.9998 92.6349 68.3706 92.5966C68.7456 92.554 69.0183 92.4837 69.1887 92.3857C69.3635 92.2876 69.4508 92.1172 69.4508 91.8743V91.8232C69.4508 91.1925 69.2782 90.7024 68.9331 90.353C68.5922 90.0036 68.0744 89.8288 67.3798 89.8288C66.6596 89.8288 66.095 89.9865 65.6859 90.3018C65.2768 90.6172 64.9892 90.9538 64.823 91.3118L63.3912 90.8004C63.6468 90.2038 63.9877 89.7393 64.4139 89.407C64.8443 89.0703 65.313 88.8359 65.8201 88.7038C66.3315 88.5675 66.8343 88.4993 67.3287 88.4993C67.644 88.4993 68.0062 88.5376 68.4153 88.6143C68.8287 88.6868 69.2271 88.8381 69.6106 89.0682C69.9984 89.2983 70.3201 89.6456 70.5758 90.1101C70.8315 90.5746 70.9593 91.1967 70.9593 91.9766V98.4453H69.4508V97.1158H69.3741C69.2718 97.3288 69.1014 97.5568 68.8627 97.7997C68.6241 98.0426 68.3066 98.2493 67.9103 98.4197C67.514 98.5902 67.0304 98.6754 66.4593 98.6754ZM66.6895 97.3203C67.286 97.3203 67.7889 97.2031 68.198 96.9688C68.6113 96.7344 68.9224 96.4318 69.1312 96.0611C69.3443 95.6903 69.4508 95.3004 69.4508 94.8913V93.5107C69.3869 93.5874 69.2463 93.6577 69.0289 93.7216C68.8159 93.7812 68.5687 93.8345 68.2875 93.8814C68.0105 93.924 67.7399 93.9624 67.4757 93.9964C67.2157 94.0263 67.0048 94.0518 66.8429 94.0732C66.4508 94.1243 66.0843 94.2074 65.7434 94.3224C65.4068 94.4332 65.1341 94.6016 64.9252 94.8274C64.7207 95.049 64.6184 95.3516 64.6184 95.7351C64.6184 96.2592 64.8123 96.6555 65.2001 96.924C65.5922 97.1882 66.0886 97.3203 66.6895 97.3203ZM77.9826 88.6271V89.9055H72.8945V88.6271H77.9826ZM74.3775 86.2749H75.886V95.6328C75.886 96.0589 75.9478 96.3786 76.0714 96.5916C76.1992 96.8004 76.3612 96.9411 76.5572 97.0135C76.7575 97.0817 76.9684 97.1158 77.19 97.1158C77.3562 97.1158 77.4925 97.1072 77.5991 97.0902C77.7056 97.0689 77.7908 97.0518 77.8548 97.0391L78.1616 98.3942C78.0593 98.4325 77.9165 98.4709 77.7333 98.5092C77.5501 98.5518 77.3178 98.5732 77.0366 98.5732C76.6104 98.5732 76.1928 98.4815 75.7837 98.2983C75.3789 98.1151 75.0423 97.8359 74.7738 97.4609C74.5096 97.0859 74.3775 96.6129 74.3775 96.0419V86.2749ZM84.2628 98.6499C83.3168 98.6499 82.5007 98.4411 81.8146 98.0234C81.1328 97.6016 80.6065 97.0135 80.2358 96.2592C79.8693 95.5007 79.6861 94.6186 79.6861 93.6129C79.6861 92.6072 79.8693 91.7209 80.2358 90.9538C80.6065 90.1825 81.1222 89.5817 81.7827 89.1513C82.4474 88.7166 83.223 88.4993 84.1094 88.4993C84.6207 88.4993 85.1257 88.5845 85.6243 88.755C86.1229 88.9254 86.5767 89.2024 86.9858 89.5859C87.3949 89.9652 87.7209 90.468 87.9638 91.0945C88.2067 91.7209 88.3281 92.4922 88.3281 93.4084V94.0476H80.7599V92.7436H86.794C86.794 92.1896 86.6832 91.6953 86.4616 91.2607C86.2443 90.826 85.9332 90.483 85.5284 90.2315C85.1278 89.9801 84.6548 89.8544 84.1094 89.8544C83.5085 89.8544 82.9886 90.0036 82.5497 90.3018C82.1151 90.5959 81.7805 90.9794 81.5462 91.4524C81.3118 91.9254 81.1946 92.4325 81.1946 92.9737V93.843C81.1946 94.5845 81.3224 95.2131 81.5781 95.7287C81.8381 96.2401 82.1982 96.63 82.6584 96.8984C83.1186 97.1626 83.6534 97.2947 84.2628 97.2947C84.6591 97.2947 85.017 97.2393 85.3366 97.1286C85.6605 97.0135 85.9396 96.843 86.174 96.6172C86.4084 96.3871 86.5895 96.1016 86.7173 95.7607L88.1747 96.1697C88.0213 96.6641 87.7635 97.0987 87.4013 97.4737C87.0391 97.8445 86.5916 98.1342 86.0589 98.343C85.5263 98.5476 84.9276 98.6499 84.2628 98.6499ZM99.674 98.6499C98.7536 98.6499 97.9609 98.4325 97.2962 97.9979C96.6314 97.5632 96.12 96.9645 95.7621 96.2017C95.4041 95.4389 95.2251 94.5675 95.2251 93.5874C95.2251 92.5902 95.4084 91.7102 95.7749 90.9474C96.1456 90.1804 96.6612 89.5817 97.3217 89.1513C97.9865 88.7166 98.7621 88.4993 99.6484 88.4993C100.339 88.4993 100.961 88.6271 101.515 88.8828C102.069 89.1385 102.523 89.4964 102.876 89.9567C103.23 90.4169 103.45 90.9538 103.535 91.5675H102.026C101.911 91.12 101.656 90.7237 101.259 90.3786C100.867 90.0291 100.339 89.8544 99.674 89.8544C99.0859 89.8544 98.5703 90.0078 98.1271 90.3146C97.6882 90.6172 97.3452 91.0455 97.098 91.5994C96.8551 92.1491 96.7337 92.7947 96.7337 93.5362C96.7337 94.2947 96.853 94.9553 97.0916 95.5178C97.3345 96.0803 97.6754 96.517 98.1143 96.8281C98.5575 97.1392 99.0774 97.2947 99.674 97.2947C100.066 97.2947 100.422 97.2266 100.741 97.0902C101.061 96.9538 101.332 96.7578 101.553 96.5021C101.775 96.2464 101.933 95.9396 102.026 95.5817H103.535C103.45 96.1612 103.239 96.6832 102.902 97.1477C102.57 97.608 102.129 97.9744 101.579 98.2472C101.033 98.5156 100.398 98.6499 99.674 98.6499ZM107.249 92.5391V98.4453H105.74V85.3544H107.249V90.1612H107.376C107.607 89.6541 107.952 89.2514 108.412 88.9531C108.876 88.6506 109.494 88.4993 110.266 88.4993C110.935 88.4993 111.521 88.6335 112.023 88.902C112.526 89.1662 112.916 89.5732 113.193 90.1229C113.474 90.6683 113.615 91.3629 113.615 92.2067V98.4453H112.107V92.3089C112.107 91.5291 111.904 90.9261 111.499 90.5C111.099 90.0696 110.543 89.8544 109.831 89.8544C109.337 89.8544 108.893 89.9588 108.501 90.1676C108.114 90.3764 107.807 90.6811 107.581 91.0817C107.359 91.4822 107.249 91.968 107.249 92.5391ZM119.264 98.6754C118.642 98.6754 118.077 98.5582 117.57 98.3239C117.063 98.0852 116.66 97.7422 116.362 97.2947C116.064 96.843 115.915 96.2976 115.915 95.6584C115.915 95.0959 116.025 94.6399 116.247 94.2905C116.469 93.9368 116.765 93.6598 117.135 93.4595C117.506 93.2592 117.915 93.1101 118.363 93.0121C118.814 92.9098 119.268 92.8288 119.724 92.7692C120.321 92.6925 120.805 92.6349 121.175 92.5966C121.55 92.554 121.823 92.4837 121.993 92.3857C122.168 92.2876 122.256 92.1172 122.256 91.8743V91.8232C122.256 91.1925 122.083 90.7024 121.738 90.353C121.397 90.0036 120.879 89.8288 120.184 89.8288C119.464 89.8288 118.9 89.9865 118.491 90.3018C118.081 90.6172 117.794 90.9538 117.628 91.3118L116.196 90.8004C116.452 90.2038 116.792 89.7393 117.219 89.407C117.649 89.0703 118.118 88.8359 118.625 88.7038C119.136 88.5675 119.639 88.4993 120.133 88.4993C120.449 88.4993 120.811 88.5376 121.22 88.6143C121.633 88.6868 122.032 88.8381 122.415 89.0682C122.803 89.2983 123.125 89.6456 123.381 90.1101C123.636 90.5746 123.764 91.1967 123.764 91.9766V98.4453H122.256V97.1158H122.179C122.077 97.3288 121.906 97.5568 121.667 97.7997C121.429 98.0426 121.111 98.2493 120.715 98.4197C120.319 98.5902 119.835 98.6754 119.264 98.6754ZM119.494 97.3203C120.091 97.3203 120.594 97.2031 121.003 96.9688C121.416 96.7344 121.727 96.4318 121.936 96.0611C122.149 95.6903 122.256 95.3004 122.256 94.8913V93.5107C122.192 93.5874 122.051 93.6577 121.834 93.7216C121.621 93.7812 121.373 93.8345 121.092 93.8814C120.815 93.924 120.545 93.9624 120.28 93.9964C120.02 94.0263 119.809 94.0518 119.648 94.0732C119.256 94.1243 118.889 94.2074 118.548 94.3224C118.211 94.4332 117.939 94.6016 117.73 94.8274C117.525 95.049 117.423 95.3516 117.423 95.7351C117.423 96.2592 117.617 96.6555 118.005 96.924C118.397 97.1882 118.893 97.3203 119.494 97.3203ZM128.026 92.5391V98.4453H126.517V88.6271H127.975V90.1612H128.103C128.333 89.6626 128.682 89.2621 129.151 88.9595C129.62 88.6527 130.225 88.4993 130.966 88.4993C131.631 88.4993 132.213 88.6357 132.711 88.9084C133.21 89.1768 133.598 89.5859 133.875 90.1357C134.152 90.6811 134.29 91.3714 134.29 92.2067V98.4453H132.782V92.3089C132.782 91.5376 132.581 90.9368 132.181 90.5064C131.78 90.0717 131.23 89.8544 130.532 89.8544C130.05 89.8544 129.62 89.9588 129.24 90.1676C128.865 90.3764 128.569 90.6811 128.352 91.0817C128.135 91.4822 128.026 91.968 128.026 92.5391ZM141.01 102.332C140.281 102.332 139.655 102.238 139.131 102.05C138.606 101.867 138.17 101.624 137.82 101.322C137.475 101.023 137.2 100.704 136.996 100.363L138.197 99.5192C138.334 99.6982 138.506 99.9027 138.715 100.133C138.924 100.367 139.209 100.57 139.572 100.74C139.938 100.915 140.417 101.002 141.01 101.002C141.802 101.002 142.456 100.81 142.972 100.427C143.488 100.043 143.746 99.4425 143.746 98.6243V96.63H143.618C143.507 96.8089 143.349 97.0305 143.145 97.2947C142.944 97.5547 142.655 97.7869 142.275 97.9915C141.9 98.1918 141.393 98.2919 140.754 98.2919C139.961 98.2919 139.25 98.1044 138.619 97.7294C137.993 97.3544 137.496 96.8089 137.13 96.093C136.768 95.3771 136.586 94.5078 136.586 93.4851C136.586 92.4794 136.763 91.6037 137.117 90.858C137.471 90.108 137.963 89.5284 138.594 89.1193C139.224 88.706 139.953 88.4993 140.78 88.4993C141.419 88.4993 141.926 88.6058 142.301 88.8189C142.68 89.0277 142.97 89.2663 143.17 89.5348C143.375 89.799 143.532 90.0163 143.643 90.1868H143.797V88.6271H145.254V98.7266C145.254 99.5703 145.062 100.256 144.679 100.785C144.3 101.317 143.788 101.707 143.145 101.955C142.506 102.206 141.794 102.332 141.01 102.332ZM140.959 96.9368C141.564 96.9368 142.075 96.7983 142.493 96.5213C142.91 96.2443 143.228 95.8459 143.445 95.326C143.662 94.8061 143.771 94.1839 143.771 93.4595C143.771 92.7521 143.665 92.1278 143.452 91.5866C143.238 91.0455 142.923 90.6214 142.506 90.3146C142.088 90.0078 141.572 89.8544 140.959 89.8544C140.319 89.8544 139.787 90.0163 139.361 90.3402C138.939 90.6641 138.621 91.0987 138.408 91.6442C138.199 92.1896 138.095 92.7947 138.095 93.4595C138.095 94.1413 138.202 94.7443 138.415 95.2685C138.632 95.7884 138.952 96.1974 139.373 96.4957C139.8 96.7898 140.328 96.9368 140.959 96.9368ZM152.132 98.6499C151.186 98.6499 150.37 98.4411 149.684 98.0234C149.002 97.6016 148.476 97.0135 148.105 96.2592C147.738 95.5007 147.555 94.6186 147.555 93.6129C147.555 92.6072 147.738 91.7209 148.105 90.9538C148.476 90.1825 148.991 89.5817 149.652 89.1513C150.317 88.7166 151.092 88.4993 151.979 88.4993C152.49 88.4993 152.995 88.5845 153.493 88.755C153.992 88.9254 154.446 89.2024 154.855 89.5859C155.264 89.9652 155.59 90.468 155.833 91.0945C156.076 91.7209 156.197 92.4922 156.197 93.4084V94.0476H148.629V92.7436H154.663C154.663 92.1896 154.552 91.6953 154.331 91.2607C154.113 90.826 153.802 90.483 153.398 90.2315C152.997 89.9801 152.524 89.8544 151.979 89.8544C151.378 89.8544 150.858 90.0036 150.419 90.3018C149.984 90.5959 149.65 90.9794 149.415 91.4524C149.181 91.9254 149.064 92.4325 149.064 92.9737V93.843C149.064 94.5845 149.192 95.2131 149.447 95.7287C149.707 96.2401 150.067 96.63 150.528 96.8984C150.988 97.1626 151.523 97.2947 152.132 97.2947C152.528 97.2947 152.886 97.2393 153.206 97.1286C153.53 97.0135 153.809 96.843 154.043 96.6172C154.278 96.3871 154.459 96.1016 154.586 95.7607L156.044 96.1697C155.89 96.6641 155.633 97.0987 155.27 97.4737C154.908 97.8445 154.461 98.1342 153.928 98.343C153.395 98.5476 152.797 98.6499 152.132 98.6499ZM33.2415 114.826L31.8864 115.21C31.8011 114.984 31.6754 114.764 31.5092 114.551C31.3473 114.334 31.1257 114.155 30.8445 114.014C30.5632 113.874 30.2031 113.803 29.7642 113.803C29.1634 113.803 28.6626 113.942 28.2621 114.219C27.8658 114.491 27.6676 114.839 27.6676 115.261C27.6676 115.636 27.804 115.932 28.0767 116.149C28.3494 116.366 28.7756 116.548 29.3551 116.692L30.8125 117.05C31.6903 117.263 32.3445 117.589 32.7749 118.028C33.2053 118.463 33.4205 119.023 33.4205 119.71C33.4205 120.272 33.2585 120.775 32.9347 121.218C32.6151 121.661 32.1676 122.011 31.5923 122.266C31.017 122.522 30.348 122.65 29.5852 122.65C28.5838 122.65 27.755 122.433 27.0987 121.998C26.4425 121.563 26.027 120.928 25.8523 120.093L27.2841 119.735C27.4205 120.263 27.6783 120.66 28.0575 120.924C28.4411 121.188 28.9418 121.32 29.5597 121.32C30.2628 121.32 30.821 121.171 31.2344 120.873C31.652 120.57 31.8608 120.208 31.8608 119.786C31.8608 119.445 31.7415 119.16 31.5028 118.93C31.2642 118.695 30.8977 118.521 30.4034 118.406L28.767 118.022C27.8679 117.809 27.2074 117.479 26.7855 117.031C26.3679 116.58 26.1591 116.015 26.1591 115.337C26.1591 114.783 26.3146 114.293 26.6257 113.867C26.9411 113.441 27.3693 113.107 27.9105 112.864C28.456 112.621 29.0739 112.499 29.7642 112.499C30.7358 112.499 31.4986 112.712 32.0526 113.138C32.6108 113.565 33.0071 114.127 33.2415 114.826ZM39.6799 122.65C38.7594 122.65 37.9668 122.433 37.302 121.998C36.6373 121.563 36.1259 120.964 35.7679 120.202C35.41 119.439 35.231 118.567 35.231 117.587C35.231 116.59 35.4142 115.71 35.7807 114.947C36.1515 114.18 36.6671 113.582 37.3276 113.151C37.9924 112.717 38.7679 112.499 39.6543 112.499C40.3446 112.499 40.9668 112.627 41.5208 112.883C42.0748 113.138 42.5286 113.496 42.8823 113.957C43.236 114.417 43.4554 114.954 43.5407 115.567H42.0321C41.9171 115.12 41.6614 114.724 41.2651 114.379C40.873 114.029 40.3446 113.854 39.6799 113.854C39.0918 113.854 38.5762 114.008 38.133 114.315C37.6941 114.617 37.351 115.045 37.1039 115.599C36.861 116.149 36.7395 116.795 36.7395 117.536C36.7395 118.295 36.8588 118.955 37.0975 119.518C37.3404 120.08 37.6813 120.517 38.1202 120.828C38.5634 121.139 39.0833 121.295 39.6799 121.295C40.0719 121.295 40.4277 121.227 40.7473 121.09C41.0669 120.954 41.3375 120.758 41.5591 120.502C41.7807 120.246 41.9384 119.94 42.0321 119.582H43.5407C43.4554 120.161 43.2445 120.683 42.9078 121.148C42.5755 121.608 42.1344 121.974 41.5847 122.247C41.0392 122.516 40.4043 122.65 39.6799 122.65ZM45.7459 122.445V112.627H47.2033V114.11H47.3056C47.4846 113.624 47.8084 113.23 48.2772 112.928C48.7459 112.625 49.2743 112.474 49.8624 112.474C49.9732 112.474 50.1117 112.476 50.2779 112.48C50.4441 112.484 50.5698 112.491 50.655 112.499V114.033C50.6039 114.021 50.4867 114.001 50.3034 113.976C50.1245 113.946 49.9348 113.931 49.7346 113.931C49.2573 113.931 48.8311 114.031 48.4561 114.232C48.0854 114.428 47.7914 114.7 47.574 115.05C47.361 115.395 47.2544 115.789 47.2544 116.232V122.445H45.7459ZM56.2608 122.65C55.3148 122.65 54.4988 122.441 53.8127 122.023C53.1309 121.602 52.6046 121.013 52.2338 120.259C51.8674 119.501 51.6841 118.619 51.6841 117.613C51.6841 116.607 51.8674 115.721 52.2338 114.954C52.6046 114.183 53.1202 113.582 53.7807 113.151C54.4455 112.717 55.2211 112.499 56.1074 112.499C56.6188 112.499 57.1238 112.585 57.6223 112.755C58.1209 112.925 58.5748 113.202 58.9838 113.586C59.3929 113.965 59.7189 114.468 59.9618 115.094C60.2047 115.721 60.3262 116.492 60.3262 117.408V118.048H52.758V116.744H58.7921C58.7921 116.19 58.6813 115.695 58.4597 115.261C58.2424 114.826 57.9313 114.483 57.5265 114.232C57.1259 113.98 56.6529 113.854 56.1074 113.854C55.5066 113.854 54.9867 114.004 54.5478 114.302C54.1131 114.596 53.7786 114.979 53.5442 115.452C53.3098 115.925 53.1926 116.433 53.1926 116.974V117.843C53.1926 118.585 53.3205 119.213 53.5762 119.729C53.8361 120.24 54.1962 120.63 54.6564 120.898C55.1167 121.163 55.6515 121.295 56.2608 121.295C56.6571 121.295 57.0151 121.239 57.3347 121.129C57.6586 121.013 57.9377 120.843 58.1721 120.617C58.4064 120.387 58.5875 120.102 58.7154 119.761L60.1728 120.17C60.0194 120.664 59.7615 121.099 59.3993 121.474C59.0371 121.844 58.5897 122.134 58.057 122.343C57.5243 122.548 56.9256 122.65 56.2608 122.65ZM66.7374 122.65C65.7914 122.65 64.9753 122.441 64.2892 122.023C63.6074 121.602 63.0811 121.013 62.7104 120.259C62.3439 119.501 62.1607 118.619 62.1607 117.613C62.1607 116.607 62.3439 115.721 62.7104 114.954C63.0811 114.183 63.5968 113.582 64.2573 113.151C64.9221 112.717 65.6976 112.499 66.584 112.499C67.0953 112.499 67.6003 112.585 68.0989 112.755C68.5975 112.925 69.0513 113.202 69.4604 113.586C69.8695 113.965 70.1955 114.468 70.4384 115.094C70.6813 115.721 70.8027 116.492 70.8027 117.408V118.048H63.2346V116.744H69.2686C69.2686 116.19 69.1578 115.695 68.9363 115.261C68.7189 114.826 68.4078 114.483 68.003 114.232C67.6025 113.98 67.1294 113.854 66.584 113.854C65.9831 113.854 65.4632 114.004 65.0243 114.302C64.5897 114.596 64.2551 114.979 64.0208 115.452C63.7864 115.925 63.6692 116.433 63.6692 116.974V117.843C63.6692 118.585 63.7971 119.213 64.0527 119.729C64.3127 120.24 64.6728 120.63 65.133 120.898C65.5932 121.163 66.128 121.295 66.7374 121.295C67.1337 121.295 67.4917 121.239 67.8113 121.129C68.1351 121.013 68.4142 120.843 68.6486 120.617C68.883 120.387 69.0641 120.102 69.1919 119.761L70.6493 120.17C70.4959 120.664 70.2381 121.099 69.8759 121.474C69.5137 121.844 69.0662 122.134 68.5336 122.343C68.0009 122.548 67.4022 122.65 66.7374 122.65ZM74.606 116.539V122.445H73.0975V112.627H74.5549V114.161H74.6827C74.9128 113.663 75.2623 113.262 75.731 112.96C76.1998 112.653 76.8049 112.499 77.5463 112.499C78.2111 112.499 78.7928 112.636 79.2914 112.908C79.79 113.177 80.1777 113.586 80.4547 114.136C80.7317 114.681 80.8702 115.371 80.8702 116.207V122.445H79.3617V116.309C79.3617 115.538 79.1614 114.937 78.7608 114.506C78.3603 114.072 77.8105 113.854 77.1117 113.854C76.6301 113.854 76.1998 113.959 75.8205 114.168C75.4455 114.376 75.1493 114.681 74.932 115.082C74.7147 115.482 74.606 115.968 74.606 116.539ZM83.6268 122.445V112.627H85.1353V122.445H83.6268ZM84.3938 110.991C84.0998 110.991 83.8462 110.891 83.6332 110.69C83.4244 110.49 83.32 110.249 83.32 109.968C83.32 109.687 83.4244 109.446 83.6332 109.246C83.8462 109.045 84.0998 108.945 84.3938 108.945C84.6879 108.945 84.9393 109.045 85.1481 109.246C85.3612 109.446 85.4677 109.687 85.4677 109.968C85.4677 110.249 85.3612 110.49 85.1481 110.69C84.9393 110.891 84.6879 110.991 84.3938 110.991ZM89.4068 116.539V122.445H87.8983V112.627H89.3556V114.161H89.4835C89.7136 113.663 90.063 113.262 90.5318 112.96C91.0005 112.653 91.6056 112.499 92.3471 112.499C93.0119 112.499 93.5936 112.636 94.0922 112.908C94.5907 113.177 94.9785 113.586 95.2555 114.136C95.5325 114.681 95.671 115.371 95.671 116.207V122.445H94.1625V116.309C94.1625 115.538 93.9622 114.937 93.5616 114.506C93.161 114.072 92.6113 113.854 91.9125 113.854C91.4309 113.854 91.0005 113.959 90.6213 114.168C90.2463 114.376 89.9501 114.681 89.7328 115.082C89.5154 115.482 89.4068 115.968 89.4068 116.539ZM102.391 126.332C101.662 126.332 101.036 126.238 100.511 126.05C99.9872 125.867 99.5504 125.624 99.201 125.322C98.8558 125.023 98.581 124.704 98.3764 124.363L99.5781 123.519C99.7145 123.698 99.8871 123.903 100.096 124.133C100.305 124.367 100.59 124.57 100.952 124.74C101.319 124.915 101.798 125.002 102.391 125.002C103.183 125.002 103.837 124.81 104.353 124.427C104.869 124.043 105.126 123.442 105.126 122.624V120.63H104.999C104.888 120.809 104.73 121.031 104.526 121.295C104.325 121.555 104.036 121.787 103.656 121.991C103.281 122.192 102.774 122.292 102.135 122.292C101.342 122.292 100.631 122.104 100 121.729C99.3736 121.354 98.8771 120.809 98.5107 120.093C98.1484 119.377 97.9673 118.508 97.9673 117.485C97.9673 116.479 98.1442 115.604 98.4979 114.858C98.8516 114.108 99.3438 113.528 99.9744 113.119C100.605 112.706 101.334 112.499 102.161 112.499C102.8 112.499 103.307 112.606 103.682 112.819C104.061 113.028 104.351 113.266 104.551 113.535C104.756 113.799 104.913 114.016 105.024 114.187H105.178V112.627H106.635V122.727C106.635 123.57 106.443 124.256 106.06 124.785C105.68 125.317 105.169 125.707 104.526 125.955C103.886 126.206 103.175 126.332 102.391 126.332ZM102.339 120.937C102.945 120.937 103.456 120.798 103.874 120.521C104.291 120.244 104.609 119.846 104.826 119.326C105.043 118.806 105.152 118.184 105.152 117.46C105.152 116.752 105.045 116.128 104.832 115.587C104.619 115.045 104.304 114.621 103.886 114.315C103.469 114.008 102.953 113.854 102.339 113.854C101.7 113.854 101.168 114.016 100.741 114.34C100.32 114.664 100.002 115.099 99.7891 115.644C99.5803 116.19 99.4759 116.795 99.4759 117.46C99.4759 118.141 99.5824 118.744 99.7955 119.268C100.013 119.788 100.332 120.197 100.754 120.496C101.18 120.79 101.709 120.937 102.339 120.937ZM118.729 112.627V113.906H113.641V112.627H118.729ZM115.124 110.275H116.632V119.633C116.632 120.059 116.694 120.379 116.817 120.592C116.945 120.8 117.107 120.941 117.303 121.013C117.504 121.082 117.714 121.116 117.936 121.116C118.102 121.116 118.239 121.107 118.345 121.09C118.452 121.069 118.537 121.052 118.601 121.039L118.908 122.394C118.805 122.433 118.663 122.471 118.479 122.509C118.296 122.552 118.064 122.573 117.783 122.573C117.357 122.573 116.939 122.482 116.53 122.298C116.125 122.115 115.788 121.836 115.52 121.461C115.256 121.086 115.124 120.613 115.124 120.042V110.275ZM124.881 122.65C123.995 122.65 123.217 122.439 122.548 122.017C121.883 121.595 121.363 121.005 120.988 120.246C120.618 119.488 120.432 118.602 120.432 117.587C120.432 116.565 120.618 115.672 120.988 114.909C121.363 114.146 121.883 113.554 122.548 113.132C123.217 112.71 123.995 112.499 124.881 112.499C125.767 112.499 126.543 112.71 127.208 113.132C127.877 113.554 128.397 114.146 128.767 114.909C129.142 115.672 129.33 116.565 129.33 117.587C129.33 118.602 129.142 119.488 128.767 120.246C128.397 121.005 127.877 121.595 127.208 122.017C126.543 122.439 125.767 122.65 124.881 122.65ZM124.881 121.295C125.554 121.295 126.108 121.122 126.543 120.777C126.978 120.432 127.299 119.978 127.508 119.415C127.717 118.853 127.821 118.244 127.821 117.587C127.821 116.931 127.717 116.32 127.508 115.753C127.299 115.186 126.978 114.728 126.543 114.379C126.108 114.029 125.554 113.854 124.881 113.854C124.208 113.854 123.654 114.029 123.219 114.379C122.784 114.728 122.463 115.186 122.254 115.753C122.045 116.32 121.941 116.931 121.941 117.587C121.941 118.244 122.045 118.853 122.254 119.415C122.463 119.978 122.784 120.432 123.219 120.777C123.654 121.122 124.208 121.295 124.881 121.295ZM135.621 122.65C134.735 122.65 133.957 122.439 133.288 122.017C132.623 121.595 132.104 121.005 131.729 120.246C131.358 119.488 131.172 118.602 131.172 117.587C131.172 116.565 131.358 115.672 131.729 114.909C132.104 114.146 132.623 113.554 133.288 113.132C133.957 112.71 134.735 112.499 135.621 112.499C136.508 112.499 137.283 112.71 137.948 113.132C138.617 113.554 139.137 114.146 139.508 114.909C139.883 115.672 140.07 116.565 140.07 117.587C140.07 118.602 139.883 119.488 139.508 120.246C139.137 121.005 138.617 121.595 137.948 122.017C137.283 122.439 136.508 122.65 135.621 122.65ZM135.621 121.295C136.295 121.295 136.849 121.122 137.283 120.777C137.718 120.432 138.04 119.978 138.248 119.415C138.457 118.853 138.562 118.244 138.562 117.587C138.562 116.931 138.457 116.32 138.248 115.753C138.04 115.186 137.718 114.728 137.283 114.379C136.849 114.029 136.295 113.854 135.621 113.854C134.948 113.854 134.394 114.029 133.959 114.379C133.525 114.728 133.203 115.186 132.994 115.753C132.785 116.32 132.681 116.931 132.681 117.587C132.681 118.244 132.785 118.853 132.994 119.415C133.203 119.978 133.525 120.432 133.959 120.777C134.394 121.122 134.948 121.295 135.621 121.295ZM143.881 109.354V122.445H142.373V109.354H143.881Z" fill="white"/>
<g opacity="0.89" clip-path="url(#clip1_5498_163553)">
<path d="M33.193 21.0337V21.3837H33.543L36.693 21.3837V24.1151L26.893 24.1151V21.3837H30.043H30.393V21.0337C30.393 19.0685 30.9873 17.1468 32.1018 15.5117C33.2162 13.8765 34.801 12.6009 36.6565 11.8474C38.512 11.0939 40.5542 10.8967 42.5244 11.2809C44.4947 11.6651 46.3035 12.6133 47.7226 14.0046C49.1416 15.3957 50.1071 17.1674 50.4982 19.095C50.8893 21.0226 50.6886 23.0207 49.9213 24.8369C49.1539 26.6531 47.8539 28.2066 46.1847 29.3001C44.6124 30.3301 42.7793 30.9081 40.893 30.9719V28.2382C42.2224 28.1761 43.5125 27.7605 44.6237 27.0326C45.8323 26.2409 46.7754 25.1149 47.3325 23.7962C47.8897 22.4773 48.0356 21.0257 47.7515 19.6252C47.4673 18.2248 46.7662 16.9393 45.7377 15.9311C44.7094 14.9229 43.4 14.2371 41.9756 13.9593C40.5512 13.6815 39.0747 13.824 37.7325 14.369C36.3903 14.9141 35.2419 15.8376 34.4335 17.0238C33.625 18.2101 33.193 19.6056 33.193 21.0337ZM51.68 12.0509L49.7054 10.1151L52.918 6.96546L54.8919 8.90197L51.68 12.0509ZM30.393 35.1092L45.443 35.1092L45.443 37.8405L30.393 37.8405V35.1092ZM23.393 28.2464L36.693 28.2464L36.693 30.9778L23.393 30.9778V28.2464ZM39.143 2.51113L41.943 2.51113V6.95819H39.143V2.51113ZM29.4059 12.0509L26.1934 8.90286L28.1687 6.96623L31.3805 10.1151L29.4059 12.0509ZM52.9172 35.1011L49.7054 31.9523L51.68 30.0165L54.8918 33.1653L52.9172 35.1011ZM59.443 22.3994L54.893 22.3994V19.668L59.443 19.668V22.3994Z" fill="white" stroke="#060606" stroke-width="0.7"/>
</g>
</g>
<path d="M1.90625 142.023V0.445312H-0.09375V142.023H1.90625Z" fill="url(#paint0_linear_5498_163553)" mask="url(#path-1-inside-1_5498_163553)"/>
<defs>
<linearGradient id="paint0_linear_5498_163553" x1="104.938" y1="0.445312" x2="104.938" y2="142.023" gradientUnits="userSpaceOnUse">
<stop stop-color="white"/>
<stop offset="1" stop-color="#15161C"/>
</linearGradient>
<clipPath id="clip0_5498_163553">
<path d="M0.90625 0.445312H208.969V142.023H0.90625V0.445312Z" fill="white"/>
</clipPath>
<clipPath id="clip1_5498_163553">
<rect width="42" height="41.1765" fill="white" transform="translate(19.543 0.445312)"/>
</clipPath>
</defs>
</svg>
