<svg width="209" height="143" viewBox="0 0 209 143" fill="none" xmlns="http://www.w3.org/2000/svg">
<g clip-path="url(#clip0_5498_163552)">
<path d="M28.0142 85.3544V98.4453H26.429V85.3544H28.0142ZM32.4966 92.5391V98.4453H30.9881V88.6271H32.4455V90.1612H32.5733C32.8034 89.6626 33.1529 89.2621 33.6216 88.9595C34.0904 88.6527 34.6955 88.4993 35.437 88.4993C36.1017 88.4993 36.6834 88.6357 37.182 88.9084C37.6806 89.1768 38.0684 89.5859 38.3453 90.1357C38.6223 90.6811 38.7608 91.3714 38.7608 92.2067V98.4453H37.2523V92.3089C37.2523 91.5376 37.052 90.9368 36.6515 90.5064C36.2509 90.0717 35.7012 89.8544 35.0023 89.8544C34.5208 89.8544 34.0904 89.9588 33.7111 90.1676C33.3361 90.3764 33.04 90.6811 32.8226 91.0817C32.6053 91.4822 32.4966 91.968 32.4966 92.5391ZM45.8896 88.6271V89.9055H40.5969V88.6271H45.8896ZM42.1822 98.4453V87.272C42.1822 86.7095 42.3143 86.2408 42.5785 85.8658C42.8427 85.4908 43.1857 85.2095 43.6076 85.022C44.0295 84.8345 44.4748 84.7408 44.9435 84.7408C45.3143 84.7408 45.6168 84.7706 45.8512 84.8303C46.0856 84.8899 46.2603 84.9453 46.3754 84.9964L45.9407 86.3004C45.864 86.2749 45.7575 86.2429 45.6211 86.2045C45.489 86.1662 45.3143 86.147 45.0969 86.147C44.5984 86.147 44.2383 86.2727 44.0167 86.5241C43.7994 86.7756 43.6907 87.1442 43.6907 87.63V98.4453H42.1822ZM48.0037 98.4453V88.6271H49.4611V90.1101H49.5634C49.7424 89.6243 50.0662 89.2301 50.535 88.9276C51.0037 88.625 51.5321 88.4737 52.1202 88.4737C52.231 88.4737 52.3695 88.4759 52.5357 88.4801C52.7019 88.4844 52.8276 88.4908 52.9128 88.4993V90.0334C52.8617 90.0206 52.7445 90.0014 52.5613 89.9759C52.3823 89.946 52.1926 89.9311 51.9924 89.9311C51.5151 89.9311 51.089 90.0312 50.714 90.2315C50.3432 90.4276 50.0492 90.7003 49.8319 91.0497C49.6188 91.3949 49.5123 91.7891 49.5123 92.2322V98.4453H48.0037ZM57.5902 98.6754C56.968 98.6754 56.4034 98.5582 55.8963 98.3239C55.3892 98.0852 54.9865 97.7422 54.6882 97.2947C54.3899 96.843 54.2408 96.2976 54.2408 95.6584C54.2408 95.0959 54.3516 94.6399 54.5732 94.2905C54.7947 93.9368 55.0909 93.6598 55.4616 93.4595C55.8324 93.2592 56.2415 93.1101 56.6889 93.0121C57.1406 92.9098 57.5945 92.8288 58.0504 92.7692C58.647 92.6925 59.1307 92.6349 59.5014 92.5966C59.8764 92.554 60.1491 92.4837 60.3196 92.3857C60.4943 92.2876 60.5817 92.1172 60.5817 91.8743V91.8232C60.5817 91.1925 60.4091 90.7024 60.0639 90.353C59.723 90.0036 59.2053 89.8288 58.5107 89.8288C57.7905 89.8288 57.2259 89.9865 56.8168 90.3018C56.4077 90.6172 56.12 90.9538 55.9538 91.3118L54.522 90.8004C54.7777 90.2038 55.1186 89.7393 55.5447 89.407C55.9751 89.0703 56.4439 88.8359 56.951 88.7038C57.4624 88.5675 57.9652 88.4993 58.4595 88.4993C58.7749 88.4993 59.1371 88.5376 59.5462 88.6143C59.9595 88.6868 60.358 88.8381 60.7415 89.0682C61.1293 89.2983 61.451 89.6456 61.7067 90.1101C61.9624 90.5746 62.0902 91.1967 62.0902 91.9766V98.4453H60.5817V97.1158H60.505C60.4027 97.3288 60.2322 97.5568 59.9936 97.7997C59.755 98.0426 59.4375 98.2493 59.0412 98.4197C58.6449 98.5902 58.1612 98.6754 57.5902 98.6754ZM57.8203 97.3203C58.4169 97.3203 58.9197 97.2031 59.3288 96.9688C59.7422 96.7344 60.0533 96.4318 60.2621 96.0611C60.4751 95.6903 60.5817 95.3004 60.5817 94.8913V93.5107C60.5178 93.5874 60.3771 93.6577 60.1598 93.7216C59.9467 93.7812 59.6996 93.8345 59.4183 93.8814C59.1413 93.924 58.8707 93.9624 58.6065 93.9964C58.3466 94.0263 58.1357 94.0518 57.9737 94.0732C57.5817 94.1243 57.2152 94.2074 56.8743 94.3224C56.5376 94.4332 56.2649 94.6016 56.0561 94.8274C55.8516 95.049 55.7493 95.3516 55.7493 95.7351C55.7493 96.2592 55.9432 96.6555 56.331 96.924C56.723 97.1882 57.2195 97.3203 57.8203 97.3203ZM71.7981 90.826L70.443 91.2095C70.3578 90.9837 70.2321 90.7642 70.0659 90.5511C69.9039 90.3338 69.6824 90.1548 69.4011 90.0142C69.1199 89.8736 68.7598 89.8033 68.3208 89.8033C67.72 89.8033 67.2193 89.9418 66.8187 90.2188C66.4224 90.4915 66.2243 90.8388 66.2243 91.2607C66.2243 91.6357 66.3606 91.9318 66.6333 92.1491C66.9061 92.3665 67.3322 92.5476 67.9118 92.6925L69.3691 93.0504C70.247 93.2635 70.9011 93.5895 71.3315 94.0284C71.7619 94.4631 71.9771 95.0234 71.9771 95.7095C71.9771 96.272 71.8152 96.7749 71.4913 97.218C71.1717 97.6612 70.7243 98.0107 70.149 98.2663C69.5737 98.522 68.9047 98.6499 68.1419 98.6499C67.1404 98.6499 66.3116 98.4325 65.6554 97.9979C64.9991 97.5632 64.5836 96.9283 64.4089 96.093L65.8407 95.7351C65.9771 96.2635 66.2349 96.6598 66.6142 96.924C66.9977 97.1882 67.4984 97.3203 68.1163 97.3203C68.8194 97.3203 69.3777 97.1712 69.791 96.8729C70.2086 96.5703 70.4174 96.2081 70.4174 95.7862C70.4174 95.4453 70.2981 95.1598 70.0595 94.9297C69.8208 94.6953 69.4544 94.5206 68.9601 94.4055L67.3237 94.022C66.4245 93.8089 65.764 93.4787 65.3422 93.0312C64.9245 92.5795 64.7157 92.0149 64.7157 91.3374C64.7157 90.7834 64.8713 90.2933 65.1824 89.8672C65.4977 89.4411 65.926 89.1065 66.4672 88.8636C67.0126 88.6207 67.6305 88.4993 68.3208 88.4993C69.2924 88.4993 70.0552 88.7124 70.6092 89.1385C71.1674 89.5646 71.5637 90.1271 71.7981 90.826ZM78.5178 88.6271V89.9055H73.4297V88.6271H78.5178ZM74.9126 86.2749H76.4212V95.6328C76.4212 96.0589 76.483 96.3786 76.6065 96.5916C76.7344 96.8004 76.8963 96.9411 77.0923 97.0135C77.2926 97.0817 77.5036 97.1158 77.7251 97.1158C77.8913 97.1158 78.0277 97.1072 78.1342 97.0902C78.2408 97.0689 78.326 97.0518 78.3899 97.0391L78.6967 98.3942C78.5945 98.4325 78.4517 98.4709 78.2685 98.5092C78.0852 98.5518 77.853 98.5732 77.5717 98.5732C77.1456 98.5732 76.728 98.4815 76.3189 98.2983C75.9141 98.1151 75.5774 97.8359 75.3089 97.4609C75.0447 97.0859 74.9126 96.6129 74.9126 96.0419V86.2749ZM80.7869 98.4453V88.6271H82.2443V90.1101H82.3466C82.5256 89.6243 82.8494 89.2301 83.3182 88.9276C83.7869 88.625 84.3153 88.4737 84.9034 88.4737C85.0142 88.4737 85.1527 88.4759 85.3189 88.4801C85.4851 88.4844 85.6108 88.4908 85.696 88.4993V90.0334C85.6449 90.0206 85.5277 90.0014 85.3445 89.9759C85.1655 89.946 84.9759 89.9311 84.7756 89.9311C84.2983 89.9311 83.8722 90.0312 83.4972 90.2315C83.1264 90.4276 82.8324 90.7003 82.6151 91.0497C82.402 91.3949 82.2955 91.7891 82.2955 92.2322V98.4453H80.7869ZM93.6717 94.4311V88.6271H95.1802V98.4453H93.6717V96.7834H93.5694C93.3393 97.282 92.9814 97.706 92.4956 98.0554C92.0098 98.4006 91.3961 98.5732 90.6547 98.5732C90.041 98.5732 89.4956 98.4389 89.0183 98.1705C88.541 97.8977 88.166 97.4886 87.8933 96.9432C87.6206 96.3935 87.4842 95.701 87.4842 94.8658V88.6271H88.9927V94.7635C88.9927 95.4794 89.193 96.0504 89.5936 96.4766C89.9984 96.9027 90.514 97.1158 91.1404 97.1158C91.5154 97.1158 91.8968 97.0199 92.2846 96.8281C92.6767 96.6364 93.0048 96.3423 93.269 95.946C93.5375 95.5497 93.6717 95.0447 93.6717 94.4311ZM101.932 98.6499C101.011 98.6499 100.219 98.4325 99.554 97.9979C98.8892 97.5632 98.3778 96.9645 98.0199 96.2017C97.6619 95.4389 97.483 94.5675 97.483 93.5874C97.483 92.5902 97.6662 91.7102 98.0327 90.9474C98.4034 90.1804 98.919 89.5817 99.5795 89.1513C100.244 88.7166 101.02 88.4993 101.906 88.4993C102.597 88.4993 103.219 88.6271 103.773 88.8828C104.327 89.1385 104.781 89.4964 105.134 89.9567C105.488 90.4169 105.707 90.9538 105.793 91.5675H104.284C104.169 91.12 103.913 90.7237 103.517 90.3786C103.125 90.0291 102.597 89.8544 101.932 89.8544C101.344 89.8544 100.828 90.0078 100.385 90.3146C99.946 90.6172 99.603 91.0455 99.3558 91.5994C99.1129 92.1491 98.9915 92.7947 98.9915 93.5362C98.9915 94.2947 99.1108 94.9553 99.3494 95.5178C99.5923 96.0803 99.9332 96.517 100.372 96.8281C100.815 97.1392 101.335 97.2947 101.932 97.2947C102.324 97.2947 102.68 97.2266 102.999 97.0902C103.319 96.9538 103.589 96.7578 103.811 96.5021C104.033 96.2464 104.19 95.9396 104.284 95.5817H105.793C105.707 96.1612 105.496 96.6832 105.16 97.1477C104.827 97.608 104.386 97.9744 103.837 98.2472C103.291 98.5156 102.656 98.6499 101.932 98.6499ZM112.268 88.6271V89.9055H107.18V88.6271H112.268ZM108.663 86.2749H110.171V95.6328C110.171 96.0589 110.233 96.3786 110.357 96.5916C110.484 96.8004 110.646 96.9411 110.842 97.0135C111.043 97.0817 111.254 97.1158 111.475 97.1158C111.641 97.1158 111.778 97.1072 111.884 97.0902C111.991 97.0689 112.076 97.0518 112.14 97.0391L112.447 98.3942C112.344 98.4325 112.202 98.4709 112.018 98.5092C111.835 98.5518 111.603 98.5732 111.322 98.5732C110.896 98.5732 110.478 98.4815 110.069 98.2983C109.664 98.1151 109.327 97.8359 109.059 97.4609C108.795 97.0859 108.663 96.6129 108.663 96.0419V86.2749ZM120.724 94.4311V88.6271H122.233V98.4453H120.724V96.7834H120.622C120.392 97.282 120.034 97.706 119.548 98.0554C119.063 98.4006 118.449 98.5732 117.707 98.5732C117.094 98.5732 116.548 98.4389 116.071 98.1705C115.594 97.8977 115.219 97.4886 114.946 96.9432C114.673 96.3935 114.537 95.701 114.537 94.8658V88.6271H116.045V94.7635C116.045 95.4794 116.246 96.0504 116.646 96.4766C117.051 96.9027 117.567 97.1158 118.193 97.1158C118.568 97.1158 118.95 97.0199 119.337 96.8281C119.729 96.6364 120.058 96.3423 120.322 95.946C120.59 95.5497 120.724 95.0447 120.724 94.4311ZM124.996 98.4453V88.6271H126.453V90.1101H126.556C126.735 89.6243 127.058 89.2301 127.527 88.9276C127.996 88.625 128.524 88.4737 129.112 88.4737C129.223 88.4737 129.362 88.4759 129.528 88.4801C129.694 88.4844 129.82 88.4908 129.905 88.4993V90.0334C129.854 90.0206 129.737 90.0014 129.553 89.9759C129.374 89.946 129.185 89.9311 128.985 89.9311C128.507 89.9311 128.081 90.0312 127.706 90.2315C127.335 90.4276 127.041 90.7003 126.824 91.0497C126.611 91.3949 126.504 91.7891 126.504 92.2322V98.4453H124.996ZM135.511 98.6499C134.565 98.6499 133.749 98.4411 133.063 98.0234C132.381 97.6016 131.855 97.0135 131.484 96.2592C131.117 95.5007 130.934 94.6186 130.934 93.6129C130.934 92.6072 131.117 91.7209 131.484 90.9538C131.855 90.1825 132.37 89.5817 133.031 89.1513C133.695 88.7166 134.471 88.4993 135.357 88.4993C135.869 88.4993 136.374 88.5845 136.872 88.755C137.371 88.9254 137.825 89.2024 138.234 89.5859C138.643 89.9652 138.969 90.468 139.212 91.0945C139.455 91.7209 139.576 92.4922 139.576 93.4084V94.0476H132.008V92.7436H138.042C138.042 92.1896 137.931 91.6953 137.71 91.2607C137.492 90.826 137.181 90.483 136.776 90.2315C136.376 89.9801 135.903 89.8544 135.357 89.8544C134.757 89.8544 134.237 90.0036 133.798 90.3018C133.363 90.5959 133.029 90.9794 132.794 91.4524C132.56 91.9254 132.443 92.4325 132.443 92.9737V93.843C132.443 94.5845 132.57 95.2131 132.826 95.7287C133.086 96.2401 133.446 96.63 133.906 96.8984C134.367 97.1626 134.901 97.2947 135.511 97.2947C135.907 97.2947 136.265 97.2393 136.585 97.1286C136.909 97.0135 137.188 96.843 137.422 96.6172C137.656 96.3871 137.838 96.1016 137.965 95.7607L139.423 96.1697C139.269 96.6641 139.012 97.0987 138.649 97.4737C138.287 97.8445 137.84 98.1342 137.307 98.343C136.774 98.5476 136.176 98.6499 135.511 98.6499ZM29.1136 122.675C28.4915 122.675 27.9268 122.558 27.4197 122.324C26.9126 122.085 26.5099 121.742 26.2116 121.295C25.9134 120.843 25.7642 120.298 25.7642 119.658C25.7642 119.096 25.875 118.64 26.0966 118.29C26.3182 117.937 26.6143 117.66 26.9851 117.46C27.3558 117.259 27.7649 117.11 28.2124 117.012C28.6641 116.91 29.1179 116.829 29.5739 116.769C30.1705 116.692 30.6541 116.635 31.0249 116.597C31.3999 116.554 31.6726 116.484 31.843 116.386C32.0178 116.288 32.1051 116.117 32.1051 115.874V115.823C32.1051 115.192 31.9325 114.702 31.5874 114.353C31.2464 114.004 30.7287 113.829 30.0341 113.829C29.3139 113.829 28.7493 113.987 28.3402 114.302C27.9311 114.617 27.6435 114.954 27.4773 115.312L26.0455 114.8C26.3011 114.204 26.642 113.739 27.0682 113.407C27.4986 113.07 27.9673 112.836 28.4744 112.704C28.9858 112.567 29.4886 112.499 29.983 112.499C30.2983 112.499 30.6605 112.538 31.0696 112.614C31.483 112.687 31.8814 112.838 32.2649 113.068C32.6527 113.298 32.9744 113.646 33.2301 114.11C33.4858 114.575 33.6136 115.197 33.6136 115.977V122.445H32.1051V121.116H32.0284C31.9261 121.329 31.7557 121.557 31.517 121.8C31.2784 122.043 30.9609 122.249 30.5646 122.42C30.1683 122.59 29.6847 122.675 29.1136 122.675ZM29.3438 121.32C29.9403 121.32 30.4432 121.203 30.8523 120.969C31.2656 120.734 31.5767 120.432 31.7855 120.061C31.9986 119.69 32.1051 119.3 32.1051 118.891V117.511C32.0412 117.587 31.9006 117.658 31.6832 117.722C31.4702 117.781 31.223 117.835 30.9418 117.881C30.6648 117.924 30.3942 117.962 30.13 117.996C29.87 118.026 29.6591 118.052 29.4972 118.073C29.1051 118.124 28.7386 118.207 28.3977 118.322C28.0611 118.433 27.7884 118.602 27.5795 118.827C27.375 119.049 27.2727 119.352 27.2727 119.735C27.2727 120.259 27.4666 120.656 27.8544 120.924C28.2464 121.188 28.7429 121.32 29.3438 121.32ZM40.3556 122.65C39.4352 122.65 38.6426 122.433 37.9778 121.998C37.313 121.563 36.8017 120.964 36.4437 120.202C36.0858 119.439 35.9068 118.567 35.9068 117.587C35.9068 116.59 36.09 115.71 36.4565 114.947C36.8272 114.18 37.3429 113.582 38.0034 113.151C38.6681 112.717 39.4437 112.499 40.3301 112.499C41.0204 112.499 41.6426 112.627 42.1966 112.883C42.7505 113.138 43.2044 113.496 43.5581 113.957C43.9118 114.417 44.1312 114.954 44.2164 115.567H42.7079C42.5929 115.12 42.3372 114.724 41.9409 114.379C41.5488 114.029 41.0204 113.854 40.3556 113.854C39.7676 113.854 39.252 114.008 38.8088 114.315C38.3699 114.617 38.0268 115.045 37.7797 115.599C37.5368 116.149 37.4153 116.795 37.4153 117.536C37.4153 118.295 37.5346 118.955 37.7733 119.518C38.0162 120.08 38.3571 120.517 38.796 120.828C39.2392 121.139 39.7591 121.295 40.3556 121.295C40.7477 121.295 41.1035 121.227 41.4231 121.09C41.7427 120.954 42.0133 120.758 42.2349 120.502C42.4565 120.246 42.6142 119.94 42.7079 119.582H44.2164C44.1312 120.161 43.9203 120.683 43.5836 121.148C43.2512 121.608 42.8102 121.974 42.2605 122.247C41.715 122.516 41.0801 122.65 40.3556 122.65ZM50.4103 122.65C49.4899 122.65 48.6973 122.433 48.0325 121.998C47.3677 121.563 46.8564 120.964 46.4984 120.202C46.1404 119.439 45.9615 118.567 45.9615 117.587C45.9615 116.59 46.1447 115.71 46.5112 114.947C46.8819 114.18 47.3975 113.582 48.0581 113.151C48.7228 112.717 49.4984 112.499 50.3848 112.499C51.0751 112.499 51.6973 112.627 52.2512 112.883C52.8052 113.138 53.2591 113.496 53.6127 113.957C53.9664 114.417 54.1859 114.954 54.2711 115.567H52.7626C52.6475 115.12 52.3919 114.724 51.9956 114.379C51.6035 114.029 51.0751 113.854 50.4103 113.854C49.8223 113.854 49.3066 114.008 48.8635 114.315C48.4245 114.617 48.0815 115.045 47.8343 115.599C47.5914 116.149 47.47 116.795 47.47 117.536C47.47 118.295 47.5893 118.955 47.8279 119.518C48.0708 120.08 48.4118 120.517 48.8507 120.828C49.2939 121.139 49.8137 121.295 50.4103 121.295C50.8024 121.295 51.1582 121.227 51.4778 121.09C51.7974 120.954 52.068 120.758 52.2896 120.502C52.5112 120.246 52.6689 119.94 52.7626 119.582H54.2711C54.1859 120.161 53.975 120.683 53.6383 121.148C53.3059 121.608 52.8649 121.974 52.3152 122.247C51.7697 122.516 51.1348 122.65 50.4103 122.65ZM60.5929 122.65C59.6468 122.65 58.8308 122.441 58.1447 122.023C57.4629 121.602 56.9366 121.013 56.5659 120.259C56.1994 119.501 56.0162 118.619 56.0162 117.613C56.0162 116.607 56.1994 115.721 56.5659 114.954C56.9366 114.183 57.4522 113.582 58.1127 113.151C58.7775 112.717 59.5531 112.499 60.4395 112.499C60.9508 112.499 61.4558 112.585 61.9544 112.755C62.4529 112.925 62.9068 113.202 63.3159 113.586C63.725 113.965 64.051 114.468 64.2939 115.094C64.5368 115.721 64.6582 116.492 64.6582 117.408V118.048H57.09V116.744H63.1241C63.1241 116.19 63.0133 115.695 62.7917 115.261C62.5744 114.826 62.2633 114.483 61.8585 114.232C61.4579 113.98 60.9849 113.854 60.4395 113.854C59.8386 113.854 59.3187 114.004 58.8798 114.302C58.4451 114.596 58.1106 114.979 57.8762 115.452C57.6419 115.925 57.5247 116.433 57.5247 116.974V117.843C57.5247 118.585 57.6525 119.213 57.9082 119.729C58.1681 120.24 58.5282 120.63 58.9885 120.898C59.4487 121.163 59.9835 121.295 60.5929 121.295C60.9892 121.295 61.3471 121.239 61.6667 121.129C61.9906 121.013 62.2697 120.843 62.5041 120.617C62.7385 120.387 62.9196 120.102 63.0474 119.761L64.5048 120.17C64.3514 120.664 64.0936 121.099 63.7314 121.474C63.3691 121.844 62.9217 122.134 62.389 122.343C61.8564 122.548 61.2576 122.65 60.5929 122.65ZM73.9075 114.826L72.5524 115.21C72.4672 114.984 72.3414 114.764 72.1752 114.551C72.0133 114.334 71.7917 114.155 71.5105 114.014C71.2292 113.874 70.8691 113.803 70.4302 113.803C69.8294 113.803 69.3287 113.942 68.9281 114.219C68.5318 114.491 68.3336 114.839 68.3336 115.261C68.3336 115.636 68.47 115.932 68.7427 116.149C69.0154 116.366 69.4416 116.548 70.0211 116.692L71.4785 117.05C72.3564 117.263 73.0105 117.589 73.4409 118.028C73.8713 118.463 74.0865 119.023 74.0865 119.71C74.0865 120.272 73.9245 120.775 73.6007 121.218C73.2811 121.661 72.8336 122.011 72.2583 122.266C71.6831 122.522 71.014 122.65 70.2512 122.65C69.2498 122.65 68.421 122.433 67.7647 121.998C67.1085 121.563 66.693 120.928 66.5183 120.093L67.9501 119.735C68.0865 120.263 68.3443 120.66 68.7235 120.924C69.1071 121.188 69.6078 121.32 70.2257 121.32C70.9288 121.32 71.487 121.171 71.9004 120.873C72.318 120.57 72.5268 120.208 72.5268 119.786C72.5268 119.445 72.4075 119.16 72.1689 118.93C71.9302 118.695 71.5637 118.521 71.0694 118.406L69.4331 118.022C68.5339 117.809 67.8734 117.479 67.4515 117.031C67.0339 116.58 66.8251 116.015 66.8251 115.337C66.8251 114.783 66.9806 114.293 67.2917 113.867C67.6071 113.441 68.0353 113.107 68.5765 112.864C69.122 112.621 69.7399 112.499 70.4302 112.499C71.4018 112.499 72.1646 112.712 72.7186 113.138C73.2768 113.565 73.6731 114.127 73.9075 114.826ZM83.3118 114.826L81.9567 115.21C81.8714 114.984 81.7457 114.764 81.5795 114.551C81.4176 114.334 81.196 114.155 80.9148 114.014C80.6335 113.874 80.2734 113.803 79.8345 113.803C79.2337 113.803 78.733 113.942 78.3324 114.219C77.9361 114.491 77.7379 114.839 77.7379 115.261C77.7379 115.636 77.8743 115.932 78.147 116.149C78.4197 116.366 78.8459 116.548 79.4254 116.692L80.8828 117.05C81.7607 117.263 82.4148 117.589 82.8452 118.028C83.2756 118.463 83.4908 119.023 83.4908 119.71C83.4908 120.272 83.3288 120.775 83.005 121.218C82.6854 121.661 82.2379 122.011 81.6626 122.266C81.0874 122.522 80.4183 122.65 79.6555 122.65C78.6541 122.65 77.8253 122.433 77.169 121.998C76.5128 121.563 76.0973 120.928 75.9226 120.093L77.3544 119.735C77.4908 120.263 77.7486 120.66 78.1278 120.924C78.5114 121.188 79.0121 121.32 79.63 121.32C80.3331 121.32 80.8913 121.171 81.3047 120.873C81.7223 120.57 81.9311 120.208 81.9311 119.786C81.9311 119.445 81.8118 119.16 81.5732 118.93C81.3345 118.695 80.968 118.521 80.4737 118.406L78.8374 118.022C77.9382 117.809 77.2777 117.479 76.8558 117.031C76.4382 116.58 76.2294 116.015 76.2294 115.337C76.2294 114.783 76.3849 114.293 76.696 113.867C77.0114 113.441 77.4396 113.107 77.9808 112.864C78.5263 112.621 79.1442 112.499 79.8345 112.499C80.8061 112.499 81.5689 112.712 82.1229 113.138C82.6811 113.565 83.0774 114.127 83.3118 114.826ZM85.7615 122.445V112.627H87.2701V122.445H85.7615ZM86.5286 110.991C86.2346 110.991 85.981 110.891 85.7679 110.69C85.5591 110.49 85.4547 110.249 85.4547 109.968C85.4547 109.687 85.5591 109.446 85.7679 109.246C85.981 109.045 86.2346 108.945 86.5286 108.945C86.8226 108.945 87.074 109.045 87.2828 109.246C87.4959 109.446 87.6025 109.687 87.6025 109.968C87.6025 110.249 87.4959 110.49 87.2828 110.69C87.074 110.891 86.8226 110.991 86.5286 110.991ZM90.2376 122.445V109.354H91.7461V114.187H91.8739C91.9847 114.016 92.1381 113.799 92.3342 113.535C92.5344 113.266 92.82 113.028 93.1907 112.819C93.5657 112.606 94.0728 112.499 94.712 112.499C95.5387 112.499 96.2674 112.706 96.8981 113.119C97.5288 113.533 98.021 114.119 98.3746 114.877C98.7283 115.636 98.9052 116.531 98.9052 117.562C98.9052 118.602 98.7283 119.503 98.3746 120.266C98.021 121.024 97.5309 121.612 96.9045 122.03C96.2781 122.443 95.5558 122.65 94.7376 122.65C94.1069 122.65 93.6019 122.545 93.2227 122.337C92.8434 122.124 92.5515 121.883 92.3469 121.614C92.1424 121.342 91.9847 121.116 91.8739 120.937H91.695V122.445H90.2376ZM91.7205 117.536C91.7205 118.278 91.8292 118.932 92.0465 119.499C92.2638 120.061 92.5813 120.502 92.9989 120.822C93.4165 121.137 93.9279 121.295 94.533 121.295C95.1637 121.295 95.69 121.129 96.1119 120.796C96.538 120.46 96.8576 120.008 97.0707 119.441C97.288 118.87 97.3967 118.235 97.3967 117.536C97.3967 116.846 97.2901 116.224 97.0771 115.67C96.8683 115.112 96.5508 114.67 96.1246 114.347C95.7028 114.018 95.1722 113.854 94.533 113.854C93.9194 113.854 93.4038 114.01 92.9862 114.321C92.5685 114.628 92.2532 115.058 92.0401 115.612C91.8271 116.162 91.7205 116.803 91.7205 117.536ZM101.213 122.445V112.627H102.721V122.445H101.213ZM101.98 110.991C101.686 110.991 101.432 110.891 101.219 110.69C101.01 110.49 100.906 110.249 100.906 109.968C100.906 109.687 101.01 109.446 101.219 109.246C101.432 109.045 101.686 108.945 101.98 108.945C102.274 108.945 102.525 109.045 102.734 109.246C102.947 109.446 103.054 109.687 103.054 109.968C103.054 110.249 102.947 110.49 102.734 110.69C102.525 110.891 102.274 110.991 101.98 110.991ZM106.993 109.354V122.445H105.484V109.354H106.993ZM109.756 122.445V112.627H111.264V122.445H109.756ZM110.523 110.991C110.229 110.991 109.975 110.891 109.762 110.69C109.553 110.49 109.449 110.249 109.449 109.968C109.449 109.687 109.553 109.446 109.762 109.246C109.975 109.045 110.229 108.945 110.523 108.945C110.817 108.945 111.068 109.045 111.277 109.246C111.49 109.446 111.597 109.687 111.597 109.968C111.597 110.249 111.49 110.49 111.277 110.69C111.068 110.891 110.817 110.991 110.523 110.991ZM118.297 112.627V113.906H113.209V112.627H118.297ZM114.692 110.275H116.2V119.633C116.2 120.059 116.262 120.379 116.386 120.592C116.514 120.8 116.676 120.941 116.872 121.013C117.072 121.082 117.283 121.116 117.504 121.116C117.671 121.116 117.807 121.107 117.914 121.09C118.02 121.069 118.105 121.052 118.169 121.039L118.476 122.394C118.374 122.433 118.231 122.471 118.048 122.509C117.865 122.552 117.632 122.573 117.351 122.573C116.925 122.573 116.507 122.482 116.098 122.298C115.693 122.115 115.357 121.836 115.088 121.461C114.824 121.086 114.692 120.613 114.692 120.042V110.275ZM121.538 126.127C121.282 126.127 121.054 126.106 120.854 126.063C120.654 126.025 120.515 125.987 120.438 125.948L120.822 124.619C121.188 124.712 121.512 124.746 121.794 124.721C122.075 124.695 122.324 124.57 122.541 124.344C122.763 124.122 122.965 123.762 123.149 123.263L123.43 122.496L119.799 112.627H121.436L124.146 120.451H124.248L126.958 112.627H128.595L124.427 123.877C124.24 124.384 124.007 124.804 123.73 125.136C123.453 125.473 123.132 125.722 122.765 125.884C122.403 126.046 121.994 126.127 121.538 126.127ZM139.918 112.627V113.906H134.83V112.627H139.918ZM136.313 110.275H137.822V119.633C137.822 120.059 137.883 120.379 138.007 120.592C138.135 120.8 138.297 120.941 138.493 121.013C138.693 121.082 138.904 121.116 139.126 121.116C139.292 121.116 139.428 121.107 139.535 121.09C139.641 121.069 139.726 121.052 139.79 121.039L140.097 122.394C139.995 122.433 139.852 122.471 139.669 122.509C139.486 122.552 139.253 122.573 138.972 122.573C138.546 122.573 138.128 122.482 137.719 122.298C137.314 122.115 136.978 121.836 136.709 121.461C136.445 121.086 136.313 120.613 136.313 120.042V110.275ZM146.07 122.65C145.184 122.65 144.406 122.439 143.737 122.017C143.073 121.595 142.553 121.005 142.178 120.246C141.807 119.488 141.622 118.602 141.622 117.587C141.622 116.565 141.807 115.672 142.178 114.909C142.553 114.146 143.073 113.554 143.737 113.132C144.406 112.71 145.184 112.499 146.07 112.499C146.957 112.499 147.732 112.71 148.397 113.132C149.066 113.554 149.586 114.146 149.957 114.909C150.332 115.672 150.519 116.565 150.519 117.587C150.519 118.602 150.332 119.488 149.957 120.246C149.586 121.005 149.066 121.595 148.397 122.017C147.732 122.439 146.957 122.65 146.07 122.65ZM146.07 121.295C146.744 121.295 147.298 121.122 147.732 120.777C148.167 120.432 148.489 119.978 148.698 119.415C148.906 118.853 149.011 118.244 149.011 117.587C149.011 116.931 148.906 116.32 148.698 115.753C148.489 115.186 148.167 114.728 147.732 114.379C147.298 114.029 146.744 113.854 146.07 113.854C145.397 113.854 144.843 114.029 144.409 114.379C143.974 114.728 143.652 115.186 143.443 115.753C143.235 116.32 143.13 116.931 143.13 117.587C143.13 118.244 143.235 118.853 143.443 119.415C143.652 119.978 143.974 120.432 144.409 120.777C144.843 121.122 145.397 121.295 146.07 121.295ZM156.811 122.65C155.924 122.65 155.147 122.439 154.478 122.017C153.813 121.595 153.293 121.005 152.918 120.246C152.547 119.488 152.362 118.602 152.362 117.587C152.362 116.565 152.547 115.672 152.918 114.909C153.293 114.146 153.813 113.554 154.478 113.132C155.147 112.71 155.924 112.499 156.811 112.499C157.697 112.499 158.473 112.71 159.137 113.132C159.806 113.554 160.326 114.146 160.697 114.909C161.072 115.672 161.26 116.565 161.26 117.587C161.26 118.602 161.072 119.488 160.697 120.246C160.326 121.005 159.806 121.595 159.137 122.017C158.473 122.439 157.697 122.65 156.811 122.65ZM156.811 121.295C157.484 121.295 158.038 121.122 158.473 120.777C158.907 120.432 159.229 119.978 159.438 119.415C159.647 118.853 159.751 118.244 159.751 117.587C159.751 116.931 159.647 116.32 159.438 115.753C159.229 115.186 158.907 114.728 158.473 114.379C158.038 114.029 157.484 113.854 156.811 113.854C156.137 113.854 155.583 114.029 155.149 114.379C154.714 114.728 154.392 115.186 154.184 115.753C153.975 116.32 153.87 116.931 153.87 117.587C153.87 118.244 153.975 118.853 154.184 119.415C154.392 119.978 154.714 120.432 155.149 120.777C155.583 121.122 156.137 121.295 156.811 121.295ZM165.071 109.354V122.445H163.562V109.354H165.071Z" fill="white"/>
<g opacity="0.89" clip-path="url(#clip1_5498_163552)">
<path d="M39.0805 30.912V31.2211L39.0805 34.7794V35.1215L38.7385 35.1293C35.2989 35.2079 32.2588 35.5168 30.0867 35.9656C28.9978 36.1906 28.1453 36.4472 27.5733 36.7182C27.2864 36.8542 27.0888 36.9851 26.9678 37.103C26.8474 37.2204 26.8305 37.2962 26.8305 37.3323C26.8305 37.3712 26.8507 37.4574 26.9988 37.5904C27.1457 37.7223 27.3825 37.866 27.7202 38.0128C28.393 38.3051 29.3881 38.5766 30.6444 38.8076C33.1515 39.2685 36.6293 39.5559 40.4805 39.5559C44.3317 39.5559 47.8095 39.2685 50.3165 38.8076C51.5729 38.5766 52.568 38.3051 53.2407 38.0128C53.5784 37.866 53.8152 37.7223 53.9622 37.5904C54.1103 37.4574 54.1305 37.3712 54.1305 37.3323C54.1305 37.2962 54.1136 37.2204 53.9931 37.103C53.8721 36.9851 53.6745 36.8542 53.3876 36.7182C52.8156 36.4472 51.9631 36.1906 50.8742 35.9656C48.7021 35.5168 45.6621 35.2079 42.2225 35.1293L41.8805 35.1215V34.7794L41.8805 31.2211V30.9114L42.1878 30.8737C45.6369 30.4502 48.7898 28.7536 51.0051 26.1317C53.2202 23.5099 54.3314 20.1601 54.1141 16.7648C53.8968 13.3695 52.3672 10.1816 49.8346 7.85137C47.3019 5.52098 43.9569 4.22397 40.4809 4.22647C40.4808 4.22647 40.4808 4.22647 40.4807 4.22647M39.0805 30.912L38.7305 31.2211C35.2002 30.7807 31.9735 29.0389 29.706 26.3499C27.4386 23.6608 26.3007 20.2262 26.5236 16.7441C26.7464 13.262 28.3133 9.99373 30.9058 7.60359C33.4982 5.21345 36.9218 3.88079 40.4805 3.87647L40.4807 4.22647M39.0805 30.912L38.7738 30.8738C35.3298 30.4441 32.1835 28.7451 29.9736 26.1242C27.7639 23.5036 26.6558 20.1576 26.8728 16.7664C27.0899 13.3752 28.6159 10.1908 31.143 7.86092C33.6703 5.53092 37.0089 4.23073 40.4807 4.22647M39.0805 30.912L40.4807 4.22647M40.4805 28.2461C43.3559 28.2461 46.1148 27.1263 48.1501 25.1309C50.1856 23.1353 51.3305 20.4272 51.3305 17.602C51.3305 14.7767 50.1856 12.0686 48.1501 10.073C46.1148 8.07762 43.3559 6.95784 40.4805 6.95784C37.6051 6.95784 34.8461 8.07762 32.8108 10.073C30.7753 12.0686 29.6305 14.7767 29.6305 17.602C29.6305 20.4272 30.7753 23.1353 32.8108 25.1309C34.8461 27.1263 37.6051 28.2461 40.4805 28.2461ZM40.4805 20.6833C39.6428 20.6833 38.8409 20.357 38.2506 19.7784C37.6606 19.1999 37.3305 18.4169 37.3305 17.602C37.3305 16.787 37.6606 16.004 38.2506 15.4255C38.8409 14.8469 39.6428 14.5206 40.4805 14.5206C41.3181 14.5206 42.1201 14.8469 42.7103 15.4255C43.3003 16.004 43.6305 16.787 43.6305 17.602C43.6305 18.4169 43.3003 19.1999 42.7103 19.7784C42.1201 20.357 41.3181 20.6833 40.4805 20.6833Z" fill="white" stroke="#060606" stroke-width="0.7"/>
</g>
</g>
<path d="M1.84375 142.023V0.445312H-0.15625V142.023H1.84375Z" fill="url(#paint0_linear_5498_163552)" mask="url(#path-1-inside-1_5498_163552)"/>
<defs>
<linearGradient id="paint0_linear_5498_163552" x1="104.875" y1="0.445312" x2="104.875" y2="142.023" gradientUnits="userSpaceOnUse">
<stop stop-color="white"/>
<stop offset="1" stop-color="#15161C"/>
</linearGradient>
<clipPath id="clip0_5498_163552">
<path d="M0.84375 0.445312H208.906V142.023H0.84375V0.445312Z" fill="white"/>
</clipPath>
<clipPath id="clip1_5498_163552">
<rect width="42" height="41.1765" fill="white" transform="translate(19.4805 0.445312)"/>
</clipPath>
</defs>
</svg>
