<svg width="210" height="143" viewBox="0 0 210 143" fill="none" xmlns="http://www.w3.org/2000/svg">
<g clip-path="url(#clip0_5498_163554)">
<path d="M35.5028 89.4453C35.3622 89.0149 35.1768 88.6293 34.9467 88.2884C34.7209 87.9432 34.4503 87.6491 34.1349 87.4062C33.8239 87.1634 33.4702 86.978 33.0739 86.8501C32.6776 86.7223 32.2429 86.6584 31.7699 86.6584C30.9943 86.6584 30.2891 86.8587 29.6541 87.2592C29.0192 87.6598 28.5142 88.25 28.1392 89.0298C27.7642 89.8097 27.5767 90.7663 27.5767 91.8999C27.5767 93.0334 27.7663 93.9901 28.1456 94.7699C28.5249 95.5497 29.0384 96.1399 29.6861 96.5405C30.3338 96.9411 31.0625 97.1413 31.8722 97.1413C32.6222 97.1413 33.2827 96.9815 33.8537 96.6619C34.429 96.3381 34.8764 95.8821 35.196 95.294C35.5199 94.7017 35.6818 94.005 35.6818 93.2038L36.1676 93.3061H32.2301V91.8999H37.2159V93.3061C37.2159 94.3842 36.9858 95.3217 36.5256 96.1186C36.0696 96.9155 35.4389 97.5334 34.6335 97.9723C33.8324 98.407 32.9119 98.6243 31.8722 98.6243C30.7131 98.6243 29.6946 98.3516 28.8168 97.8061C27.9432 97.2607 27.2614 96.4851 26.7713 95.4794C26.2855 94.4737 26.0426 93.2805 26.0426 91.8999C26.0426 90.8643 26.1811 89.9332 26.4581 89.1065C26.7393 88.2756 27.1357 87.5682 27.647 86.9844C28.1584 86.4006 28.7635 85.9531 29.4624 85.642C30.1612 85.331 30.9304 85.1754 31.7699 85.1754C32.4602 85.1754 33.1037 85.2798 33.7003 85.4886C34.3011 85.6932 34.8359 85.9851 35.3047 86.3643C35.7777 86.7393 36.1719 87.1889 36.4872 87.7131C36.8026 88.233 37.0199 88.8104 37.1392 89.4453H35.5028ZM39.7264 98.4453V88.6271H41.1838V90.1101H41.286C41.465 89.6243 41.7889 89.2301 42.2576 88.9276C42.7264 88.625 43.2548 88.4737 43.8429 88.4737C43.9537 88.4737 44.0922 88.4759 44.2583 88.4801C44.4245 88.4844 44.5502 88.4908 44.6355 88.4993V90.0334C44.5843 90.0206 44.4672 90.0014 44.2839 89.9759C44.1049 89.946 43.9153 89.9311 43.715 89.9311C43.2377 89.9311 42.8116 90.0312 42.4366 90.2315C42.0659 90.4276 41.7718 90.7003 41.5545 91.0497C41.3414 91.3949 41.2349 91.7891 41.2349 92.2322V98.4453H39.7264ZM50.2413 98.6499C49.2953 98.6499 48.4792 98.4411 47.7931 98.0234C47.1113 97.6016 46.585 97.0135 46.2143 96.2592C45.8478 95.5007 45.6646 94.6186 45.6646 93.6129C45.6646 92.6072 45.8478 91.7209 46.2143 90.9538C46.585 90.1825 47.1007 89.5817 47.7612 89.1513C48.426 88.7166 49.2015 88.4993 50.0879 88.4993C50.5993 88.4993 51.1042 88.5845 51.6028 88.755C52.1014 88.9254 52.5552 89.2024 52.9643 89.5859C53.3734 89.9652 53.6994 90.468 53.9423 91.0945C54.1852 91.7209 54.3066 92.4922 54.3066 93.4084V94.0476H46.7385V92.7436H52.7726C52.7726 92.1896 52.6618 91.6953 52.4402 91.2607C52.2228 90.826 51.9118 90.483 51.5069 90.2315C51.1064 89.9801 50.6333 89.8544 50.0879 89.8544C49.487 89.8544 48.9672 90.0036 48.5282 90.3018C48.0936 90.5959 47.7591 90.9794 47.5247 91.4524C47.2903 91.9254 47.1731 92.4325 47.1731 92.9737V93.843C47.1731 94.5845 47.301 95.2131 47.5566 95.7287C47.8166 96.2401 48.1767 96.63 48.6369 96.8984C49.0971 97.1626 49.6319 97.2947 50.2413 97.2947C50.6376 97.2947 50.9956 97.2393 51.3152 97.1286C51.639 97.0135 51.9181 96.843 52.1525 96.6172C52.3869 96.3871 52.568 96.1016 52.6958 95.7607L54.1532 96.1697C53.9998 96.6641 53.742 97.0987 53.3798 97.4737C53.0176 97.8445 52.5701 98.1342 52.0375 98.343C51.5048 98.5476 50.9061 98.6499 50.2413 98.6499ZM60.7179 98.6499C59.7718 98.6499 58.9558 98.4411 58.2697 98.0234C57.5879 97.6016 57.0616 97.0135 56.6909 96.2592C56.3244 95.5007 56.1412 94.6186 56.1412 93.6129C56.1412 92.6072 56.3244 91.7209 56.6909 90.9538C57.0616 90.1825 57.5772 89.5817 58.2377 89.1513C58.9025 88.7166 59.6781 88.4993 60.5645 88.4993C61.0758 88.4993 61.5808 88.5845 62.0794 88.755C62.5779 88.9254 63.0318 89.2024 63.4409 89.5859C63.85 89.9652 64.176 90.468 64.4189 91.0945C64.6618 91.7209 64.7832 92.4922 64.7832 93.4084V94.0476H57.215V92.7436H63.2491C63.2491 92.1896 63.1383 91.6953 62.9167 91.2607C62.6994 90.826 62.3883 90.483 61.9835 90.2315C61.5829 89.9801 61.1099 89.8544 60.5645 89.8544C59.9636 89.8544 59.4437 90.0036 59.0048 90.3018C58.5701 90.5959 58.2356 90.9794 58.0012 91.4524C57.7669 91.9254 57.6497 92.4325 57.6497 92.9737V93.843C57.6497 94.5845 57.7775 95.2131 58.0332 95.7287C58.2931 96.2401 58.6532 96.63 59.1135 96.8984C59.5737 97.1626 60.1085 97.2947 60.7179 97.2947C61.1142 97.2947 61.4721 97.2393 61.7917 97.1286C62.1156 97.0135 62.3947 96.843 62.6291 96.6172C62.8635 96.3871 63.0446 96.1016 63.1724 95.7607L64.6298 96.1697C64.4764 96.6641 64.2186 97.0987 63.8564 97.4737C63.4941 97.8445 63.0467 98.1342 62.514 98.343C61.9814 98.5476 61.3826 98.6499 60.7179 98.6499ZM68.5865 92.5391V98.4453H67.0779V88.6271H68.5353V90.1612H68.6632C68.8933 89.6626 69.2427 89.2621 69.7115 88.9595C70.1802 88.6527 70.7853 88.4993 71.5268 88.4993C72.1916 88.4993 72.7733 88.6357 73.2718 88.9084C73.7704 89.1768 74.1582 89.5859 74.4352 90.1357C74.7122 90.6811 74.8507 91.3714 74.8507 92.2067V98.4453H73.3422V92.3089C73.3422 91.5376 73.1419 90.9368 72.7413 90.5064C72.3407 90.0717 71.791 89.8544 71.0922 89.8544C70.6106 89.8544 70.1802 89.9588 69.801 90.1676C69.426 90.3764 69.1298 90.6811 68.9125 91.0817C68.6951 91.4822 68.5865 91.968 68.5865 92.5391ZM82.8743 98.4453V85.3544H90.7749V86.7607H84.4595V91.1839H90.3658V92.5902H84.4595V97.0391H90.8771V98.4453H82.8743ZM97.4162 98.6499C96.4957 98.6499 95.7031 98.4325 95.0384 97.9979C94.3736 97.5632 93.8622 96.9645 93.5043 96.2017C93.1463 95.4389 92.9673 94.5675 92.9673 93.5874C92.9673 92.5902 93.1506 91.7102 93.517 90.9474C93.8878 90.1804 94.4034 89.5817 95.0639 89.1513C95.7287 88.7166 96.5043 88.4993 97.3906 88.4993C98.081 88.4993 98.7031 88.6271 99.2571 88.8828C99.8111 89.1385 100.265 89.4964 100.619 89.9567C100.972 90.4169 101.192 90.9538 101.277 91.5675H99.7685C99.6534 91.12 99.3977 90.7237 99.0014 90.3786C98.6094 90.0291 98.081 89.8544 97.4162 89.8544C96.8281 89.8544 96.3125 90.0078 95.8693 90.3146C95.4304 90.6172 95.0874 91.0455 94.8402 91.5994C94.5973 92.1491 94.4759 92.7947 94.4759 93.5362C94.4759 94.2947 94.5952 94.9553 94.8338 95.5178C95.0767 96.0803 95.4176 96.517 95.8565 96.8281C96.2997 97.1392 96.8196 97.2947 97.4162 97.2947C97.8082 97.2947 98.1641 97.2266 98.4837 97.0902C98.8033 96.9538 99.0739 96.7578 99.2955 96.5021C99.517 96.2464 99.6747 95.9396 99.7685 95.5817H101.277C101.192 96.1612 100.981 96.6832 100.644 97.1477C100.312 97.608 99.8707 97.9744 99.321 98.2472C98.7756 98.5156 98.1406 98.6499 97.4162 98.6499ZM107.471 98.6499C106.585 98.6499 105.807 98.4389 105.138 98.017C104.473 97.5952 103.953 97.005 103.578 96.2464C103.207 95.4879 103.022 94.6016 103.022 93.5874C103.022 92.5646 103.207 91.6719 103.578 90.9091C103.953 90.1463 104.473 89.554 105.138 89.1321C105.807 88.7102 106.585 88.4993 107.471 88.4993C108.357 88.4993 109.133 88.7102 109.798 89.1321C110.467 89.554 110.987 90.1463 111.357 90.9091C111.732 91.6719 111.92 92.5646 111.92 93.5874C111.92 94.6016 111.732 95.4879 111.357 96.2464C110.987 97.005 110.467 97.5952 109.798 98.017C109.133 98.4389 108.357 98.6499 107.471 98.6499ZM107.471 97.2947C108.144 97.2947 108.698 97.1222 109.133 96.777C109.567 96.4318 109.889 95.978 110.098 95.4155C110.307 94.853 110.411 94.2436 110.411 93.5874C110.411 92.9311 110.307 92.3196 110.098 91.7528C109.889 91.1861 109.567 90.728 109.133 90.3786C108.698 90.0291 108.144 89.8544 107.471 89.8544C106.798 89.8544 106.244 90.0291 105.809 90.3786C105.374 90.728 105.053 91.1861 104.844 91.7528C104.635 92.3196 104.531 92.9311 104.531 93.5874C104.531 94.2436 104.635 94.853 104.844 95.4155C105.053 95.978 105.374 96.4318 105.809 96.777C106.244 97.1222 106.798 97.2947 107.471 97.2947ZM115.731 92.5391V98.4453H114.222V88.6271H115.68V90.1612H115.808C116.038 89.6626 116.387 89.2621 116.856 88.9595C117.325 88.6527 117.93 88.4993 118.671 88.4993C119.336 88.4993 119.918 88.6357 120.416 88.9084C120.915 89.1768 121.303 89.5859 121.58 90.1357C121.857 90.6811 121.995 91.3714 121.995 92.2067V98.4453H120.487V92.3089C120.487 91.5376 120.286 90.9368 119.886 90.5064C119.485 90.0717 118.936 89.8544 118.237 89.8544C117.755 89.8544 117.325 89.9588 116.945 90.1676C116.57 90.3764 116.274 90.6811 116.057 91.0817C115.84 91.4822 115.731 91.968 115.731 92.5391ZM128.74 98.6499C127.854 98.6499 127.076 98.4389 126.407 98.017C125.743 97.5952 125.223 97.005 124.848 96.2464C124.477 95.4879 124.292 94.6016 124.292 93.5874C124.292 92.5646 124.477 91.6719 124.848 90.9091C125.223 90.1463 125.743 89.554 126.407 89.1321C127.076 88.7102 127.854 88.4993 128.74 88.4993C129.627 88.4993 130.402 88.7102 131.067 89.1321C131.736 89.554 132.256 90.1463 132.627 90.9091C133.002 91.6719 133.189 92.5646 133.189 93.5874C133.189 94.6016 133.002 95.4879 132.627 96.2464C132.256 97.005 131.736 97.5952 131.067 98.017C130.402 98.4389 129.627 98.6499 128.74 98.6499ZM128.74 97.2947C129.414 97.2947 129.968 97.1222 130.402 96.777C130.837 96.4318 131.159 95.978 131.368 95.4155C131.576 94.853 131.681 94.2436 131.681 93.5874C131.681 92.9311 131.576 92.3196 131.368 91.7528C131.159 91.1861 130.837 90.728 130.402 90.3786C129.968 90.0291 129.414 89.8544 128.74 89.8544C128.067 89.8544 127.513 90.0291 127.078 90.3786C126.644 90.728 126.322 91.1861 126.113 91.7528C125.904 92.3196 125.8 92.9311 125.8 93.5874C125.8 94.2436 125.904 94.853 126.113 95.4155C126.322 95.978 126.644 96.4318 127.078 96.777C127.513 97.1222 128.067 97.2947 128.74 97.2947ZM135.492 98.4453V88.6271H136.949V90.1612H137.077C137.282 89.6371 137.612 89.2301 138.068 88.9403C138.524 88.6463 139.072 88.4993 139.711 88.4993C140.358 88.4993 140.898 88.6463 141.328 88.9403C141.763 89.2301 142.101 89.6371 142.344 90.1612H142.447C142.698 89.6541 143.075 89.2514 143.578 88.9531C144.081 88.6506 144.684 88.4993 145.387 88.4993C146.265 88.4993 146.983 88.7741 147.541 89.3239C148.099 89.8693 148.378 90.7195 148.378 91.8743V98.4453H146.87V91.8743C146.87 91.1499 146.672 90.6321 146.275 90.321C145.879 90.0099 145.412 89.8544 144.876 89.8544C144.185 89.8544 143.65 90.0632 143.271 90.4808C142.892 90.8942 142.702 91.4183 142.702 92.0533V98.4453H141.168V91.7209C141.168 91.1626 140.987 90.7131 140.625 90.3722C140.263 90.027 139.796 89.8544 139.225 89.8544C138.833 89.8544 138.466 89.9588 138.126 90.1676C137.789 90.3764 137.516 90.6662 137.307 91.0369C137.103 91.4034 137.001 91.8274 137.001 92.3089V98.4453H135.492ZM151.757 102.127C151.501 102.127 151.273 102.106 151.073 102.063C150.872 102.025 150.734 101.987 150.657 101.948L151.041 100.619C151.407 100.712 151.731 100.746 152.012 100.721C152.294 100.695 152.543 100.57 152.76 100.344C152.982 100.122 153.184 99.7621 153.367 99.2635L153.649 98.4964L150.018 88.6271H151.654L154.365 96.451H154.467L157.177 88.6271H158.813L154.646 99.8771C154.458 100.384 154.226 100.804 153.949 101.136C153.672 101.473 153.35 101.722 152.984 101.884C152.622 102.046 152.213 102.127 151.757 102.127ZM30.5938 122.445H26.554V109.354H30.7727C32.0426 109.354 33.1293 109.616 34.0327 110.141C34.9361 110.661 35.6286 111.408 36.1101 112.384C36.5916 113.356 36.8324 114.519 36.8324 115.874C36.8324 117.238 36.5895 118.412 36.1037 119.396C35.6179 120.376 34.9105 121.131 33.9815 121.659C33.0526 122.183 31.9233 122.445 30.5938 122.445ZM28.1392 121.039H30.4915C31.5739 121.039 32.4709 120.83 33.1825 120.413C33.8942 119.995 34.4247 119.401 34.7741 118.629C35.1236 117.858 35.2983 116.94 35.2983 115.874C35.2983 114.817 35.1257 113.908 34.7805 113.145C34.4354 112.378 33.9197 111.79 33.2337 111.381C32.5476 110.967 31.6932 110.761 30.6705 110.761H28.1392V121.039ZM39.2869 122.445V112.627H40.7955V122.445H39.2869ZM40.054 110.991C39.7599 110.991 39.5064 110.891 39.2933 110.69C39.0845 110.49 38.9801 110.249 38.9801 109.968C38.9801 109.687 39.0845 109.446 39.2933 109.246C39.5064 109.045 39.7599 108.945 40.054 108.945C40.348 108.945 40.5994 109.045 40.8082 109.246C41.0213 109.446 41.1278 109.687 41.1278 109.968C41.1278 110.249 41.0213 110.49 40.8082 110.69C40.5994 110.891 40.348 110.991 40.054 110.991ZM46.4476 122.675C45.8255 122.675 45.2608 122.558 44.7537 122.324C44.2466 122.085 43.8439 121.742 43.5456 121.295C43.2473 120.843 43.0982 120.298 43.0982 119.658C43.0982 119.096 43.209 118.64 43.4306 118.29C43.6522 117.937 43.9483 117.66 44.3191 117.46C44.6898 117.259 45.0989 117.11 45.5463 117.012C45.998 116.91 46.4519 116.829 46.9078 116.769C47.5044 116.692 47.9881 116.635 48.3588 116.597C48.7338 116.554 49.0066 116.484 49.177 116.386C49.3517 116.288 49.4391 116.117 49.4391 115.874V115.823C49.4391 115.192 49.2665 114.702 48.9213 114.353C48.5804 114.004 48.0627 113.829 47.3681 113.829C46.6479 113.829 46.0833 113.987 45.6742 114.302C45.2651 114.617 44.9775 114.954 44.8113 115.312L43.3794 114.8C43.6351 114.204 43.976 113.739 44.4022 113.407C44.8326 113.07 45.3013 112.836 45.8084 112.704C46.3198 112.567 46.8226 112.499 47.3169 112.499C47.6323 112.499 47.9945 112.538 48.4036 112.614C48.8169 112.687 49.2154 112.838 49.5989 113.068C49.9867 113.298 50.3084 113.646 50.5641 114.11C50.8198 114.575 50.9476 115.197 50.9476 115.977V122.445H49.4391V121.116H49.3624C49.2601 121.329 49.0897 121.557 48.851 121.8C48.6124 122.043 48.2949 122.249 47.8986 122.42C47.5023 122.59 47.0186 122.675 46.4476 122.675ZM46.6777 121.32C47.2743 121.32 47.7772 121.203 48.1863 120.969C48.5996 120.734 48.9107 120.432 49.1195 120.061C49.3326 119.69 49.4391 119.3 49.4391 118.891V117.511C49.3752 117.587 49.2346 117.658 49.0172 117.722C48.8042 117.781 48.557 117.835 48.2757 117.881C47.9988 117.924 47.7282 117.962 47.464 117.996C47.204 118.026 46.9931 118.052 46.8311 118.073C46.4391 118.124 46.0726 118.207 45.7317 118.322C45.3951 118.433 45.1223 118.602 44.9135 118.827C44.709 119.049 44.6067 119.352 44.6067 119.735C44.6067 120.259 44.8006 120.656 45.1884 120.924C45.5804 121.188 46.0769 121.32 46.6777 121.32ZM57.6641 126.332C56.9354 126.332 56.3089 126.238 55.7848 126.05C55.2607 125.867 54.8239 125.624 54.4744 125.322C54.1293 125.023 53.8544 124.704 53.6499 124.363L54.8516 123.519C54.9879 123.698 55.1605 123.903 55.3693 124.133C55.5781 124.367 55.8636 124.57 56.2259 124.74C56.5923 124.915 57.0717 125.002 57.6641 125.002C58.4567 125.002 59.1108 124.81 59.6264 124.427C60.142 124.043 60.3999 123.442 60.3999 122.624V120.63H60.272C60.1612 120.809 60.0036 121.031 59.799 121.295C59.5987 121.555 59.3089 121.787 58.9297 121.991C58.5547 122.192 58.0476 122.292 57.4084 122.292C56.6158 122.292 55.9041 122.104 55.2734 121.729C54.647 121.354 54.1506 120.809 53.7841 120.093C53.4219 119.377 53.2408 118.508 53.2408 117.485C53.2408 116.479 53.4176 115.604 53.7713 114.858C54.125 114.108 54.6172 113.528 55.2479 113.119C55.8786 112.706 56.6072 112.499 57.4339 112.499C58.0732 112.499 58.5803 112.606 58.9553 112.819C59.3345 113.028 59.6243 113.266 59.8246 113.535C60.0291 113.799 60.1868 114.016 60.2976 114.187H60.451V112.627H61.9084V122.727C61.9084 123.57 61.7166 124.256 61.3331 124.785C60.9538 125.317 60.4425 125.707 59.799 125.955C59.1598 126.206 58.4482 126.332 57.6641 126.332ZM57.6129 120.937C58.218 120.937 58.7294 120.798 59.147 120.521C59.5646 120.244 59.8821 119.846 60.0994 119.326C60.3168 118.806 60.4254 118.184 60.4254 117.46C60.4254 116.752 60.3189 116.128 60.1058 115.587C59.8928 115.045 59.5774 114.621 59.1598 114.315C58.7422 114.008 58.2266 113.854 57.6129 113.854C56.9737 113.854 56.4411 114.016 56.0149 114.34C55.593 114.664 55.2756 115.099 55.0625 115.644C54.8537 116.19 54.7493 116.795 54.7493 117.46C54.7493 118.141 54.8558 118.744 55.0689 119.268C55.2862 119.788 55.6058 120.197 56.0277 120.496C56.4538 120.79 56.9822 120.937 57.6129 120.937ZM66.1783 116.539V122.445H64.6697V112.627H66.1271V114.161H66.255C66.4851 113.663 66.8345 113.262 67.3033 112.96C67.772 112.653 68.3771 112.499 69.1186 112.499C69.7834 112.499 70.3651 112.636 70.8636 112.908C71.3622 113.177 71.75 113.586 72.027 114.136C72.304 114.681 72.4425 115.371 72.4425 116.207V122.445H70.9339V116.309C70.9339 115.538 70.7337 114.937 70.3331 114.506C69.9325 114.072 69.3828 113.854 68.6839 113.854C68.2024 113.854 67.772 113.959 67.3928 114.168C67.0178 114.376 66.7216 114.681 66.5043 115.082C66.2869 115.482 66.1783 115.968 66.1783 116.539ZM79.1877 122.65C78.3013 122.65 77.5236 122.439 76.8546 122.017C76.1898 121.595 75.6699 121.005 75.2949 120.246C74.9242 119.488 74.7388 118.602 74.7388 117.587C74.7388 116.565 74.9242 115.672 75.2949 114.909C75.6699 114.146 76.1898 113.554 76.8546 113.132C77.5236 112.71 78.3013 112.499 79.1877 112.499C80.074 112.499 80.8496 112.71 81.5144 113.132C82.1834 113.554 82.7033 114.146 83.074 114.909C83.449 115.672 83.6365 116.565 83.6365 117.587C83.6365 118.602 83.449 119.488 83.074 120.246C82.7033 121.005 82.1834 121.595 81.5144 122.017C80.8496 122.439 80.074 122.65 79.1877 122.65ZM79.1877 121.295C79.861 121.295 80.415 121.122 80.8496 120.777C81.2843 120.432 81.606 119.978 81.8148 119.415C82.0236 118.853 82.128 118.244 82.128 117.587C82.128 116.931 82.0236 116.32 81.8148 115.753C81.606 115.186 81.2843 114.728 80.8496 114.379C80.415 114.029 79.861 113.854 79.1877 113.854C78.5144 113.854 77.9604 114.029 77.5257 114.379C77.0911 114.728 76.7694 115.186 76.5605 115.753C76.3517 116.32 76.2473 116.931 76.2473 117.587C76.2473 118.244 76.3517 118.853 76.5605 119.415C76.7694 119.978 77.0911 120.432 77.5257 120.777C77.9604 121.122 78.5144 121.295 79.1877 121.295ZM92.8938 114.826L91.5387 115.21C91.4535 114.984 91.3278 114.764 91.1616 114.551C90.9996 114.334 90.7781 114.155 90.4968 114.014C90.2156 113.874 89.8555 113.803 89.4165 113.803C88.8157 113.803 88.315 113.942 87.9144 114.219C87.5181 114.491 87.32 114.839 87.32 115.261C87.32 115.636 87.4563 115.932 87.729 116.149C88.0018 116.366 88.4279 116.548 89.0075 116.692L90.4648 117.05C91.3427 117.263 91.9968 117.589 92.4272 118.028C92.8576 118.463 93.0728 119.023 93.0728 119.71C93.0728 120.272 92.9109 120.775 92.587 121.218C92.2674 121.661 91.82 122.011 91.2447 122.266C90.6694 122.522 90.0004 122.65 89.2376 122.65C88.2362 122.65 87.4073 122.433 86.7511 121.998C86.0948 121.563 85.6793 120.928 85.5046 120.093L86.9364 119.735C87.0728 120.263 87.3306 120.66 87.7099 120.924C88.0934 121.188 88.5941 121.32 89.212 121.32C89.9151 121.32 90.4734 121.171 90.8867 120.873C91.3043 120.57 91.5131 120.208 91.5131 119.786C91.5131 119.445 91.3938 119.16 91.1552 118.93C90.9165 118.695 90.5501 118.521 90.0558 118.406L88.4194 118.022C87.5202 117.809 86.8597 117.479 86.4379 117.031C86.0202 116.58 85.8114 116.015 85.8114 115.337C85.8114 114.783 85.967 114.293 86.2781 113.867C86.5934 113.441 87.0217 113.107 87.5629 112.864C88.1083 112.621 88.7262 112.499 89.4165 112.499C90.3881 112.499 91.1509 112.712 91.7049 113.138C92.2631 113.565 92.6594 114.127 92.8938 114.826ZM99.6135 112.627V113.906H94.5254V112.627H99.6135ZM96.0083 110.275H97.5169V119.633C97.5169 120.059 97.5787 120.379 97.7022 120.592C97.8301 120.8 97.992 120.941 98.188 121.013C98.3883 121.082 98.5993 121.116 98.8208 121.116C98.987 121.116 99.1234 121.107 99.2299 121.09C99.3365 121.069 99.4217 121.052 99.4856 121.039L99.7924 122.394C99.6902 122.433 99.5474 122.471 99.3642 122.509C99.1809 122.552 98.9487 122.573 98.6674 122.573C98.2413 122.573 97.8237 122.482 97.4146 122.298C97.0098 122.115 96.6731 121.836 96.4047 121.461C96.1404 121.086 96.0083 120.613 96.0083 120.042V110.275ZM101.883 122.445V112.627H103.391V122.445H101.883ZM102.65 110.991C102.356 110.991 102.102 110.891 101.889 110.69C101.68 110.49 101.576 110.249 101.576 109.968C101.576 109.687 101.68 109.446 101.889 109.246C102.102 109.045 102.356 108.945 102.65 108.945C102.944 108.945 103.195 109.045 103.404 109.246C103.617 109.446 103.724 109.687 103.724 109.968C103.724 110.249 103.617 110.49 103.404 110.69C103.195 110.891 102.944 110.991 102.65 110.991ZM110.143 122.65C109.222 122.65 108.43 122.433 107.765 121.998C107.1 121.563 106.589 120.964 106.231 120.202C105.873 119.439 105.694 118.567 105.694 117.587C105.694 116.59 105.877 115.71 106.244 114.947C106.614 114.18 107.13 113.582 107.79 113.151C108.455 112.717 109.231 112.499 110.117 112.499C110.808 112.499 111.43 112.627 111.984 112.883C112.538 113.138 112.991 113.496 113.345 113.957C113.699 114.417 113.918 114.954 114.004 115.567H112.495C112.38 115.12 112.124 114.724 111.728 114.379C111.336 114.029 110.808 113.854 110.143 113.854C109.555 113.854 109.039 114.008 108.596 114.315C108.157 114.617 107.814 115.045 107.567 115.599C107.324 116.149 107.202 116.795 107.202 117.536C107.202 118.295 107.322 118.955 107.56 119.518C107.803 120.08 108.144 120.517 108.583 120.828C109.026 121.139 109.546 121.295 110.143 121.295C110.535 121.295 110.891 121.227 111.21 121.09C111.53 120.954 111.8 120.758 112.022 120.502C112.244 120.246 112.401 119.94 112.495 119.582H114.004C113.918 120.161 113.707 120.683 113.371 121.148C113.038 121.608 112.597 121.974 112.048 122.247C111.502 122.516 110.867 122.65 110.143 122.65Z" fill="white"/>
<g opacity="0.89" clip-path="url(#clip1_5498_163554)">
<path d="M51.2891 23.045L53.7894 27.2899L53.7896 27.2902C54.6128 28.6914 54.1218 30.4825 52.6975 31.2876L52.6971 31.2879C52.246 31.5419 51.7337 31.6778 51.2128 31.6778H47.6043H47.2543V31.3278V27.7033L39.4728 33.0435L47.2543 38.3837L47.2543 34.7592V34.4092H47.6043H51.2145C52.2286 34.4092 53.2244 34.1469 54.1046 33.6499L51.2891 23.045ZM51.2891 23.045L53.7107 21.6742L56.2154 25.9294L56.2155 25.9295C57.8066 28.63 56.8651 32.087 54.1049 33.6497L51.2891 23.045ZM26.6664 22.3813L23.4762 20.5761L32.0814 16.64L32.9061 25.9148L29.6993 24.0987L29.3998 23.9291L29.2252 24.2257L27.4212 27.2895C27.4211 27.2896 27.4211 27.2896 27.4211 27.2897C27.1582 27.7349 27.0208 28.2406 27.0208 28.7543C27.0208 30.3745 28.3581 31.6778 29.9958 31.6778L35.0043 31.6778L35.0043 34.4092H29.9958C26.7998 34.4092 24.2208 31.8709 24.2208 28.7543C24.2208 27.7637 24.4874 26.7887 24.9932 25.9294L24.9933 25.9292L26.7958 22.8633L26.9761 22.5565L26.6664 22.3813ZM35.6034 7.91465C37.1781 5.23942 40.6532 4.29792 43.4053 5.79352L43.4944 5.84394C44.3725 6.3407 45.1012 7.05544 45.6069 7.91465L47.4094 10.9771L47.5839 11.2737L47.8834 11.1042L51.0939 9.28777L50.2693 18.5639L41.6622 14.6284L44.8542 12.8216L45.164 12.6462L44.9834 12.3394L43.1791 9.27521L43.1789 9.27483C42.9165 8.83046 42.5412 8.46284 42.0896 8.2065L42.0892 8.2063C40.671 7.4035 38.8525 7.87778 38.0295 9.27518L35.5231 13.5305L33.1014 12.1597L35.6033 7.91483L35.6034 7.91465Z" fill="white" stroke="#060606" stroke-width="0.7"/>
</g>
</g>
<path d="M1.96875 142.023V0.445312H-0.03125V142.023H1.96875Z" fill="url(#paint0_linear_5498_163554)" mask="url(#path-1-inside-1_5498_163554)"/>
<defs>
<linearGradient id="paint0_linear_5498_163554" x1="105" y1="0.445312" x2="105" y2="142.023" gradientUnits="userSpaceOnUse">
<stop stop-color="white"/>
<stop offset="1" stop-color="#15161C"/>
</linearGradient>
<clipPath id="clip0_5498_163554">
<path d="M0.96875 0.445312H209.031V142.023H0.96875V0.445312Z" fill="white"/>
</clipPath>
<clipPath id="clip1_5498_163554">
<rect width="42" height="41.1765" fill="white" transform="translate(19.6055 0.445312)"/>
</clipPath>
</defs>
</svg>
