<svg width="182" height="37" viewBox="0 0 182 37" fill="none" xmlns="http://www.w3.org/2000/svg">
<g clip-path="url(#clip0_5498_163267)">
<mask id="mask0_5498_163267" style="mask-type:luminance" maskUnits="userSpaceOnUse" x="0" y="0" width="36" height="37">
<path d="M21.995 29.9965C24.352 29.9675 26.589 29.6225 28.569 28.9575C29.067 28.7895 29.543 28.6035 29.993 28.4025C29.442 29.7475 28.633 30.8695 27.578 31.7035C25.497 33.2355 23.042 34.2865 20.377 34.6875C21.043 33.5355 21.581 31.9075 21.995 29.9965ZM10.902 33.2645C10.853 33.2235 10.8 33.1855 10.74 33.1575C9.813 32.7055 9.438 30.6385 9.921 27.4775C11.703 28.2785 13.643 28.9135 15.682 29.3485C17.227 29.6785 18.767 29.8825 20.272 29.9615C19.534 33.1695 18.588 34.8545 17.961 34.8545C17.921 34.8545 17.882 34.8615 17.844 34.8675C15.36 34.8505 13.006 34.2795 10.902 33.2645ZM2.295 23.0455C2.152 22.5035 2.063 21.9505 2.026 21.3885C2.584 22.1825 3.263 22.9565 4.072 23.7045C5.294 24.8325 6.744 25.8425 8.36 26.7085C8.03 28.5545 7.937 30.2275 8.145 31.5755C5.36 29.4695 3.276 26.4885 2.295 23.0455ZM23.046 18.5625C23.046 17.9105 23.036 17.2555 23.017 16.6035C25.094 16.4655 27.017 15.9255 28.591 15.0205C30.049 17.9045 30.831 20.9475 30.825 23.8195C30.824 24.6515 30.752 25.4425 30.62 26.1895C29.87 26.6485 29.007 27.0465 28.036 27.3745C26.312 27.9545 24.37 28.2705 22.311 28.3235C22.807 25.3565 23.046 21.9115 23.046 18.5625ZM16.032 27.7175C13.964 27.2745 12.01 26.6175 10.241 25.7865C10.822 23.1725 11.904 20.0055 13.618 16.4895C13.867 15.9805 14.121 15.4795 14.38 14.9895C15.579 15.5275 16.884 15.9545 18.252 16.2465C19.291 16.4695 20.331 16.5905 21.348 16.6255C21.367 17.2515 21.375 17.8965 21.375 18.5625C21.375 22.4935 21.061 25.7565 20.607 28.3065C19.115 28.2415 17.578 28.0465 16.032 27.7175ZM5.206 22.4795C3.788 21.1695 2.813 19.7815 2.316 18.4035C2.71 16.8595 3.472 15.3095 4.593 13.8245C5.656 12.4165 6.979 11.1485 8.496 10.0585C8.934 10.8495 9.547 11.6215 10.328 12.3535C11.07 13.0485 11.935 13.6785 12.894 14.2295C12.63 14.7305 12.372 15.2395 12.12 15.7575C10.639 18.7925 9.43 22.0495 8.72 25.0035C7.401 24.2605 6.216 23.4145 5.206 22.4795ZM21.912 6.96651C23.81 8.37951 25.55 10.2025 27.005 12.3345C27.281 12.7385 27.541 13.1495 27.788 13.5645C26.455 14.3355 24.767 14.7965 22.948 14.9255C22.794 12.0445 22.453 9.27251 21.912 6.96651ZM18.602 14.6145C17.394 14.3575 16.246 13.9865 15.188 13.5215C16.746 10.7965 18.449 8.42751 20.13 6.66651C20.655 8.73251 21.095 11.5105 21.281 14.9545C20.396 14.9175 19.496 14.8065 18.602 14.6145ZM11.469 11.1355C10.778 10.4895 10.254 9.81551 9.901 9.13851C11.465 8.19751 13.196 7.43051 15.04 6.87551C16.137 6.54551 17.247 6.30151 18.354 6.13251C16.756 7.92351 15.16 10.1985 13.697 12.7685C12.861 12.2855 12.112 11.7385 11.469 11.1355ZM7.879 5.81651C7.856 5.90051 7.832 5.98651 7.813 6.07451C7.644 6.86151 7.664 7.66851 7.862 8.46851C6.066 9.70751 4.504 11.1725 3.26 12.8185C2.881 13.3195 2.542 13.8315 2.235 14.3465C3.16 10.9285 5.172 7.95451 7.879 5.81651ZM9.445 6.42251C9.63 5.55651 10.151 4.78251 10.956 4.14251C12.905 3.56051 15.172 3.70051 17.555 4.57251C16.552 4.74651 15.549 4.97851 14.56 5.27751C12.719 5.82951 10.981 6.58551 9.389 7.50351C9.353 7.13851 9.37 6.77651 9.445 6.42251ZM22.988 4.22351C23.561 3.85251 24.089 3.59851 24.53 3.49351C25.367 3.82851 26.197 4.25751 26.984 4.79951C25.721 4.48351 24.378 4.29151 22.988 4.22351ZM20.176 2.43651C20.853 2.51251 21.576 2.62851 22.319 2.80151C21.854 3.05151 21.372 3.36351 20.881 3.73851C20.663 3.24551 20.428 2.81151 20.176 2.43651ZM18.367 3.09151C17.612 2.80251 16.866 2.57851 16.13 2.41851C16.72 2.35251 17.317 2.31451 17.925 2.31451C18.209 2.31751 18.558 2.65951 18.923 3.32051C18.738 3.24151 18.553 3.16351 18.367 3.09151ZM0 18.5915C0 20.2975 0.244999 21.9465 0.691999 23.5115C0.718999 23.6165 0.745001 23.7215 0.776001 23.8265C0.782001 23.8455 0.791 23.8635 0.798 23.8845C3.062 31.2055 9.894 36.5385 17.948 36.5385C21.674 36.5385 25.137 35.3965 28.009 33.4465C28.038 33.4295 28.067 33.4155 28.093 33.3975C28.263 33.2815 28.428 33.1595 28.588 33.0315C31.891 30.5925 34.329 27.0495 35.357 22.9505C35.415 22.7625 35.465 22.5705 35.507 22.3765C35.517 22.3295 35.52 22.2855 35.522 22.2395C35.767 21.0605 35.895 19.8405 35.895 18.5925C35.895 16.1705 35.421 13.8195 34.484 11.6075C34.304 11.1825 33.815 10.9835 33.39 11.1645C32.965 11.3425 32.767 11.8335 32.946 12.2575C33.795 14.2625 34.225 16.3945 34.225 18.5925C34.225 19.9395 34.058 21.2475 33.747 22.5005C33.5 23.2905 33.067 24.0215 32.468 24.6855C32.483 24.4025 32.492 24.1165 32.493 23.8235C32.5 20.6215 31.614 17.2395 29.972 14.0605C31.176 13.0265 31.945 11.7485 32.208 10.3195C32.292 9.86651 31.992 9.43151 31.539 9.34751C31.085 9.26251 30.65 9.56251 30.566 10.0165C30.392 10.9615 29.901 11.8285 29.133 12.5645C28.894 12.1695 28.646 11.7785 28.383 11.3935C26.918 9.24551 25.177 7.38751 23.272 5.90451C25.787 6.07051 28.111 6.67951 29.983 7.72551C30.276 7.89251 30.666 7.88751 30.941 7.65851C31.295 7.36351 31.343 6.83551 31.046 6.48151C28.357 2.72051 23.706 0.645508 17.946 0.645508C8.052 0.644508 0 8.69551 0 18.5915Z" fill="white"/>
</mask>
<g mask="url(#mask0_5498_163267)">
<path d="M35.895 0.644531H0V36.5385H35.895V0.644531Z" fill="url(#paint0_radial_5498_163267)"/>
</g>
<path d="M43.0312 29.5394V23.4424H44.2333V29.5394H43.0312Z" fill="#00AEEF"/>
<path d="M45.3047 29.5394V23.4424H47.6117C48.8587 23.4424 49.5797 23.9144 49.5797 25.0524C49.5797 26.1334 48.9367 26.3184 48.6307 26.3184V26.3344C49.0397 26.3344 49.9907 26.6924 49.9907 27.8294C49.9907 29.1034 48.9887 29.5394 47.8647 29.5394H45.3047ZM47.4737 25.9874C48.1257 25.9874 48.3437 25.6644 48.3437 25.1944C48.3437 24.7054 48.0207 24.4194 47.3057 24.4194H46.5047V25.9874H47.4737ZM47.6017 28.5634C48.2037 28.5634 48.6577 28.3744 48.6577 27.7024C48.6577 27.0744 48.1947 26.8324 47.5777 26.8324H46.5057V28.5634H47.6017Z" fill="#00AEEF"/>
<path d="M55.8051 29.5224C55.8051 29.5224 55.5801 29.5824 55.1781 29.5824C53.3311 29.5824 53.8371 27.2574 52.5471 27.2574H51.9051V29.5394H50.7031V23.4424H52.8441C54.3421 23.4424 55.1441 23.9924 55.1441 25.3604C55.1441 26.2574 54.5601 26.7334 54.0891 26.9094C54.7161 27.4234 54.7521 28.6064 55.5521 28.6064H55.8041L55.8051 29.5224ZM52.7051 26.3524C53.4291 26.3524 53.9601 26.0194 53.9601 25.3944C53.9601 24.7854 53.5331 24.4164 52.8021 24.4164H51.9051V26.3524H52.7051Z" fill="#00AEEF"/>
<path d="M56.3359 29.5394V23.4424H58.1219C59.7229 23.4424 61.1519 24.3064 61.1519 26.5964C61.1519 28.7644 59.8619 29.5384 58.3809 29.5384H56.3359V29.5394ZM58.3719 28.5634C59.3059 28.5634 59.9569 27.8844 59.9569 26.5784C59.9569 25.2274 59.3839 24.4174 58.1029 24.4174H57.5369V28.5634H58.3719Z" fill="#00AEEF"/>
<path d="M64.7207 28.1468C64.0937 28.1468 63.5977 27.6418 63.5977 27.0138C63.5977 26.3868 64.0937 25.8828 64.7207 25.8828C65.3467 25.8828 65.8517 26.3868 65.8517 27.0138C65.8517 27.6418 65.3467 28.1468 64.7207 28.1468Z" fill="#00AEEF"/>
<path d="M68.5781 29.5394V23.4424H69.7801V29.5394H68.5781Z" fill="#00AEEF"/>
<path d="M70.8477 29.5394V23.4424H72.6327C74.2357 23.4424 75.6637 24.3064 75.6637 26.5964C75.6637 28.7644 74.3757 29.5384 72.8947 29.5384H70.8477V29.5394ZM72.8867 28.5634C73.8197 28.5634 74.4737 27.8844 74.4737 26.5784C74.4737 25.2274 73.8987 24.4174 72.6187 24.4174H72.0527V28.5634H72.8867Z" fill="#00AEEF"/>
<path d="M79.638 28.0174H77.475L76.961 29.5384H75.707L77.946 23.4424H79.173L81.412 29.5384H80.167L79.638 28.0174ZM77.799 27.1014H79.332L78.557 24.8884L77.799 27.1014Z" fill="#00AEEF"/>
<path d="M39.8438 8.64648H48.9057V10.5055H45.5778V19.8295H43.1748V10.5055H39.8447L39.8438 8.64648Z" fill="#002F54"/>
<path d="M50.1797 19.8295V8.64648H52.5817V13.0605H56.8107V8.64648H59.2417V19.8295H56.8417V14.9185H52.5817V19.8295H50.1797Z" fill="#002F54"/>
<path d="M61.1953 8.64648H68.6933V10.5055H63.5983V13.1235H68.3693V14.9815H63.5983V17.9715H68.8643V19.8295H61.1963L61.1953 8.64648Z" fill="#002F54"/>
<path d="M80.6226 8.64648H83.3316L85.2836 17.0575H85.3146L87.1126 8.64648H89.4046L86.5546 19.8295H83.8916L81.8786 11.3095H81.8476L79.6766 19.8295H76.9526L74.2266 8.64648H76.7056L78.4236 17.0575H78.4566L80.6226 8.64648Z" fill="#002F54"/>
<path d="M90.2227 14.2381C90.2227 10.9391 91.8947 8.41211 95.5957 8.41211C99.2957 8.41211 100.971 10.9381 100.971 14.2381C100.971 17.5381 99.2957 20.0601 95.5957 20.0601C91.8927 20.0601 90.2227 17.5371 90.2227 14.2381ZM92.7757 14.2381C92.7757 16.1561 93.2257 18.3251 95.5947 18.3251C97.9647 18.3251 98.4147 16.1561 98.4147 14.2381C98.4147 12.3161 97.9647 10.1461 95.5947 10.1461C93.2257 10.1461 92.7757 12.3171 92.7757 14.2381Z" fill="#002F54"/>
<path d="M104.957 19.8295H102.555V8.64648H107.309C109.231 8.66148 111.198 9.28048 111.198 11.5595C111.198 13.0145 110.253 13.9765 108.875 14.2695V14.3015C110.719 14.5025 110.719 15.6325 110.92 17.1825C111.03 17.8955 111.121 19.2125 111.57 19.8295H108.921C108.721 18.8395 108.611 17.8325 108.504 16.8245C108.441 16.2065 108.285 15.3545 107.497 15.3245H104.958V19.8295H104.957ZM104.957 13.4635H106.968C108.024 13.4455 108.642 12.9215 108.642 11.9285C108.642 10.9385 108.024 10.5195 106.968 10.5045H104.957V13.4635Z" fill="#002F54"/>
<path d="M113.031 19.8295V8.64648H115.433V17.9715H120.281V19.8295H113.031Z" fill="#002F54"/>
<path d="M121.582 8.64589H125.394C128.877 8.61589 131.046 10.3489 131.046 14.2379C131.046 18.1249 128.877 19.8589 125.394 19.8279H121.582V8.64589ZM123.982 17.9699H125.221C128.073 18.0009 128.492 16.0169 128.492 14.2379C128.492 12.4559 128.073 10.4739 125.221 10.5049H123.982V17.9699Z" fill="#002F54"/>
<path d="M137.125 19.8287V8.64568H141.323C143.321 8.52168 145.366 9.35968 145.366 11.5427C145.366 12.7657 144.512 13.6187 143.398 13.9887V14.0207C144.809 14.3157 145.86 15.2917 145.86 16.9317C145.86 19.1467 143.07 19.9537 141.353 19.8287H137.125ZM141.4 17.9697C142.531 17.9697 143.305 17.7677 143.305 16.4827C143.305 15.1977 142.532 14.9957 141.4 14.9957H139.524V17.9707H141.4V17.9697ZM141.4 13.1387C142.407 13.1387 142.963 12.7197 142.963 11.8217C142.963 10.9217 142.406 10.5057 141.4 10.5057H139.524V13.1397L141.4 13.1387Z" fill="#002F54"/>
<path d="M146.609 19.8295L150.653 8.64648H153.503L157.389 19.8295H154.975L154.169 17.4595H149.739L148.901 19.8295H146.609ZM153.564 15.6015L152.031 10.8305H151.999L150.358 15.6015H153.564Z" fill="#002F54"/>
<path d="M165.312 19.8295L160.897 10.5355L160.866 10.5675V19.8295H158.621V8.64651H162.182L166.444 17.4445L166.474 17.4115V8.64551H168.72V19.8295H165.312Z" fill="#002F54"/>
<path d="M173.09 13.4795H173.121L176.839 8.64648H179.642L175.537 13.6495L179.999 19.8295H177.01L173.122 14.1295H173.091V19.8295H170.691V8.64648H173.091V13.4795H173.09Z" fill="#002F54"/>
</g>
<defs>
<radialGradient id="paint0_radial_5498_163267" cx="0" cy="0" r="1" gradientUnits="userSpaceOnUse" gradientTransform="translate(34.3042 7.33094) scale(29.7274 29.7275)">
<stop stop-color="white"/>
<stop offset="0.0598" stop-color="#E7F6FD"/>
<stop offset="0.1829" stop-color="#AFE2FA"/>
<stop offset="0.3589" stop-color="#37C6F4"/>
<stop offset="0.544" stop-color="#00AEEF"/>
<stop offset="1" stop-color="#002F54"/>
</radialGradient>
<clipPath id="clip0_5498_163267">
<rect width="182" height="36" fill="white" transform="translate(0 0.539062)"/>
</clipPath>
</defs>
</svg>
