<svg width="26" height="27" viewBox="0 0 26 27" fill="none" xmlns="http://www.w3.org/2000/svg">
<g clip-path="url(#clip0_5896_129117)">
<path d="M12.9403 25.8561L6.21525 19.101C4.88517 17.765 3.97939 16.0628 3.61243 14.2097C3.24547 12.3566 3.43382 10.4358 4.15366 8.69021C4.8735 6.94462 6.09249 5.45264 7.65651 4.40294C9.22052 3.35324 11.0593 2.79297 12.9403 2.79297C14.8213 2.79297 16.6601 3.35324 18.2241 4.40294C19.7881 5.45264 21.0071 6.94462 21.727 8.69021C22.4468 10.4358 22.6352 12.3566 22.2682 14.2097C21.9012 16.0628 20.9954 17.765 19.6654 19.101L12.9403 25.8561ZM18.1711 17.6001C19.2056 16.561 19.91 15.2371 20.1954 13.7958C20.4807 12.3545 20.3342 10.8606 19.7743 9.50292C19.2144 8.14528 18.2663 6.98489 17.0499 6.16848C15.8334 5.35208 14.4033 4.91633 12.9403 4.91633C11.4773 4.91633 10.0472 5.35208 8.83075 6.16848C7.61432 6.98489 6.6662 8.14528 6.10631 9.50292C5.54641 10.8606 5.39988 12.3545 5.68524 13.7958C5.9706 15.2371 6.67504 16.561 7.70947 17.6001L12.9403 22.8543L18.1711 17.6001ZM12.9403 14.4689C12.3798 14.4689 11.8422 14.2452 11.4459 13.8471C11.0495 13.449 10.8268 12.909 10.8268 12.346C10.8268 11.7829 11.0495 11.243 11.4459 10.8448C11.8422 10.4467 12.3798 10.2231 12.9403 10.2231C13.5008 10.2231 14.0384 10.4467 14.4348 10.8448C14.8311 11.243 15.0538 11.7829 15.0538 12.346C15.0538 12.909 14.8311 13.449 14.4348 13.8471C14.0384 14.2452 13.5008 14.4689 12.9403 14.4689Z" fill="#070708"/>
</g>
<defs>
<clipPath id="clip0_5896_129117">
<rect width="25.3616" height="25.4749" fill="white" transform="translate(0.257812 0.669922)"/>
</clipPath>
</defs>
</svg>
