<svg width="18" height="18" viewBox="0 0 18 18" fill="none" xmlns="http://www.w3.org/2000/svg">
<g clip-path="url(#clip0_5933_128337)">
<path d="M6 9H7.5V10.5H3V9H4.5C4.5 8.10998 4.76392 7.23995 5.25839 6.49993C5.75285 5.75991 6.45566 5.18314 7.27792 4.84254C8.10019 4.50195 9.00499 4.41283 9.87791 4.58647C10.7508 4.7601 11.5526 5.18868 12.182 5.81802C12.8113 6.44736 13.2399 7.24918 13.4135 8.12209C13.5872 8.99501 13.4981 9.89981 13.1575 10.7221C12.8169 11.5443 12.2401 12.2471 11.5001 12.7416C10.76 13.2361 9.89002 13.5 9 13.5V12C9.59334 12 10.1734 11.8241 10.6667 11.4944C11.1601 11.1648 11.5446 10.6962 11.7716 10.1481C11.9987 9.59987 12.0581 8.99667 11.9424 8.41473C11.8266 7.83279 11.5409 7.29824 11.1213 6.87868C10.7018 6.45912 10.1672 6.1734 9.58527 6.05764C9.00333 5.94189 8.40013 6.0013 7.85195 6.22836C7.30377 6.45542 6.83524 6.83994 6.50559 7.33329C6.17595 7.82664 6 8.40666 6 9ZM4.5 15H11.25V16.5H4.5V15ZM1.5 12H7.5V13.5H1.5V12ZM8.25 0.75H9.75V3H8.25V0.75ZM2.63625 3.69675L3.69675 2.63625L5.2875 4.227L4.227 5.2875L2.63625 3.6975V3.69675ZM12.7125 13.773L13.773 12.7125L15.3638 14.3032L14.3032 15.3638L12.7125 13.773ZM14.3032 2.6355L15.3638 3.69675L13.773 5.2875L12.7125 4.227L14.3032 2.63625V2.6355ZM17.25 8.25V9.75H15V8.25H17.25Z" fill="#4345AA"/>
</g>
<defs>
<clipPath id="clip0_5933_128337">
<rect width="18" height="18" fill="white"/>
</clipPath>
</defs>
</svg>
