<svg width="30" height="30" viewBox="0 0 30 30" fill="none" xmlns="http://www.w3.org/2000/svg">
<g clip-path="url(#clip0_6072_129813)">
<path d="M6.25 26.25C5.94383 26.2499 5.64833 26.1375 5.41954 25.9341C5.19074 25.7306 5.04457 25.4503 5.00875 25.1462L5 25V13.75H1.25L14.1587 2.01496C14.3685 1.82408 14.6369 1.71019 14.92 1.69202C15.203 1.67385 15.4838 1.75247 15.7162 1.91496L15.8413 2.01496L28.75 13.75H25V25C25 25.3061 24.8876 25.6016 24.6841 25.8304C24.4807 26.0592 24.2003 26.2054 23.8963 26.2412L23.75 26.25H6.25ZM15 4.62746L7.5 11.445V23.75H12.9463L14.6875 21.875L10 17.5L16.25 13.75L13.125 11.25L16.875 7.49996L16.25 11.25L19.375 13.75L14.375 17.5L18.75 21.25L17.1875 23.75H22.5V11.4462L15 4.62746Z" fill="#DE0B16"/>
</g>
<defs>
<clipPath id="clip0_6072_129813">
<rect width="30" height="30" fill="white"/>
</clipPath>
</defs>
</svg>
