<svg width="30" height="31" viewBox="0 0 30 31" fill="none" xmlns="http://www.w3.org/2000/svg">
<g clip-path="url(#clip0_6072_129823)">
<path d="M15 28C8.09625 28 2.5 22.4037 2.5 15.5C2.5 8.59625 8.09625 3 15 3C21.9037 3 27.5 8.59625 27.5 15.5C27.5 22.4037 21.9037 28 15 28ZM15 25.5C17.6522 25.5 20.1957 24.4464 22.0711 22.5711C23.9464 20.6957 25 18.1522 25 15.5C25 12.8478 23.9464 10.3043 22.0711 8.42893C20.1957 6.55357 17.6522 5.5 15 5.5C12.3478 5.5 9.8043 6.55357 7.92893 8.42893C6.05357 10.3043 5 12.8478 5 15.5C5 18.1522 6.05357 20.6957 7.92893 22.5711C9.8043 24.4464 12.3478 25.5 15 25.5ZM10.625 18H17.5C17.6658 18 17.8247 17.9342 17.9419 17.8169C18.0592 17.6997 18.125 17.5408 18.125 17.375C18.125 17.2092 18.0592 17.0503 17.9419 16.9331C17.8247 16.8158 17.6658 16.75 17.5 16.75H12.5C11.6712 16.75 10.8763 16.4208 10.2903 15.8347C9.70424 15.2487 9.375 14.4538 9.375 13.625C9.375 12.7962 9.70424 12.0013 10.2903 11.4153C10.8763 10.8292 11.6712 10.5 12.5 10.5H13.75V8H16.25V10.5H19.375V13H12.5C12.3342 13 12.1753 13.0658 12.0581 13.1831C11.9408 13.3003 11.875 13.4592 11.875 13.625C11.875 13.7908 11.9408 13.9497 12.0581 14.0669C12.1753 14.1842 12.3342 14.25 12.5 14.25H17.5C18.3288 14.25 19.1237 14.5792 19.7097 15.1653C20.2958 15.7513 20.625 16.5462 20.625 17.375C20.625 18.2038 20.2958 18.9987 19.7097 19.5847C19.1237 20.1708 18.3288 20.5 17.5 20.5H16.25V23H13.75V20.5H10.625V18Z" fill="#DE0B16"/>
</g>
<defs>
<clipPath id="clip0_6072_129823">
<rect width="30" height="30" fill="white" transform="translate(0 0.5)"/>
</clipPath>
</defs>
</svg>
