<svg width="35" height="35" viewBox="0 0 35 35" fill="none" xmlns="http://www.w3.org/2000/svg">
<g opacity="0.7" clip-path="url(#clip0_5896_128645)">
<path d="M17.5013 32.0832C9.44693 32.0832 2.91797 25.5542 2.91797 17.4998C2.91797 9.44546 9.44693 2.9165 17.5013 2.9165C25.5557 2.9165 32.0846 9.44546 32.0846 17.4998C32.0846 25.5542 25.5557 32.0832 17.5013 32.0832ZM17.5013 29.1665C20.5955 29.1665 23.563 27.9373 25.7509 25.7494C27.9388 23.5615 29.168 20.594 29.168 17.4998C29.168 14.4056 27.9388 11.4382 25.7509 9.25026C23.563 7.06233 20.5955 5.83317 17.5013 5.83317C14.4071 5.83317 11.4396 7.06233 9.25172 9.25026C7.0638 11.4382 5.83464 14.4056 5.83464 17.4998C5.83464 20.594 7.0638 23.5615 9.25172 25.7494C11.4396 27.9373 14.4071 29.1665 17.5013 29.1665V29.1665ZM16.043 10.2082H18.9596V13.1248H16.043V10.2082ZM16.043 16.0415H18.9596V24.7915H16.043V16.0415Z" fill="#E6EBFF"/>
</g>
<defs>
<clipPath id="clip0_5896_128645">
<rect width="35" height="35" fill="white"/>
</clipPath>
</defs>
</svg>
