<svg width="19" height="19" viewBox="0 0 19 19" fill="none" xmlns="http://www.w3.org/2000/svg">
<path d="M13.5965 13.0717L16.828 16.2639L15.7731 17.3315L12.5424 14.1385C11.3532 15.1036 9.87006 15.6335 8.33858 15.6405C4.61264 15.6628 1.57058 12.657 1.54826 8.93103C1.52593 5.2051 4.53176 2.16303 8.25769 2.14071C11.9836 2.11838 15.0257 5.12421 15.048 8.85015C15.0594 10.3816 14.5473 11.871 13.5965 13.0717ZM12.0887 12.5242C13.0347 11.5397 13.5584 10.2244 13.548 8.85913C13.5307 5.95818 11.1669 3.62331 8.26668 3.64068C5.36573 3.65806 3.03085 6.0211 3.04823 8.92204C3.06561 11.8222 5.42864 14.1579 8.32959 14.1405C9.6949 14.1345 11.0038 13.595 11.9769 12.6374L12.0887 12.5242V12.5242Z" fill="#5C6A7D"/>
</svg>
